<?xml version="1.0" encoding="UTF-8" standalone="no"?>
<!DOCTYPE svg PUBLIC "-//W3C//DTD SVG 1.1//EN"
 "http://www.w3.org/Graphics/SVG/1.1/DTD/svg11.dtd">
<!-- Generated by graphviz version 7.1.0 (20230121.1956)
 -->
<!-- Title: G Pages: 1 -->
<svg width="739pt" height="333pt"
 viewBox="0.00 0.00 739.20 332.74" xmlns="http://www.w3.org/2000/svg" xmlns:xlink="http://www.w3.org/1999/xlink">
<g id="graph0" class="graph" transform="scale(1 1) rotate(0) translate(21.6 311.14)">
<title>G</title>
<polygon fill="#111111" stroke="none" points="-21.6,21.6 -21.6,-311.14 717.6,-311.14 717.6,21.6 -21.6,21.6"/>
<!-- @tryrolljs/api -->
<g id="node1" class="node">
<title>@tryrolljs/api</title>
<path fill="none" stroke="#c6c5fe" d="M470.33,-35.54C470.33,-35.54 390.67,-35.54 390.67,-35.54 386.83,-35.54 383,-31.71 383,-27.87 383,-27.87 383,-20.21 383,-20.21 383,-16.37 386.83,-12.54 390.67,-12.54 390.67,-12.54 470.33,-12.54 470.33,-12.54 474.17,-12.54 478,-16.37 478,-20.21 478,-20.21 478,-27.87 478,-27.87 478,-31.71 474.17,-35.54 470.33,-35.54"/>
<text text-anchor="middle" x="430.5" y="-20.34" font-family="Arial" font-size="14.00" fill="#c6c5fe">@tryrolljs/api</text>
</g>
<!-- @tryrolljs/session&#45;manager -->
<g id="node2" class="node">
<title>@tryrolljs/session&#45;manager</title>
<path fill="none" stroke="#cfffac" d="M688.33,-35.54C688.33,-35.54 521.67,-35.54 521.67,-35.54 517.83,-35.54 514,-31.71 514,-27.87 514,-27.87 514,-20.21 514,-20.21 514,-16.37 517.83,-12.54 521.67,-12.54 521.67,-12.54 688.33,-12.54 688.33,-12.54 692.17,-12.54 696,-16.37 696,-20.21 696,-20.21 696,-27.87 696,-27.87 696,-31.71 692.17,-35.54 688.33,-35.54"/>
<text text-anchor="middle" x="605" y="-20.34" font-family="Arial" font-size="14.00" fill="#cfffac">@tryrolljs/session&#45;manager</text>
</g>
<!-- @tryrolljs/api&#45;&gt;@tryrolljs/session&#45;manager -->
<g id="edge1" class="edge">
<title>@tryrolljs/api&#45;&gt;@tryrolljs/session&#45;manager</title>
<path fill="none" stroke="#757575" d="M478.18,-24.04C485.8,-24.04 493.93,-24.04 502.27,-24.04"/>
<polygon fill="#757575" stroke="#757575" points="502.23,-27.54 512.23,-24.04 502.23,-20.54 502.23,-27.54"/>
</g>
<!-- @tryrolljs/api&#45;client -->
<g id="node3" class="node">
<title>@tryrolljs/api&#45;client</title>
<path fill="none" stroke="#c6c5fe" d="M339.33,-35.54C339.33,-35.54 223.67,-35.54 223.67,-35.54 219.83,-35.54 216,-31.71 216,-27.87 216,-27.87 216,-20.21 216,-20.21 216,-16.37 219.83,-12.54 223.67,-12.54 223.67,-12.54 339.33,-12.54 339.33,-12.54 343.17,-12.54 347,-16.37 347,-20.21 347,-20.21 347,-27.87 347,-27.87 347,-31.71 343.17,-35.54 339.33,-35.54"/>
<text text-anchor="middle" x="281.5" y="-20.34" font-family="Arial" font-size="14.00" fill="#c6c5fe">@tryrolljs/api&#45;client</text>
</g>
<!-- @tryrolljs/api&#45;client&#45;&gt;@tryrolljs/api -->
<g id="edge2" class="edge">
<title>@tryrolljs/api&#45;client&#45;&gt;@tryrolljs/api</title>
<path fill="none" stroke="#757575" d="M347.4,-24.04C355.36,-24.04 363.46,-24.04 371.31,-24.04"/>
<polygon fill="#757575" stroke="#757575" points="371.08,-27.54 381.08,-24.04 371.08,-20.54 371.08,-27.54"/>
</g>
<!-- @tryrolljs/api&#45;client&#45;&gt;@tryrolljs/session&#45;manager -->
<g id="edge3" class="edge">
<title>@tryrolljs/api&#45;client&#45;&gt;@tryrolljs/session&#45;manager</title>
<path fill="none" stroke="#757575" d="M329.73,-12.08C346.44,-8.41 365.45,-4.86 383,-3.04 425,1.3 435.92,0.44 478,-3.04 496.03,-4.53 515.37,-7.21 533.35,-10.16"/>
<polygon fill="#757575" stroke="#757575" points="532.71,-13.6 543.15,-11.82 533.88,-6.7 532.71,-13.6"/>
</g>
<!-- @tryrolljs/cli -->
<g id="node4" class="node">
<title>@tryrolljs/cli</title>
<path fill="none" stroke="#cfffac" d="M318.83,-125.54C318.83,-125.54 244.17,-125.54 244.17,-125.54 240.33,-125.54 236.5,-121.71 236.5,-117.87 236.5,-117.87 236.5,-110.21 236.5,-110.21 236.5,-106.37 240.33,-102.54 244.17,-102.54 244.17,-102.54 318.83,-102.54 318.83,-102.54 322.67,-102.54 326.5,-106.37 326.5,-110.21 326.5,-110.21 326.5,-117.87 326.5,-117.87 326.5,-121.71 322.67,-125.54 318.83,-125.54"/>
<text text-anchor="middle" x="281.5" y="-110.34" font-family="Arial" font-size="14.00" fill="#cfffac">@tryrolljs/cli</text>
</g>
<!-- @tryrolljs/contract&#45;bindings -->
<g id="node5" class="node">
<title>@tryrolljs/contract&#45;bindings</title>
<path fill="none" stroke="#cfffac" d="M172.33,-166.54C172.33,-166.54 7.67,-166.54 7.67,-166.54 3.83,-166.54 0,-162.71 0,-158.87 0,-158.87 0,-151.21 0,-151.21 0,-147.37 3.83,-143.54 7.67,-143.54 7.67,-143.54 172.33,-143.54 172.33,-143.54 176.17,-143.54 180,-147.37 180,-151.21 180,-151.21 180,-158.87 180,-158.87 180,-162.71 176.17,-166.54 172.33,-166.54"/>
<text text-anchor="middle" x="90" y="-151.34" font-family="Arial" font-size="14.00" fill="#cfffac">@tryrolljs/contract&#45;bindings</text>
</g>
<!-- @tryrolljs/design&#45;system -->
<g id="node6" class="node">
<title>@tryrolljs/design&#45;system</title>
<path fill="none" stroke="#cfffac" d="M164.83,-207.54C164.83,-207.54 15.17,-207.54 15.17,-207.54 11.33,-207.54 7.5,-203.71 7.5,-199.87 7.5,-199.87 7.5,-192.21 7.5,-192.21 7.5,-188.37 11.33,-184.54 15.17,-184.54 15.17,-184.54 164.83,-184.54 164.83,-184.54 168.67,-184.54 172.5,-188.37 172.5,-192.21 172.5,-192.21 172.5,-199.87 172.5,-199.87 172.5,-203.71 168.67,-207.54 164.83,-207.54"/>
<text text-anchor="middle" x="90" y="-192.34" font-family="Arial" font-size="14.00" fill="#cfffac">@tryrolljs/design&#45;system</text>
</g>
<!-- @tryrolljs/eslint&#45;config -->
<g id="node7" class="node">
<title>@tryrolljs/eslint&#45;config</title>
<path fill="none" stroke="#cfffac" d="M156.83,-248.54C156.83,-248.54 23.17,-248.54 23.17,-248.54 19.33,-248.54 15.5,-244.71 15.5,-240.87 15.5,-240.87 15.5,-233.21 15.5,-233.21 15.5,-229.37 19.33,-225.54 23.17,-225.54 23.17,-225.54 156.83,-225.54 156.83,-225.54 160.67,-225.54 164.5,-229.37 164.5,-233.21 164.5,-233.21 164.5,-240.87 164.5,-240.87 164.5,-244.71 160.67,-248.54 156.83,-248.54"/>
<text text-anchor="middle" x="90" y="-233.34" font-family="Arial" font-size="14.00" fill="#cfffac">@tryrolljs/eslint&#45;config</text>
</g>
<!-- @tryrolljs/feature&#45;flag -->
<g id="node8" class="node">
<title>@tryrolljs/feature&#45;flag</title>
<path fill="none" stroke="#cfffac" d="M155.33,-289.54C155.33,-289.54 24.67,-289.54 24.67,-289.54 20.83,-289.54 17,-285.71 17,-281.87 17,-281.87 17,-274.21 17,-274.21 17,-270.37 20.83,-266.54 24.67,-266.54 24.67,-266.54 155.33,-266.54 155.33,-266.54 159.17,-266.54 163,-270.37 163,-274.21 163,-274.21 163,-281.87 163,-281.87 163,-285.71 159.17,-289.54 155.33,-289.54"/>
<text text-anchor="middle" x="90" y="-274.34" font-family="Arial" font-size="14.00" fill="#cfffac">@tryrolljs/feature&#45;flag</text>
</g>
<!-- @tryrolljs/prettier&#45;config -->
<g id="node9" class="node">
<title>@tryrolljs/prettier&#45;config</title>
<path fill="none" stroke="#c6c5fe" d="M162.33,-125.54C162.33,-125.54 17.67,-125.54 17.67,-125.54 13.83,-125.54 10,-121.71 10,-117.87 10,-117.87 10,-110.21 10,-110.21 10,-106.37 13.83,-102.54 17.67,-102.54 17.67,-102.54 162.33,-102.54 162.33,-102.54 166.17,-102.54 170,-106.37 170,-110.21 170,-110.21 170,-117.87 170,-117.87 170,-121.71 166.17,-125.54 162.33,-125.54"/>
<text text-anchor="middle" x="90" y="-110.34" font-family="Arial" font-size="14.00" fill="#c6c5fe">@tryrolljs/prettier&#45;config</text>
</g>
<!-- @tryrolljs/prettier&#45;config&#45;&gt;@tryrolljs/cli -->
<g id="edge4" class="edge">
<title>@tryrolljs/prettier&#45;config&#45;&gt;@tryrolljs/cli</title>
<path fill="none" stroke="#757575" d="M170.27,-114.04C188.56,-114.04 207.65,-114.04 224.7,-114.04"/>
<polygon fill="#757575" stroke="#757575" points="224.62,-117.54 234.62,-114.04 224.62,-110.54 224.62,-117.54"/>
</g>
<!-- @tryrolljs/sdk -->
<g id="node10" class="node">
<title>@tryrolljs/sdk</title>
<path fill="none" stroke="#c6c5fe" d="M131.33,-65.54C131.33,-65.54 48.67,-65.54 48.67,-65.54 44.83,-65.54 41,-61.71 41,-57.87 41,-57.87 41,-50.21 41,-50.21 41,-46.37 44.83,-42.54 48.67,-42.54 48.67,-42.54 131.33,-42.54 131.33,-42.54 135.17,-42.54 139,-46.37 139,-50.21 139,-50.21 139,-57.87 139,-57.87 139,-61.71 135.17,-65.54 131.33,-65.54"/>
<text text-anchor="middle" x="90" y="-50.34" font-family="Arial" font-size="14.00" fill="#c6c5fe">@tryrolljs/sdk</text>
</g>
<!-- @tryrolljs/sdk&#45;&gt;@tryrolljs/session&#45;manager -->
<g id="edge6" class="edge">
<title>@tryrolljs/sdk&#45;&gt;@tryrolljs/session&#45;manager</title>
<path fill="none" stroke="#757575" d="M139.39,-54.83C212.77,-55.56 356.53,-55.2 478,-44.04 494.22,-42.55 511.51,-40.27 527.93,-37.77"/>
<polygon fill="#757575" stroke="#757575" points="528.3,-41.25 537.64,-36.24 527.22,-34.34 528.3,-41.25"/>
</g>
<!-- @tryrolljs/sdk&#45;&gt;@tryrolljs/api&#45;client -->
<g id="edge5" class="edge">
<title>@tryrolljs/sdk&#45;&gt;@tryrolljs/api&#45;client</title>
<path fill="none" stroke="#757575" d="M139.31,-46.39C159.11,-43.26 182.5,-39.56 204.48,-36.08"/>
<polygon fill="#757575" stroke="#757575" points="205,-39.54 214.33,-34.52 203.91,-32.62 205,-39.54"/>
</g>
</g>
</svg>
