<?xml version="1.0" encoding="UTF-8" standalone="no"?>
<!DOCTYPE svg PUBLIC "-//W3C//DTD SVG 1.1//EN"
 "http://www.w3.org/Graphics/SVG/1.1/DTD/svg11.dtd">
<!-- Generated by graphviz version 7.1.0 (20230121.1956)
 -->
<!-- Title: G Pages: 1 -->
<svg width="960pt" height="425pt"
 viewBox="0.00 0.00 960.20 425.20" xmlns="http://www.w3.org/2000/svg" xmlns:xlink="http://www.w3.org/1999/xlink">
<g id="graph0" class="graph" transform="scale(1 1) rotate(0) translate(21.6 403.6)">
<title>G</title>
<polygon fill="#111111" stroke="none" points="-21.6,21.6 -21.6,-403.6 938.6,-403.6 938.6,21.6 -21.6,21.6"/>
<!-- @tryrolljs/api -->
<g id="node1" class="node">
<title>@tryrolljs/api</title>
<path fill="none" stroke="#c6c5fe" d="M470.33,-103C470.33,-103 390.67,-103 390.67,-103 386.83,-103 383,-99.17 383,-95.33 383,-95.33 383,-87.67 383,-87.67 383,-83.83 386.83,-80 390.67,-80 390.67,-80 470.33,-80 470.33,-80 474.17,-80 478,-83.83 478,-87.67 478,-87.67 478,-95.33 478,-95.33 478,-99.17 474.17,-103 470.33,-103"/>
<text text-anchor="middle" x="430.5" y="-87.8" font-family="Arial" font-size="14.00" fill="#c6c5fe">@tryrolljs/api</text>
</g>
<!-- @tryrolljs/auth&#45;sdk&#45;example -->
<g id="node2" class="node">
<title>@tryrolljs/auth&#45;sdk&#45;example</title>
<path fill="none" stroke="#cfffac" d="M909.33,-103C909.33,-103 739.67,-103 739.67,-103 735.83,-103 732,-99.17 732,-95.33 732,-95.33 732,-87.67 732,-87.67 732,-83.83 735.83,-80 739.67,-80 739.67,-80 909.33,-80 909.33,-80 913.17,-80 917,-83.83 917,-87.67 917,-87.67 917,-95.33 917,-95.33 917,-99.17 913.17,-103 909.33,-103"/>
<text text-anchor="middle" x="824.5" y="-87.8" font-family="Arial" font-size="14.00" fill="#cfffac">@tryrolljs/auth&#45;sdk&#45;example</text>
</g>
<!-- @tryrolljs/api&#45;&gt;@tryrolljs/auth&#45;sdk&#45;example -->
<g id="edge1" class="edge">
<title>@tryrolljs/api&#45;&gt;@tryrolljs/auth&#45;sdk&#45;example</title>
<path fill="none" stroke="#757575" d="M478.39,-91.5C537.86,-91.5 642.07,-91.5 720.46,-91.5"/>
<polygon fill="#757575" stroke="#757575" points="720.32,-95 730.32,-91.5 720.32,-88 720.32,-95"/>
</g>
<!-- @tryrolljs/session&#45;manager -->
<g id="node3" class="node">
<title>@tryrolljs/session&#45;manager</title>
<path fill="none" stroke="#c6c5fe" d="M688.33,-143C688.33,-143 521.67,-143 521.67,-143 517.83,-143 514,-139.17 514,-135.33 514,-135.33 514,-127.67 514,-127.67 514,-123.83 517.83,-120 521.67,-120 521.67,-120 688.33,-120 688.33,-120 692.17,-120 696,-123.83 696,-127.67 696,-127.67 696,-135.33 696,-135.33 696,-139.17 692.17,-143 688.33,-143"/>
<text text-anchor="middle" x="605" y="-127.8" font-family="Arial" font-size="14.00" fill="#c6c5fe">@tryrolljs/session&#45;manager</text>
</g>
<!-- @tryrolljs/api&#45;&gt;@tryrolljs/session&#45;manager -->
<g id="edge2" class="edge">
<title>@tryrolljs/api&#45;&gt;@tryrolljs/session&#45;manager</title>
<path fill="none" stroke="#757575" d="M478.18,-102.32C497.63,-106.84 520.52,-112.14 541.39,-116.98"/>
<polygon fill="#757575" stroke="#757575" points="540.42,-120.35 550.95,-119.2 542,-113.53 540.42,-120.35"/>
</g>
<!-- @tryrolljs/session&#45;manager&#45;&gt;@tryrolljs/auth&#45;sdk&#45;example -->
<g id="edge11" class="edge">
<title>@tryrolljs/session&#45;manager&#45;&gt;@tryrolljs/auth&#45;sdk&#45;example</title>
<path fill="none" stroke="#757575" d="M670.96,-119.55C694.95,-115.14 722.35,-110.1 747.25,-105.52"/>
<polygon fill="#757575" stroke="#757575" points="747.81,-108.98 757.01,-103.73 746.54,-102.09 747.81,-108.98"/>
</g>
<!-- @tryrolljs/api&#45;client -->
<g id="node4" class="node">
<title>@tryrolljs/api&#45;client</title>
<path fill="none" stroke="#c6c5fe" d="M339.33,-122C339.33,-122 223.67,-122 223.67,-122 219.83,-122 216,-118.17 216,-114.33 216,-114.33 216,-106.67 216,-106.67 216,-102.83 219.83,-99 223.67,-99 223.67,-99 339.33,-99 339.33,-99 343.17,-99 347,-102.83 347,-106.67 347,-106.67 347,-114.33 347,-114.33 347,-118.17 343.17,-122 339.33,-122"/>
<text text-anchor="middle" x="281.5" y="-106.8" font-family="Arial" font-size="14.00" fill="#c6c5fe">@tryrolljs/api&#45;client</text>
</g>
<!-- @tryrolljs/api&#45;client&#45;&gt;@tryrolljs/api -->
<g id="edge3" class="edge">
<title>@tryrolljs/api&#45;client&#45;&gt;@tryrolljs/api</title>
<path fill="none" stroke="#757575" d="M347.4,-102.11C355.36,-101.08 363.46,-100.04 371.31,-99.02"/>
<polygon fill="#757575" stroke="#757575" points="371.62,-102.51 381.09,-97.76 370.72,-95.57 371.62,-102.51"/>
</g>
<!-- @tryrolljs/api&#45;client&#45;&gt;@tryrolljs/auth&#45;sdk&#45;example -->
<g id="edge4" class="edge">
<title>@tryrolljs/api&#45;client&#45;&gt;@tryrolljs/auth&#45;sdk&#45;example</title>
<path fill="none" stroke="#757575" d="M305.3,-98.53C325.19,-88.8 355.15,-75.84 383,-70.5 510.68,-46.02 662.79,-63.26 750.74,-77.64"/>
<polygon fill="#757575" stroke="#757575" points="750,-81.06 760.44,-79.26 751.15,-74.16 750,-81.06"/>
</g>
<!-- @tryrolljs/api&#45;client&#45;&gt;@tryrolljs/session&#45;manager -->
<g id="edge5" class="edge">
<title>@tryrolljs/api&#45;client&#45;&gt;@tryrolljs/session&#45;manager</title>
<path fill="none" stroke="#757575" d="M347.17,-114.72C391.58,-117.63 451.44,-121.54 502.2,-124.85"/>
<polygon fill="#757575" stroke="#757575" points="501.83,-128.33 512.04,-125.49 502.29,-121.35 501.83,-128.33"/>
</g>
<!-- @tryrolljs/cli -->
<g id="node5" class="node">
<title>@tryrolljs/cli</title>
<path fill="none" stroke="#cfffac" d="M318.83,-259C318.83,-259 244.17,-259 244.17,-259 240.33,-259 236.5,-255.17 236.5,-251.33 236.5,-251.33 236.5,-243.67 236.5,-243.67 236.5,-239.83 240.33,-236 244.17,-236 244.17,-236 318.83,-236 318.83,-236 322.67,-236 326.5,-239.83 326.5,-243.67 326.5,-243.67 326.5,-251.33 326.5,-251.33 326.5,-255.17 322.67,-259 318.83,-259"/>
<text text-anchor="middle" x="281.5" y="-243.8" font-family="Arial" font-size="14.00" fill="#cfffac">@tryrolljs/cli</text>
</g>
<!-- @tryrolljs/contract&#45;bindings -->
<g id="node6" class="node">
<title>@tryrolljs/contract&#45;bindings</title>
<path fill="none" stroke="#cfffac" d="M172.33,-300C172.33,-300 7.67,-300 7.67,-300 3.83,-300 0,-296.17 0,-292.33 0,-292.33 0,-284.67 0,-284.67 0,-280.83 3.83,-277 7.67,-277 7.67,-277 172.33,-277 172.33,-277 176.17,-277 180,-280.83 180,-284.67 180,-284.67 180,-292.33 180,-292.33 180,-296.17 176.17,-300 172.33,-300"/>
<text text-anchor="middle" x="90" y="-284.8" font-family="Arial" font-size="14.00" fill="#cfffac">@tryrolljs/contract&#45;bindings</text>
</g>
<!-- @tryrolljs/design&#45;system -->
<g id="node7" class="node">
<title>@tryrolljs/design&#45;system</title>
<path fill="none" stroke="#c6c5fe" d="M679.83,-23C679.83,-23 530.17,-23 530.17,-23 526.33,-23 522.5,-19.17 522.5,-15.33 522.5,-15.33 522.5,-7.67 522.5,-7.67 522.5,-3.83 526.33,0 530.17,0 530.17,0 679.83,0 679.83,0 683.67,0 687.5,-3.83 687.5,-7.67 687.5,-7.67 687.5,-15.33 687.5,-15.33 687.5,-19.17 683.67,-23 679.83,-23"/>
<text text-anchor="middle" x="605" y="-7.8" font-family="Arial" font-size="14.00" fill="#c6c5fe">@tryrolljs/design&#45;system</text>
</g>
<!-- @tryrolljs/design&#45;system&#45;&gt;@tryrolljs/auth&#45;sdk&#45;example -->
<g id="edge6" class="edge">
<title>@tryrolljs/design&#45;system&#45;&gt;@tryrolljs/auth&#45;sdk&#45;example</title>
<path fill="none" stroke="#757575" d="M651.2,-23.42C665.63,-27.52 681.59,-32.39 696,-37.5 727.52,-48.68 762.44,-63.66 787.75,-75"/>
<polygon fill="#757575" stroke="#757575" points="786.04,-78.07 796.59,-79 788.92,-71.69 786.04,-78.07"/>
</g>
<!-- @tryrolljs/eslint&#45;config -->
<g id="node8" class="node">
<title>@tryrolljs/eslint&#45;config</title>
<path fill="none" stroke="#cfffac" d="M156.83,-341C156.83,-341 23.17,-341 23.17,-341 19.33,-341 15.5,-337.17 15.5,-333.33 15.5,-333.33 15.5,-325.67 15.5,-325.67 15.5,-321.83 19.33,-318 23.17,-318 23.17,-318 156.83,-318 156.83,-318 160.67,-318 164.5,-321.83 164.5,-325.67 164.5,-325.67 164.5,-333.33 164.5,-333.33 164.5,-337.17 160.67,-341 156.83,-341"/>
<text text-anchor="middle" x="90" y="-325.8" font-family="Arial" font-size="14.00" fill="#cfffac">@tryrolljs/eslint&#45;config</text>
</g>
<!-- @tryrolljs/feature&#45;flag -->
<g id="node9" class="node">
<title>@tryrolljs/feature&#45;flag</title>
<path fill="none" stroke="#cfffac" d="M155.33,-382C155.33,-382 24.67,-382 24.67,-382 20.83,-382 17,-378.17 17,-374.33 17,-374.33 17,-366.67 17,-366.67 17,-362.83 20.83,-359 24.67,-359 24.67,-359 155.33,-359 155.33,-359 159.17,-359 163,-362.83 163,-366.67 163,-366.67 163,-374.33 163,-374.33 163,-378.17 159.17,-382 155.33,-382"/>
<text text-anchor="middle" x="90" y="-366.8" font-family="Arial" font-size="14.00" fill="#cfffac">@tryrolljs/feature&#45;flag</text>
</g>
<!-- @tryrolljs/prettier&#45;config -->
<g id="node10" class="node">
<title>@tryrolljs/prettier&#45;config</title>
<path fill="none" stroke="#c6c5fe" d="M162.33,-259C162.33,-259 17.67,-259 17.67,-259 13.83,-259 10,-255.17 10,-251.33 10,-251.33 10,-243.67 10,-243.67 10,-239.83 13.83,-236 17.67,-236 17.67,-236 162.33,-236 162.33,-236 166.17,-236 170,-239.83 170,-243.67 170,-243.67 170,-251.33 170,-251.33 170,-255.17 166.17,-259 162.33,-259"/>
<text text-anchor="middle" x="90" y="-243.8" font-family="Arial" font-size="14.00" fill="#c6c5fe">@tryrolljs/prettier&#45;config</text>
</g>
<!-- @tryrolljs/prettier&#45;config&#45;&gt;@tryrolljs/cli -->
<g id="edge7" class="edge">
<title>@tryrolljs/prettier&#45;config&#45;&gt;@tryrolljs/cli</title>
<path fill="none" stroke="#757575" d="M170.27,-247.5C188.56,-247.5 207.65,-247.5 224.7,-247.5"/>
<polygon fill="#757575" stroke="#757575" points="224.62,-251 234.62,-247.5 224.62,-244 224.62,-251"/>
</g>
<!-- @tryrolljs/sdk -->
<g id="node11" class="node">
<title>@tryrolljs/sdk</title>
<path fill="none" stroke="#c6c5fe" d="M131.33,-181C131.33,-181 48.67,-181 48.67,-181 44.83,-181 41,-177.17 41,-173.33 41,-173.33 41,-165.67 41,-165.67 41,-161.83 44.83,-158 48.67,-158 48.67,-158 131.33,-158 131.33,-158 135.17,-158 139,-161.83 139,-165.67 139,-165.67 139,-173.33 139,-173.33 139,-177.17 135.17,-181 131.33,-181"/>
<text text-anchor="middle" x="90" y="-165.8" font-family="Arial" font-size="14.00" fill="#c6c5fe">@tryrolljs/sdk</text>
</g>
<!-- @tryrolljs/sdk&#45;&gt;@tryrolljs/auth&#45;sdk&#45;example -->
<g id="edge9" class="edge">
<title>@tryrolljs/sdk&#45;&gt;@tryrolljs/auth&#45;sdk&#45;example</title>
<path fill="none" stroke="#757575" d="M139.42,-175.02C243.31,-185.37 494.51,-202.33 696,-151.5 731.7,-142.49 769.49,-123.34 794.58,-109.08"/>
<polygon fill="#757575" stroke="#757575" points="796.31,-112.12 803.2,-104.08 792.79,-106.07 796.31,-112.12"/>
</g>
<!-- @tryrolljs/sdk&#45;&gt;@tryrolljs/session&#45;manager -->
<g id="edge10" class="edge">
<title>@tryrolljs/sdk&#45;&gt;@tryrolljs/session&#45;manager</title>
<path fill="none" stroke="#757575" d="M139.26,-165.93C222.01,-159.8 392.65,-147.16 502.53,-139.02"/>
<polygon fill="#757575" stroke="#757575" points="502.74,-142.51 512.46,-138.28 502.22,-135.53 502.74,-142.51"/>
</g>
<!-- @tryrolljs/sdk&#45;&gt;@tryrolljs/api&#45;client -->
<g id="edge8" class="edge">
<title>@tryrolljs/sdk&#45;&gt;@tryrolljs/api&#45;client</title>
<path fill="none" stroke="#757575" d="M129.35,-157.56C158.76,-148.4 199.57,-135.7 231.37,-125.8"/>
<polygon fill="#757575" stroke="#757575" points="232.26,-129.19 240.76,-122.87 230.18,-122.5 232.26,-129.19"/>
</g>
</g>
</svg>
