<?xml version="1.0" encoding="UTF-8" standalone="no"?>
<!DOCTYPE svg PUBLIC "-//W3C//DTD SVG 1.1//EN"
 "http://www.w3.org/Graphics/SVG/1.1/DTD/svg11.dtd">
<!-- Generated by graphviz version 7.1.0 (20230121.1956)
 -->
<!-- Title: G Pages: 1 -->
<svg width="847pt" height="271pt"
 viewBox="0.00 0.00 847.20 271.20" xmlns="http://www.w3.org/2000/svg" xmlns:xlink="http://www.w3.org/1999/xlink">
<g id="graph0" class="graph" transform="scale(1 1) rotate(0) translate(21.6 249.6)">
<title>G</title>
<polygon fill="#111111" stroke="none" points="-21.6,21.6 -21.6,-249.6 825.6,-249.6 825.6,21.6 -21.6,21.6"/>
<!-- @roll&#45;network/api -->
<g id="node1" class="node">
<title>@roll&#45;network/api</title>
<path fill="none" stroke="#c6c5fe" d="M551.33,-43C551.33,-43 444.67,-43 444.67,-43 440.83,-43 437,-39.17 437,-35.33 437,-35.33 437,-27.67 437,-27.67 437,-23.83 440.83,-20 444.67,-20 444.67,-20 551.33,-20 551.33,-20 555.17,-20 559,-23.83 559,-27.67 559,-27.67 559,-35.33 559,-35.33 559,-39.17 555.17,-43 551.33,-43"/>
<text text-anchor="middle" x="498" y="-27.8" font-family="Arial" font-size="14.00" fill="#c6c5fe">@roll&#45;network/api</text>
</g>
<!-- @roll&#45;network/session&#45;manager -->
<g id="node2" class="node">
<title>@roll&#45;network/session&#45;manager</title>
<path fill="none" stroke="#cfffac" d="M796.33,-23C796.33,-23 602.67,-23 602.67,-23 598.83,-23 595,-19.17 595,-15.33 595,-15.33 595,-7.67 595,-7.67 595,-3.83 598.83,0 602.67,0 602.67,0 796.33,0 796.33,0 800.17,0 804,-3.83 804,-7.67 804,-7.67 804,-15.33 804,-15.33 804,-19.17 800.17,-23 796.33,-23"/>
<text text-anchor="middle" x="699.5" y="-7.8" font-family="Arial" font-size="14.00" fill="#cfffac">@roll&#45;network/session&#45;manager</text>
</g>
<!-- @roll&#45;network/api&#45;&gt;@roll&#45;network/session&#45;manager -->
<g id="edge1" class="edge">
<title>@roll&#45;network/api&#45;&gt;@roll&#45;network/session&#45;manager</title>
<path fill="none" stroke="#757575" d="M559.4,-25.45C567.12,-24.67 575.23,-23.86 583.47,-23.03"/>
<polygon fill="#757575" stroke="#757575" points="583.67,-26.53 593.27,-22.05 582.98,-19.56 583.67,-26.53"/>
</g>
<!-- @roll&#45;network/api&#45;client -->
<g id="node3" class="node">
<title>@roll&#45;network/api&#45;client</title>
<path fill="none" stroke="#c6c5fe" d="M393.33,-23C393.33,-23 250.67,-23 250.67,-23 246.83,-23 243,-19.17 243,-15.33 243,-15.33 243,-7.67 243,-7.67 243,-3.83 246.83,0 250.67,0 250.67,0 393.33,0 393.33,0 397.17,0 401,-3.83 401,-7.67 401,-7.67 401,-15.33 401,-15.33 401,-19.17 397.17,-23 393.33,-23"/>
<text text-anchor="middle" x="322" y="-7.8" font-family="Arial" font-size="14.00" fill="#c6c5fe">@roll&#45;network/api&#45;client</text>
</g>
<!-- @roll&#45;network/api&#45;client&#45;&gt;@roll&#45;network/api -->
<g id="edge2" class="edge">
<title>@roll&#45;network/api&#45;client&#45;&gt;@roll&#45;network/api</title>
<path fill="none" stroke="#757575" d="M401.35,-20.51C409.29,-21.42 417.32,-22.34 425.19,-23.25"/>
<polygon fill="#757575" stroke="#757575" points="424.72,-26.71 435.05,-24.38 425.52,-19.76 424.72,-26.71"/>
</g>
<!-- @roll&#45;network/api&#45;client&#45;&gt;@roll&#45;network/session&#45;manager -->
<g id="edge3" class="edge">
<title>@roll&#45;network/api&#45;client&#45;&gt;@roll&#45;network/session&#45;manager</title>
<path fill="none" stroke="#757575" d="M401.26,-11.5C453.96,-11.5 524.36,-11.5 583.41,-11.5"/>
<polygon fill="#757575" stroke="#757575" points="583.17,-15 593.17,-11.5 583.17,-8 583.17,-15"/>
</g>
<!-- @roll&#45;network/auth&#45;sdk -->
<g id="node4" class="node">
<title>@roll&#45;network/auth&#45;sdk</title>
<path fill="none" stroke="#c6c5fe" d="M173.83,-23C173.83,-23 33.17,-23 33.17,-23 29.33,-23 25.5,-19.17 25.5,-15.33 25.5,-15.33 25.5,-7.67 25.5,-7.67 25.5,-3.83 29.33,0 33.17,0 33.17,0 173.83,0 173.83,0 177.67,0 181.5,-3.83 181.5,-7.67 181.5,-7.67 181.5,-15.33 181.5,-15.33 181.5,-19.17 177.67,-23 173.83,-23"/>
<text text-anchor="middle" x="103.5" y="-7.8" font-family="Arial" font-size="14.00" fill="#c6c5fe">@roll&#45;network/auth&#45;sdk</text>
</g>
<!-- @roll&#45;network/auth&#45;sdk&#45;&gt;@roll&#45;network/api&#45;client -->
<g id="edge4" class="edge">
<title>@roll&#45;network/auth&#45;sdk&#45;&gt;@roll&#45;network/api&#45;client</title>
<path fill="none" stroke="#757575" d="M181.74,-11.5C197.83,-11.5 214.91,-11.5 231.39,-11.5"/>
<polygon fill="#757575" stroke="#757575" points="231.18,-15 241.18,-11.5 231.18,-8 231.18,-15"/>
</g>
<!-- @roll&#45;network/cli -->
<g id="node5" class="node">
<title>@roll&#45;network/cli</title>
<path fill="none" stroke="#cfffac" d="M372.83,-64C372.83,-64 271.17,-64 271.17,-64 267.33,-64 263.5,-60.17 263.5,-56.33 263.5,-56.33 263.5,-48.67 263.5,-48.67 263.5,-44.83 267.33,-41 271.17,-41 271.17,-41 372.83,-41 372.83,-41 376.67,-41 380.5,-44.83 380.5,-48.67 380.5,-48.67 380.5,-56.33 380.5,-56.33 380.5,-60.17 376.67,-64 372.83,-64"/>
<text text-anchor="middle" x="322" y="-48.8" font-family="Arial" font-size="14.00" fill="#cfffac">@roll&#45;network/cli</text>
</g>
<!-- @roll&#45;network/contract&#45;bindings -->
<g id="node6" class="node">
<title>@roll&#45;network/contract&#45;bindings</title>
<path fill="none" stroke="#cfffac" d="M199.33,-105C199.33,-105 7.67,-105 7.67,-105 3.83,-105 0,-101.17 0,-97.33 0,-97.33 0,-89.67 0,-89.67 0,-85.83 3.83,-82 7.67,-82 7.67,-82 199.33,-82 199.33,-82 203.17,-82 207,-85.83 207,-89.67 207,-89.67 207,-97.33 207,-97.33 207,-101.17 203.17,-105 199.33,-105"/>
<text text-anchor="middle" x="103.5" y="-89.8" font-family="Arial" font-size="14.00" fill="#cfffac">@roll&#45;network/contract&#45;bindings</text>
</g>
<!-- @roll&#45;network/design&#45;system -->
<g id="node7" class="node">
<title>@roll&#45;network/design&#45;system</title>
<path fill="none" stroke="#cfffac" d="M191.83,-146C191.83,-146 15.17,-146 15.17,-146 11.33,-146 7.5,-142.17 7.5,-138.33 7.5,-138.33 7.5,-130.67 7.5,-130.67 7.5,-126.83 11.33,-123 15.17,-123 15.17,-123 191.83,-123 191.83,-123 195.67,-123 199.5,-126.83 199.5,-130.67 199.5,-130.67 199.5,-138.33 199.5,-138.33 199.5,-142.17 195.67,-146 191.83,-146"/>
<text text-anchor="middle" x="103.5" y="-130.8" font-family="Arial" font-size="14.00" fill="#cfffac">@roll&#45;network/design&#45;system</text>
</g>
<!-- @roll&#45;network/eslint&#45;config -->
<g id="node8" class="node">
<title>@roll&#45;network/eslint&#45;config</title>
<path fill="none" stroke="#cfffac" d="M183.83,-187C183.83,-187 23.17,-187 23.17,-187 19.33,-187 15.5,-183.17 15.5,-179.33 15.5,-179.33 15.5,-171.67 15.5,-171.67 15.5,-167.83 19.33,-164 23.17,-164 23.17,-164 183.83,-164 183.83,-164 187.67,-164 191.5,-167.83 191.5,-171.67 191.5,-171.67 191.5,-179.33 191.5,-179.33 191.5,-183.17 187.67,-187 183.83,-187"/>
<text text-anchor="middle" x="103.5" y="-171.8" font-family="Arial" font-size="14.00" fill="#cfffac">@roll&#45;network/eslint&#45;config</text>
</g>
<!-- @roll&#45;network/feature&#45;flag -->
<g id="node9" class="node">
<title>@roll&#45;network/feature&#45;flag</title>
<path fill="none" stroke="#cfffac" d="M182.33,-228C182.33,-228 24.67,-228 24.67,-228 20.83,-228 17,-224.17 17,-220.33 17,-220.33 17,-212.67 17,-212.67 17,-208.83 20.83,-205 24.67,-205 24.67,-205 182.33,-205 182.33,-205 186.17,-205 190,-208.83 190,-212.67 190,-212.67 190,-220.33 190,-220.33 190,-224.17 186.17,-228 182.33,-228"/>
<text text-anchor="middle" x="103.5" y="-212.8" font-family="Arial" font-size="14.00" fill="#cfffac">@roll&#45;network/feature&#45;flag</text>
</g>
<!-- @roll&#45;network/prettier&#45;config -->
<g id="node10" class="node">
<title>@roll&#45;network/prettier&#45;config</title>
<path fill="none" stroke="#c6c5fe" d="M189.33,-64C189.33,-64 17.67,-64 17.67,-64 13.83,-64 10,-60.17 10,-56.33 10,-56.33 10,-48.67 10,-48.67 10,-44.83 13.83,-41 17.67,-41 17.67,-41 189.33,-41 189.33,-41 193.17,-41 197,-44.83 197,-48.67 197,-48.67 197,-56.33 197,-56.33 197,-60.17 193.17,-64 189.33,-64"/>
<text text-anchor="middle" x="103.5" y="-48.8" font-family="Arial" font-size="14.00" fill="#c6c5fe">@roll&#45;network/prettier&#45;config</text>
</g>
<!-- @roll&#45;network/prettier&#45;config&#45;&gt;@roll&#45;network/cli -->
<g id="edge5" class="edge">
<title>@roll&#45;network/prettier&#45;config&#45;&gt;@roll&#45;network/cli</title>
<path fill="none" stroke="#757575" d="M197.26,-52.5C215.62,-52.5 234.58,-52.5 251.98,-52.5"/>
<polygon fill="#757575" stroke="#757575" points="251.66,-56 261.66,-52.5 251.66,-49 251.66,-56"/>
</g>
</g>
</svg>
