<?xml version="1.0" encoding="UTF-8" standalone="no"?>
<!DOCTYPE svg PUBLIC "-//W3C//DTD SVG 1.1//EN"
 "http://www.w3.org/Graphics/SVG/1.1/DTD/svg11.dtd">
<!-- Generated by graphviz version 7.1.0 (20230121.1956)
 -->
<!-- Title: G Pages: 1 -->
<svg width="847pt" height="333pt"
 viewBox="0.00 0.00 847.20 333.18" xmlns="http://www.w3.org/2000/svg" xmlns:xlink="http://www.w3.org/1999/xlink">
<g id="graph0" class="graph" transform="scale(1 1) rotate(0) translate(21.6 311.58)">
<title>G</title>
<polygon fill="#111111" stroke="none" points="-21.6,21.6 -21.6,-311.58 825.6,-311.58 825.6,21.6 -21.6,21.6"/>
<!-- @roll&#45;network/api -->
<g id="node1" class="node">
<title>@roll&#45;network/api</title>
<path fill="none" stroke="#c6c5fe" d="M551.33,-35.98C551.33,-35.98 444.67,-35.98 444.67,-35.98 440.83,-35.98 437,-32.14 437,-28.31 437,-28.31 437,-20.64 437,-20.64 437,-16.81 440.83,-12.98 444.67,-12.98 444.67,-12.98 551.33,-12.98 551.33,-12.98 555.17,-12.98 559,-16.81 559,-20.64 559,-20.64 559,-28.31 559,-28.31 559,-32.14 555.17,-35.98 551.33,-35.98"/>
<text text-anchor="middle" x="498" y="-20.78" font-family="Arial" font-size="14.00" fill="#c6c5fe">@roll&#45;network/api</text>
</g>
<!-- @roll&#45;network/session&#45;manager -->
<g id="node2" class="node">
<title>@roll&#45;network/session&#45;manager</title>
<path fill="none" stroke="#cfffac" d="M796.33,-35.98C796.33,-35.98 602.67,-35.98 602.67,-35.98 598.83,-35.98 595,-32.14 595,-28.31 595,-28.31 595,-20.64 595,-20.64 595,-16.81 598.83,-12.98 602.67,-12.98 602.67,-12.98 796.33,-12.98 796.33,-12.98 800.17,-12.98 804,-16.81 804,-20.64 804,-20.64 804,-28.31 804,-28.31 804,-32.14 800.17,-35.98 796.33,-35.98"/>
<text text-anchor="middle" x="699.5" y="-20.78" font-family="Arial" font-size="14.00" fill="#cfffac">@roll&#45;network/session&#45;manager</text>
</g>
<!-- @roll&#45;network/api&#45;&gt;@roll&#45;network/session&#45;manager -->
<g id="edge1" class="edge">
<title>@roll&#45;network/api&#45;&gt;@roll&#45;network/session&#45;manager</title>
<path fill="none" stroke="#757575" d="M559.4,-24.48C567.12,-24.48 575.23,-24.48 583.47,-24.48"/>
<polygon fill="#757575" stroke="#757575" points="583.27,-27.98 593.27,-24.48 583.27,-20.98 583.27,-27.98"/>
</g>
<!-- @roll&#45;network/api&#45;client -->
<g id="node3" class="node">
<title>@roll&#45;network/api&#45;client</title>
<path fill="none" stroke="#c6c5fe" d="M393.33,-35.98C393.33,-35.98 250.67,-35.98 250.67,-35.98 246.83,-35.98 243,-32.14 243,-28.31 243,-28.31 243,-20.64 243,-20.64 243,-16.81 246.83,-12.98 250.67,-12.98 250.67,-12.98 393.33,-12.98 393.33,-12.98 397.17,-12.98 401,-16.81 401,-20.64 401,-20.64 401,-28.31 401,-28.31 401,-32.14 397.17,-35.98 393.33,-35.98"/>
<text text-anchor="middle" x="322" y="-20.78" font-family="Arial" font-size="14.00" fill="#c6c5fe">@roll&#45;network/api&#45;client</text>
</g>
<!-- @roll&#45;network/api&#45;client&#45;&gt;@roll&#45;network/api -->
<g id="edge2" class="edge">
<title>@roll&#45;network/api&#45;client&#45;&gt;@roll&#45;network/api</title>
<path fill="none" stroke="#757575" d="M401.35,-24.48C409.29,-24.48 417.32,-24.48 425.19,-24.48"/>
<polygon fill="#757575" stroke="#757575" points="425.04,-27.98 435.04,-24.48 425.04,-20.98 425.04,-27.98"/>
</g>
<!-- @roll&#45;network/api&#45;client&#45;&gt;@roll&#45;network/session&#45;manager -->
<g id="edge3" class="edge">
<title>@roll&#45;network/api&#45;client&#45;&gt;@roll&#45;network/session&#45;manager</title>
<path fill="none" stroke="#757575" d="M376.65,-12.52C395.62,-8.84 417.16,-5.29 437,-3.48 491,1.45 504.93,0.57 559,-3.48 579.31,-5 601.14,-7.75 621.36,-10.76"/>
<polygon fill="#757575" stroke="#757575" points="620.82,-14.22 631.24,-12.28 621.89,-7.3 620.82,-14.22"/>
</g>
<!-- @roll&#45;network/auth&#45;sdk -->
<g id="node4" class="node">
<title>@roll&#45;network/auth&#45;sdk</title>
<path fill="none" stroke="#c6c5fe" d="M173.83,-65.98C173.83,-65.98 33.17,-65.98 33.17,-65.98 29.33,-65.98 25.5,-62.14 25.5,-58.31 25.5,-58.31 25.5,-50.64 25.5,-50.64 25.5,-46.81 29.33,-42.98 33.17,-42.98 33.17,-42.98 173.83,-42.98 173.83,-42.98 177.67,-42.98 181.5,-46.81 181.5,-50.64 181.5,-50.64 181.5,-58.31 181.5,-58.31 181.5,-62.14 177.67,-65.98 173.83,-65.98"/>
<text text-anchor="middle" x="103.5" y="-50.78" font-family="Arial" font-size="14.00" fill="#c6c5fe">@roll&#45;network/auth&#45;sdk</text>
</g>
<!-- @roll&#45;network/auth&#45;sdk&#45;&gt;@roll&#45;network/session&#45;manager -->
<g id="edge5" class="edge">
<title>@roll&#45;network/auth&#45;sdk&#45;&gt;@roll&#45;network/session&#45;manager</title>
<path fill="none" stroke="#757575" d="M181.85,-55.6C272.41,-56.27 426.85,-55.36 559,-44.48 577.27,-42.97 596.81,-40.63 615.29,-38.08"/>
<polygon fill="#757575" stroke="#757575" points="615.74,-41.55 625.15,-36.68 614.75,-34.62 615.74,-41.55"/>
</g>
<!-- @roll&#45;network/auth&#45;sdk&#45;&gt;@roll&#45;network/api&#45;client -->
<g id="edge4" class="edge">
<title>@roll&#45;network/auth&#45;sdk&#45;&gt;@roll&#45;network/api&#45;client</title>
<path fill="none" stroke="#757575" d="M181.74,-43.77C197.83,-41.55 214.91,-39.18 231.39,-36.89"/>
<polygon fill="#757575" stroke="#757575" points="231.77,-40.38 241.19,-35.54 230.81,-33.44 231.77,-40.38"/>
</g>
<!-- @roll&#45;network/cli -->
<g id="node5" class="node">
<title>@roll&#45;network/cli</title>
<path fill="none" stroke="#cfffac" d="M372.83,-125.98C372.83,-125.98 271.17,-125.98 271.17,-125.98 267.33,-125.98 263.5,-122.14 263.5,-118.31 263.5,-118.31 263.5,-110.64 263.5,-110.64 263.5,-106.81 267.33,-102.98 271.17,-102.98 271.17,-102.98 372.83,-102.98 372.83,-102.98 376.67,-102.98 380.5,-106.81 380.5,-110.64 380.5,-110.64 380.5,-118.31 380.5,-118.31 380.5,-122.14 376.67,-125.98 372.83,-125.98"/>
<text text-anchor="middle" x="322" y="-110.78" font-family="Arial" font-size="14.00" fill="#cfffac">@roll&#45;network/cli</text>
</g>
<!-- @roll&#45;network/contract&#45;bindings -->
<g id="node6" class="node">
<title>@roll&#45;network/contract&#45;bindings</title>
<path fill="none" stroke="#cfffac" d="M199.33,-166.98C199.33,-166.98 7.67,-166.98 7.67,-166.98 3.83,-166.98 0,-163.14 0,-159.31 0,-159.31 0,-151.64 0,-151.64 0,-147.81 3.83,-143.98 7.67,-143.98 7.67,-143.98 199.33,-143.98 199.33,-143.98 203.17,-143.98 207,-147.81 207,-151.64 207,-151.64 207,-159.31 207,-159.31 207,-163.14 203.17,-166.98 199.33,-166.98"/>
<text text-anchor="middle" x="103.5" y="-151.78" font-family="Arial" font-size="14.00" fill="#cfffac">@roll&#45;network/contract&#45;bindings</text>
</g>
<!-- @roll&#45;network/design&#45;system -->
<g id="node7" class="node">
<title>@roll&#45;network/design&#45;system</title>
<path fill="none" stroke="#cfffac" d="M191.83,-207.98C191.83,-207.98 15.17,-207.98 15.17,-207.98 11.33,-207.98 7.5,-204.14 7.5,-200.31 7.5,-200.31 7.5,-192.64 7.5,-192.64 7.5,-188.81 11.33,-184.98 15.17,-184.98 15.17,-184.98 191.83,-184.98 191.83,-184.98 195.67,-184.98 199.5,-188.81 199.5,-192.64 199.5,-192.64 199.5,-200.31 199.5,-200.31 199.5,-204.14 195.67,-207.98 191.83,-207.98"/>
<text text-anchor="middle" x="103.5" y="-192.78" font-family="Arial" font-size="14.00" fill="#cfffac">@roll&#45;network/design&#45;system</text>
</g>
<!-- @roll&#45;network/eslint&#45;config -->
<g id="node8" class="node">
<title>@roll&#45;network/eslint&#45;config</title>
<path fill="none" stroke="#cfffac" d="M183.83,-248.98C183.83,-248.98 23.17,-248.98 23.17,-248.98 19.33,-248.98 15.5,-245.14 15.5,-241.31 15.5,-241.31 15.5,-233.64 15.5,-233.64 15.5,-229.81 19.33,-225.98 23.17,-225.98 23.17,-225.98 183.83,-225.98 183.83,-225.98 187.67,-225.98 191.5,-229.81 191.5,-233.64 191.5,-233.64 191.5,-241.31 191.5,-241.31 191.5,-245.14 187.67,-248.98 183.83,-248.98"/>
<text text-anchor="middle" x="103.5" y="-233.78" font-family="Arial" font-size="14.00" fill="#cfffac">@roll&#45;network/eslint&#45;config</text>
</g>
<!-- @roll&#45;network/feature&#45;flag -->
<g id="node9" class="node">
<title>@roll&#45;network/feature&#45;flag</title>
<path fill="none" stroke="#cfffac" d="M182.33,-289.98C182.33,-289.98 24.67,-289.98 24.67,-289.98 20.83,-289.98 17,-286.14 17,-282.31 17,-282.31 17,-274.64 17,-274.64 17,-270.81 20.83,-266.98 24.67,-266.98 24.67,-266.98 182.33,-266.98 182.33,-266.98 186.17,-266.98 190,-270.81 190,-274.64 190,-274.64 190,-282.31 190,-282.31 190,-286.14 186.17,-289.98 182.33,-289.98"/>
<text text-anchor="middle" x="103.5" y="-274.78" font-family="Arial" font-size="14.00" fill="#cfffac">@roll&#45;network/feature&#45;flag</text>
</g>
<!-- @roll&#45;network/prettier&#45;config -->
<g id="node10" class="node">
<title>@roll&#45;network/prettier&#45;config</title>
<path fill="none" stroke="#c6c5fe" d="M189.33,-125.98C189.33,-125.98 17.67,-125.98 17.67,-125.98 13.83,-125.98 10,-122.14 10,-118.31 10,-118.31 10,-110.64 10,-110.64 10,-106.81 13.83,-102.98 17.67,-102.98 17.67,-102.98 189.33,-102.98 189.33,-102.98 193.17,-102.98 197,-106.81 197,-110.64 197,-110.64 197,-118.31 197,-118.31 197,-122.14 193.17,-125.98 189.33,-125.98"/>
<text text-anchor="middle" x="103.5" y="-110.78" font-family="Arial" font-size="14.00" fill="#c6c5fe">@roll&#45;network/prettier&#45;config</text>
</g>
<!-- @roll&#45;network/prettier&#45;config&#45;&gt;@roll&#45;network/cli -->
<g id="edge6" class="edge">
<title>@roll&#45;network/prettier&#45;config&#45;&gt;@roll&#45;network/cli</title>
<path fill="none" stroke="#757575" d="M197.26,-114.48C215.62,-114.48 234.58,-114.48 251.98,-114.48"/>
<polygon fill="#757575" stroke="#757575" points="251.66,-117.98 261.66,-114.48 251.66,-110.98 251.66,-117.98"/>
</g>
</g>
</svg>
