<?xml version="1.0" encoding="UTF-8" standalone="no"?>
<!DOCTYPE svg PUBLIC "-//W3C//DTD SVG 1.1//EN"
 "http://www.w3.org/Graphics/SVG/1.1/DTD/svg11.dtd">
<!-- Generated by graphviz version 7.1.0 (20230121.1956)
 -->
<!-- Title: G Pages: 1 -->
<svg width="794pt" height="353pt"
 viewBox="0.00 0.00 794.20 353.20" xmlns="http://www.w3.org/2000/svg" xmlns:xlink="http://www.w3.org/1999/xlink">
<g id="graph0" class="graph" transform="scale(1 1) rotate(0) translate(21.6 331.6)">
<title>G</title>
<polygon fill="#111111" stroke="none" points="-21.6,21.6 -21.6,-331.6 772.6,-331.6 772.6,21.6 -21.6,21.6"/>
<!-- @tryrolljs/api -->
<g id="node1" class="node">
<title>@tryrolljs/api</title>
<path fill="none" stroke="#c6c5fe" d="M525.33,-101C525.33,-101 445.67,-101 445.67,-101 441.83,-101 438,-97.17 438,-93.33 438,-93.33 438,-85.67 438,-85.67 438,-81.83 441.83,-78 445.67,-78 445.67,-78 525.33,-78 525.33,-78 529.17,-78 533,-81.83 533,-85.67 533,-85.67 533,-93.33 533,-93.33 533,-97.17 529.17,-101 525.33,-101"/>
<text text-anchor="middle" x="485.5" y="-85.8" font-family="Arial" font-size="14.00" fill="#c6c5fe">@tryrolljs/api</text>
</g>
<!-- @tryrolljs/session&#45;manager -->
<g id="node2" class="node">
<title>@tryrolljs/session&#45;manager</title>
<path fill="none" stroke="#cfffac" d="M743.33,-61C743.33,-61 576.67,-61 576.67,-61 572.83,-61 569,-57.17 569,-53.33 569,-53.33 569,-45.67 569,-45.67 569,-41.83 572.83,-38 576.67,-38 576.67,-38 743.33,-38 743.33,-38 747.17,-38 751,-41.83 751,-45.67 751,-45.67 751,-53.33 751,-53.33 751,-57.17 747.17,-61 743.33,-61"/>
<text text-anchor="middle" x="660" y="-45.8" font-family="Arial" font-size="14.00" fill="#cfffac">@tryrolljs/session&#45;manager</text>
</g>
<!-- @tryrolljs/api&#45;&gt;@tryrolljs/session&#45;manager -->
<g id="edge1" class="edge">
<title>@tryrolljs/api&#45;&gt;@tryrolljs/session&#45;manager</title>
<path fill="none" stroke="#757575" d="M533.18,-78.68C552.63,-74.16 575.52,-68.86 596.39,-64.02"/>
<polygon fill="#757575" stroke="#757575" points="597,-67.47 605.95,-61.8 595.42,-60.65 597,-67.47"/>
</g>
<!-- @tryrolljs/api&#45;client -->
<g id="node3" class="node">
<title>@tryrolljs/api&#45;client</title>
<path fill="none" stroke="#c6c5fe" d="M394.33,-64C394.33,-64 278.67,-64 278.67,-64 274.83,-64 271,-60.17 271,-56.33 271,-56.33 271,-48.67 271,-48.67 271,-44.83 274.83,-41 278.67,-41 278.67,-41 394.33,-41 394.33,-41 398.17,-41 402,-44.83 402,-48.67 402,-48.67 402,-56.33 402,-56.33 402,-60.17 398.17,-64 394.33,-64"/>
<text text-anchor="middle" x="336.5" y="-48.8" font-family="Arial" font-size="14.00" fill="#c6c5fe">@tryrolljs/api&#45;client</text>
</g>
<!-- @tryrolljs/api&#45;client&#45;&gt;@tryrolljs/api -->
<g id="edge2" class="edge">
<title>@tryrolljs/api&#45;client&#45;&gt;@tryrolljs/api</title>
<path fill="none" stroke="#757575" d="M384.82,-64.41C398.13,-67.76 412.76,-71.44 426.62,-74.93"/>
<polygon fill="#757575" stroke="#757575" points="425.5,-78.26 436.05,-77.31 427.21,-71.47 425.5,-78.26"/>
</g>
<!-- @tryrolljs/api&#45;client&#45;&gt;@tryrolljs/session&#45;manager -->
<g id="edge3" class="edge">
<title>@tryrolljs/api&#45;client&#45;&gt;@tryrolljs/session&#45;manager</title>
<path fill="none" stroke="#757575" d="M402.17,-51.9C446.58,-51.48 506.44,-50.92 557.2,-50.45"/>
<polygon fill="#757575" stroke="#757575" points="557.07,-53.95 567.04,-50.36 557,-46.95 557.07,-53.95"/>
</g>
<!-- @tryrolljs/auth&#45;client&#45;credentials&#45;sdk -->
<g id="node4" class="node">
<title>@tryrolljs/auth&#45;client&#45;credentials&#45;sdk</title>
<path fill="none" stroke="#c6c5fe" d="M227.33,-105C227.33,-105 7.67,-105 7.67,-105 3.83,-105 0,-101.17 0,-97.33 0,-97.33 0,-89.67 0,-89.67 0,-85.83 3.83,-82 7.67,-82 7.67,-82 227.33,-82 227.33,-82 231.17,-82 235,-85.83 235,-89.67 235,-89.67 235,-97.33 235,-97.33 235,-101.17 231.17,-105 227.33,-105"/>
<text text-anchor="middle" x="117.5" y="-89.8" font-family="Arial" font-size="14.00" fill="#c6c5fe">@tryrolljs/auth&#45;client&#45;credentials&#45;sdk</text>
</g>
<!-- @tryrolljs/auth&#45;client&#45;credentials&#45;sdk&#45;&gt;@tryrolljs/api&#45;client -->
<g id="edge4" class="edge">
<title>@tryrolljs/auth&#45;client&#45;credentials&#45;sdk&#45;&gt;@tryrolljs/api&#45;client</title>
<path fill="none" stroke="#757575" d="M190.66,-81.53C205.35,-78.97 220.69,-76.22 235,-73.5 245.97,-71.41 257.58,-69.09 268.87,-66.77"/>
<polygon fill="#757575" stroke="#757575" points="269.45,-70.23 278.54,-64.77 268.03,-63.37 269.45,-70.23"/>
</g>
<!-- @tryrolljs/auth&#45;node&#45;sdk -->
<g id="node5" class="node">
<title>@tryrolljs/auth&#45;node&#45;sdk</title>
<path fill="none" stroke="#c6c5fe" d="M191.83,-64C191.83,-64 43.17,-64 43.17,-64 39.33,-64 35.5,-60.17 35.5,-56.33 35.5,-56.33 35.5,-48.67 35.5,-48.67 35.5,-44.83 39.33,-41 43.17,-41 43.17,-41 191.83,-41 191.83,-41 195.67,-41 199.5,-44.83 199.5,-48.67 199.5,-48.67 199.5,-56.33 199.5,-56.33 199.5,-60.17 195.67,-64 191.83,-64"/>
<text text-anchor="middle" x="117.5" y="-48.8" font-family="Arial" font-size="14.00" fill="#c6c5fe">@tryrolljs/auth&#45;node&#45;sdk</text>
</g>
<!-- @tryrolljs/auth&#45;node&#45;sdk&#45;&gt;@tryrolljs/api&#45;client -->
<g id="edge5" class="edge">
<title>@tryrolljs/auth&#45;node&#45;sdk&#45;&gt;@tryrolljs/api&#45;client</title>
<path fill="none" stroke="#757575" d="M199.92,-52.5C219.33,-52.5 239.98,-52.5 259.15,-52.5"/>
<polygon fill="#757575" stroke="#757575" points="259.05,-56 269.05,-52.5 259.05,-49 259.05,-56"/>
</g>
<!-- @tryrolljs/auth&#45;web&#45;sdk -->
<g id="node6" class="node">
<title>@tryrolljs/auth&#45;web&#45;sdk</title>
<path fill="none" stroke="#c6c5fe" d="M188.83,-23C188.83,-23 46.17,-23 46.17,-23 42.33,-23 38.5,-19.17 38.5,-15.33 38.5,-15.33 38.5,-7.67 38.5,-7.67 38.5,-3.83 42.33,0 46.17,0 46.17,0 188.83,0 188.83,0 192.67,0 196.5,-3.83 196.5,-7.67 196.5,-7.67 196.5,-15.33 196.5,-15.33 196.5,-19.17 192.67,-23 188.83,-23"/>
<text text-anchor="middle" x="117.5" y="-7.8" font-family="Arial" font-size="14.00" fill="#c6c5fe">@tryrolljs/auth&#45;web&#45;sdk</text>
</g>
<!-- @tryrolljs/auth&#45;web&#45;sdk&#45;&gt;@tryrolljs/session&#45;manager -->
<g id="edge7" class="edge">
<title>@tryrolljs/auth&#45;web&#45;sdk&#45;&gt;@tryrolljs/session&#45;manager</title>
<path fill="none" stroke="#757575" d="M196.8,-17.01C292.07,-23.7 453.12,-35.03 557.74,-42.38"/>
<polygon fill="#757575" stroke="#757575" points="557.21,-45.85 567.43,-43.06 557.7,-38.87 557.21,-45.85"/>
</g>
<!-- @tryrolljs/auth&#45;web&#45;sdk&#45;&gt;@tryrolljs/api&#45;client -->
<g id="edge6" class="edge">
<title>@tryrolljs/auth&#45;web&#45;sdk&#45;&gt;@tryrolljs/api&#45;client</title>
<path fill="none" stroke="#757575" d="M190.66,-23.47C205.35,-26.03 220.69,-28.78 235,-31.5 245.97,-33.59 257.58,-35.91 268.87,-38.23"/>
<polygon fill="#757575" stroke="#757575" points="268.03,-41.63 278.54,-40.23 269.45,-34.77 268.03,-41.63"/>
</g>
<!-- @tryrolljs/cli -->
<g id="node7" class="node">
<title>@tryrolljs/cli</title>
<path fill="none" stroke="#cfffac" d="M373.83,-146C373.83,-146 299.17,-146 299.17,-146 295.33,-146 291.5,-142.17 291.5,-138.33 291.5,-138.33 291.5,-130.67 291.5,-130.67 291.5,-126.83 295.33,-123 299.17,-123 299.17,-123 373.83,-123 373.83,-123 377.67,-123 381.5,-126.83 381.5,-130.67 381.5,-130.67 381.5,-138.33 381.5,-138.33 381.5,-142.17 377.67,-146 373.83,-146"/>
<text text-anchor="middle" x="336.5" y="-130.8" font-family="Arial" font-size="14.00" fill="#cfffac">@tryrolljs/cli</text>
</g>
<!-- @tryrolljs/contract&#45;bindings -->
<g id="node8" class="node">
<title>@tryrolljs/contract&#45;bindings</title>
<path fill="none" stroke="#cfffac" d="M199.83,-187C199.83,-187 35.17,-187 35.17,-187 31.33,-187 27.5,-183.17 27.5,-179.33 27.5,-179.33 27.5,-171.67 27.5,-171.67 27.5,-167.83 31.33,-164 35.17,-164 35.17,-164 199.83,-164 199.83,-164 203.67,-164 207.5,-167.83 207.5,-171.67 207.5,-171.67 207.5,-179.33 207.5,-179.33 207.5,-183.17 203.67,-187 199.83,-187"/>
<text text-anchor="middle" x="117.5" y="-171.8" font-family="Arial" font-size="14.00" fill="#cfffac">@tryrolljs/contract&#45;bindings</text>
</g>
<!-- @tryrolljs/design&#45;system -->
<g id="node9" class="node">
<title>@tryrolljs/design&#45;system</title>
<path fill="none" stroke="#cfffac" d="M192.33,-228C192.33,-228 42.67,-228 42.67,-228 38.83,-228 35,-224.17 35,-220.33 35,-220.33 35,-212.67 35,-212.67 35,-208.83 38.83,-205 42.67,-205 42.67,-205 192.33,-205 192.33,-205 196.17,-205 200,-208.83 200,-212.67 200,-212.67 200,-220.33 200,-220.33 200,-224.17 196.17,-228 192.33,-228"/>
<text text-anchor="middle" x="117.5" y="-212.8" font-family="Arial" font-size="14.00" fill="#cfffac">@tryrolljs/design&#45;system</text>
</g>
<!-- @tryrolljs/eslint&#45;config -->
<g id="node10" class="node">
<title>@tryrolljs/eslint&#45;config</title>
<path fill="none" stroke="#cfffac" d="M184.33,-269C184.33,-269 50.67,-269 50.67,-269 46.83,-269 43,-265.17 43,-261.33 43,-261.33 43,-253.67 43,-253.67 43,-249.83 46.83,-246 50.67,-246 50.67,-246 184.33,-246 184.33,-246 188.17,-246 192,-249.83 192,-253.67 192,-253.67 192,-261.33 192,-261.33 192,-265.17 188.17,-269 184.33,-269"/>
<text text-anchor="middle" x="117.5" y="-253.8" font-family="Arial" font-size="14.00" fill="#cfffac">@tryrolljs/eslint&#45;config</text>
</g>
<!-- @tryrolljs/feature&#45;flag -->
<g id="node11" class="node">
<title>@tryrolljs/feature&#45;flag</title>
<path fill="none" stroke="#cfffac" d="M182.83,-310C182.83,-310 52.17,-310 52.17,-310 48.33,-310 44.5,-306.17 44.5,-302.33 44.5,-302.33 44.5,-294.67 44.5,-294.67 44.5,-290.83 48.33,-287 52.17,-287 52.17,-287 182.83,-287 182.83,-287 186.67,-287 190.5,-290.83 190.5,-294.67 190.5,-294.67 190.5,-302.33 190.5,-302.33 190.5,-306.17 186.67,-310 182.83,-310"/>
<text text-anchor="middle" x="117.5" y="-294.8" font-family="Arial" font-size="14.00" fill="#cfffac">@tryrolljs/feature&#45;flag</text>
</g>
<!-- @tryrolljs/prettier&#45;config -->
<g id="node12" class="node">
<title>@tryrolljs/prettier&#45;config</title>
<path fill="none" stroke="#c6c5fe" d="M189.83,-146C189.83,-146 45.17,-146 45.17,-146 41.33,-146 37.5,-142.17 37.5,-138.33 37.5,-138.33 37.5,-130.67 37.5,-130.67 37.5,-126.83 41.33,-123 45.17,-123 45.17,-123 189.83,-123 189.83,-123 193.67,-123 197.5,-126.83 197.5,-130.67 197.5,-130.67 197.5,-138.33 197.5,-138.33 197.5,-142.17 193.67,-146 189.83,-146"/>
<text text-anchor="middle" x="117.5" y="-130.8" font-family="Arial" font-size="14.00" fill="#c6c5fe">@tryrolljs/prettier&#45;config</text>
</g>
<!-- @tryrolljs/prettier&#45;config&#45;&gt;@tryrolljs/cli -->
<g id="edge8" class="edge">
<title>@tryrolljs/prettier&#45;config&#45;&gt;@tryrolljs/cli</title>
<path fill="none" stroke="#757575" d="M197.76,-134.5C224.94,-134.5 254.76,-134.5 279.68,-134.5"/>
<polygon fill="#757575" stroke="#757575" points="279.61,-138 289.61,-134.5 279.61,-131 279.61,-138"/>
</g>
</g>
</svg>
