<?xml version="1.0" encoding="UTF-8" standalone="no"?>
<!DOCTYPE svg PUBLIC "-//W3C//DTD SVG 1.1//EN"
 "http://www.w3.org/Graphics/SVG/1.1/DTD/svg11.dtd">
<!-- Generated by graphviz version 7.1.0 (20230121.1956)
 -->
<!-- Title: G Pages: 1 -->
<svg width="653pt" height="353pt"
 viewBox="0.00 0.00 653.20 353.20" xmlns="http://www.w3.org/2000/svg" xmlns:xlink="http://www.w3.org/1999/xlink">
<g id="graph0" class="graph" transform="scale(1 1) rotate(0) translate(21.6 331.6)">
<title>G</title>
<polygon fill="#111111" stroke="none" points="-21.6,21.6 -21.6,-331.6 631.6,-331.6 631.6,21.6 -21.6,21.6"/>
<!-- @roll&#45;network/api -->
<g id="node1" class="node">
<title>@roll&#45;network/api</title>
<path fill="none" stroke="#cfffac" d="M602.33,-64C602.33,-64 495.67,-64 495.67,-64 491.83,-64 488,-60.17 488,-56.33 488,-56.33 488,-48.67 488,-48.67 488,-44.83 491.83,-41 495.67,-41 495.67,-41 602.33,-41 602.33,-41 606.17,-41 610,-44.83 610,-48.67 610,-48.67 610,-56.33 610,-56.33 610,-60.17 606.17,-64 602.33,-64"/>
<text text-anchor="middle" x="549" y="-48.8" font-family="Arial" font-size="14.00" fill="#cfffac">@roll&#45;network/api</text>
</g>
<!-- @roll&#45;network/api&#45;client -->
<g id="node2" class="node">
<title>@roll&#45;network/api&#45;client</title>
<path fill="none" stroke="#c6c5fe" d="M418.83,-64C418.83,-64 276.17,-64 276.17,-64 272.33,-64 268.5,-60.17 268.5,-56.33 268.5,-56.33 268.5,-48.67 268.5,-48.67 268.5,-44.83 272.33,-41 276.17,-41 276.17,-41 418.83,-41 418.83,-41 422.67,-41 426.5,-44.83 426.5,-48.67 426.5,-48.67 426.5,-56.33 426.5,-56.33 426.5,-60.17 422.67,-64 418.83,-64"/>
<text text-anchor="middle" x="347.5" y="-48.8" font-family="Arial" font-size="14.00" fill="#c6c5fe">@roll&#45;network/api&#45;client</text>
</g>
<!-- @roll&#45;network/api&#45;client&#45;&gt;@roll&#45;network/api -->
<g id="edge1" class="edge">
<title>@roll&#45;network/api&#45;client&#45;&gt;@roll&#45;network/api</title>
<path fill="none" stroke="#757575" d="M426.78,-52.5C443.03,-52.5 460.07,-52.5 476.08,-52.5"/>
<polygon fill="#757575" stroke="#757575" points="476.02,-56 486.02,-52.5 476.02,-49 476.02,-56"/>
</g>
<!-- @roll&#45;network/auth&#45;sdk -->
<g id="node3" class="node">
<title>@roll&#45;network/auth&#45;sdk</title>
<path fill="none" stroke="#c6c5fe" d="M173.83,-43C173.83,-43 33.17,-43 33.17,-43 29.33,-43 25.5,-39.17 25.5,-35.33 25.5,-35.33 25.5,-27.67 25.5,-27.67 25.5,-23.83 29.33,-20 33.17,-20 33.17,-20 173.83,-20 173.83,-20 177.67,-20 181.5,-23.83 181.5,-27.67 181.5,-27.67 181.5,-35.33 181.5,-35.33 181.5,-39.17 177.67,-43 173.83,-43"/>
<text text-anchor="middle" x="103.5" y="-27.8" font-family="Arial" font-size="14.00" fill="#c6c5fe">@roll&#45;network/auth&#45;sdk</text>
</g>
<!-- @roll&#45;network/auth&#45;sdk&#45;&gt;@roll&#45;network/api&#45;client -->
<g id="edge2" class="edge">
<title>@roll&#45;network/auth&#45;sdk&#45;&gt;@roll&#45;network/api&#45;client</title>
<path fill="none" stroke="#757575" d="M181.74,-38.2C205.73,-40.28 232.37,-42.6 257.12,-44.74"/>
<polygon fill="#757575" stroke="#757575" points="256.56,-48.21 266.83,-45.59 257.17,-41.23 256.56,-48.21"/>
</g>
<!-- @roll&#45;network/session&#45;manager -->
<g id="node4" class="node">
<title>@roll&#45;network/session&#45;manager</title>
<path fill="none" stroke="#cfffac" d="M444.33,-23C444.33,-23 250.67,-23 250.67,-23 246.83,-23 243,-19.17 243,-15.33 243,-15.33 243,-7.67 243,-7.67 243,-3.83 246.83,0 250.67,0 250.67,0 444.33,0 444.33,0 448.17,0 452,-3.83 452,-7.67 452,-7.67 452,-15.33 452,-15.33 452,-19.17 448.17,-23 444.33,-23"/>
<text text-anchor="middle" x="347.5" y="-7.8" font-family="Arial" font-size="14.00" fill="#cfffac">@roll&#45;network/session&#45;manager</text>
</g>
<!-- @roll&#45;network/auth&#45;sdk&#45;&gt;@roll&#45;network/session&#45;manager -->
<g id="edge3" class="edge">
<title>@roll&#45;network/auth&#45;sdk&#45;&gt;@roll&#45;network/session&#45;manager</title>
<path fill="none" stroke="#757575" d="M181.74,-25.12C197.62,-23.8 214.67,-22.39 231.56,-21"/>
<polygon fill="#757575" stroke="#757575" points="231.44,-24.52 241.12,-20.21 230.86,-17.54 231.44,-24.52"/>
</g>
<!-- @roll&#45;network/cli -->
<g id="node5" class="node">
<title>@roll&#45;network/cli</title>
<path fill="none" stroke="#cfffac" d="M398.33,-105C398.33,-105 296.67,-105 296.67,-105 292.83,-105 289,-101.17 289,-97.33 289,-97.33 289,-89.67 289,-89.67 289,-85.83 292.83,-82 296.67,-82 296.67,-82 398.33,-82 398.33,-82 402.17,-82 406,-85.83 406,-89.67 406,-89.67 406,-97.33 406,-97.33 406,-101.17 402.17,-105 398.33,-105"/>
<text text-anchor="middle" x="347.5" y="-89.8" font-family="Arial" font-size="14.00" fill="#cfffac">@roll&#45;network/cli</text>
</g>
<!-- @roll&#45;network/contract&#45;bindings -->
<g id="node6" class="node">
<title>@roll&#45;network/contract&#45;bindings</title>
<path fill="none" stroke="#cfffac" d="M199.33,-146C199.33,-146 7.67,-146 7.67,-146 3.83,-146 0,-142.17 0,-138.33 0,-138.33 0,-130.67 0,-130.67 0,-126.83 3.83,-123 7.67,-123 7.67,-123 199.33,-123 199.33,-123 203.17,-123 207,-126.83 207,-130.67 207,-130.67 207,-138.33 207,-138.33 207,-142.17 203.17,-146 199.33,-146"/>
<text text-anchor="middle" x="103.5" y="-130.8" font-family="Arial" font-size="14.00" fill="#cfffac">@roll&#45;network/contract&#45;bindings</text>
</g>
<!-- @roll&#45;network/design&#45;system -->
<g id="node7" class="node">
<title>@roll&#45;network/design&#45;system</title>
<path fill="none" stroke="#cfffac" d="M435.83,-187C435.83,-187 259.17,-187 259.17,-187 255.33,-187 251.5,-183.17 251.5,-179.33 251.5,-179.33 251.5,-171.67 251.5,-171.67 251.5,-167.83 255.33,-164 259.17,-164 259.17,-164 435.83,-164 435.83,-164 439.67,-164 443.5,-167.83 443.5,-171.67 443.5,-171.67 443.5,-179.33 443.5,-179.33 443.5,-183.17 439.67,-187 435.83,-187"/>
<text text-anchor="middle" x="347.5" y="-171.8" font-family="Arial" font-size="14.00" fill="#cfffac">@roll&#45;network/design&#45;system</text>
</g>
<!-- @roll&#45;network/eslint&#45;config -->
<g id="node8" class="node">
<title>@roll&#45;network/eslint&#45;config</title>
<path fill="none" stroke="#cfffac" d="M183.83,-228C183.83,-228 23.17,-228 23.17,-228 19.33,-228 15.5,-224.17 15.5,-220.33 15.5,-220.33 15.5,-212.67 15.5,-212.67 15.5,-208.83 19.33,-205 23.17,-205 23.17,-205 183.83,-205 183.83,-205 187.67,-205 191.5,-208.83 191.5,-212.67 191.5,-212.67 191.5,-220.33 191.5,-220.33 191.5,-224.17 187.67,-228 183.83,-228"/>
<text text-anchor="middle" x="103.5" y="-212.8" font-family="Arial" font-size="14.00" fill="#cfffac">@roll&#45;network/eslint&#45;config</text>
</g>
<!-- @roll&#45;network/feature&#45;flag -->
<g id="node9" class="node">
<title>@roll&#45;network/feature&#45;flag</title>
<path fill="none" stroke="#cfffac" d="M182.33,-269C182.33,-269 24.67,-269 24.67,-269 20.83,-269 17,-265.17 17,-261.33 17,-261.33 17,-253.67 17,-253.67 17,-249.83 20.83,-246 24.67,-246 24.67,-246 182.33,-246 182.33,-246 186.17,-246 190,-249.83 190,-253.67 190,-253.67 190,-261.33 190,-261.33 190,-265.17 186.17,-269 182.33,-269"/>
<text text-anchor="middle" x="103.5" y="-253.8" font-family="Arial" font-size="14.00" fill="#cfffac">@roll&#45;network/feature&#45;flag</text>
</g>
<!-- @roll&#45;network/logger -->
<g id="node10" class="node">
<title>@roll&#45;network/logger</title>
<path fill="none" stroke="#cfffac" d="M166.83,-310C166.83,-310 40.17,-310 40.17,-310 36.33,-310 32.5,-306.17 32.5,-302.33 32.5,-302.33 32.5,-294.67 32.5,-294.67 32.5,-290.83 36.33,-287 40.17,-287 40.17,-287 166.83,-287 166.83,-287 170.67,-287 174.5,-290.83 174.5,-294.67 174.5,-294.67 174.5,-302.33 174.5,-302.33 174.5,-306.17 170.67,-310 166.83,-310"/>
<text text-anchor="middle" x="103.5" y="-294.8" font-family="Arial" font-size="14.00" fill="#cfffac">@roll&#45;network/logger</text>
</g>
<!-- @roll&#45;network/prettier&#45;config -->
<g id="node11" class="node">
<title>@roll&#45;network/prettier&#45;config</title>
<path fill="none" stroke="#c6c5fe" d="M189.33,-105C189.33,-105 17.67,-105 17.67,-105 13.83,-105 10,-101.17 10,-97.33 10,-97.33 10,-89.67 10,-89.67 10,-85.83 13.83,-82 17.67,-82 17.67,-82 189.33,-82 189.33,-82 193.17,-82 197,-85.83 197,-89.67 197,-89.67 197,-97.33 197,-97.33 197,-101.17 193.17,-105 189.33,-105"/>
<text text-anchor="middle" x="103.5" y="-89.8" font-family="Arial" font-size="14.00" fill="#c6c5fe">@roll&#45;network/prettier&#45;config</text>
</g>
<!-- @roll&#45;network/prettier&#45;config&#45;&gt;@roll&#45;network/cli -->
<g id="edge4" class="edge">
<title>@roll&#45;network/prettier&#45;config&#45;&gt;@roll&#45;network/cli</title>
<path fill="none" stroke="#757575" d="M197.37,-93.5C223.84,-93.5 252.2,-93.5 277.02,-93.5"/>
<polygon fill="#757575" stroke="#757575" points="277,-97 287,-93.5 277,-90 277,-97"/>
</g>
<!-- @roll&#45;network/web3 -->
<g id="node12" class="node">
<title>@roll&#45;network/web3</title>
<path fill="none" stroke="#c6c5fe" d="M164.33,-187C164.33,-187 42.67,-187 42.67,-187 38.83,-187 35,-183.17 35,-179.33 35,-179.33 35,-171.67 35,-171.67 35,-167.83 38.83,-164 42.67,-164 42.67,-164 164.33,-164 164.33,-164 168.17,-164 172,-167.83 172,-171.67 172,-171.67 172,-179.33 172,-179.33 172,-183.17 168.17,-187 164.33,-187"/>
<text text-anchor="middle" x="103.5" y="-171.8" font-family="Arial" font-size="14.00" fill="#c6c5fe">@roll&#45;network/web3</text>
</g>
<!-- @roll&#45;network/web3&#45;&gt;@roll&#45;network/design&#45;system -->
<g id="edge5" class="edge">
<title>@roll&#45;network/web3&#45;&gt;@roll&#45;network/design&#45;system</title>
<path fill="none" stroke="#757575" d="M172.23,-175.5C193.26,-175.5 216.97,-175.5 239.97,-175.5"/>
<polygon fill="#757575" stroke="#757575" points="239.68,-179 249.68,-175.5 239.68,-172 239.68,-179"/>
</g>
</g>
</svg>
