<?xml version="1.0" encoding="UTF-8" standalone="no"?>
<!DOCTYPE svg PUBLIC "-//W3C//DTD SVG 1.1//EN"
 "http://www.w3.org/Graphics/SVG/1.1/DTD/svg11.dtd">
<!-- Generated by graphviz version 7.1.0 (20230121.1956)
 -->
<!-- Title: G Pages: 1 -->
<svg width="794pt" height="312pt"
 viewBox="0.00 0.00 794.20 312.20" xmlns="http://www.w3.org/2000/svg" xmlns:xlink="http://www.w3.org/1999/xlink">
<g id="graph0" class="graph" transform="scale(1 1) rotate(0) translate(21.6 290.6)">
<title>G</title>
<polygon fill="#111111" stroke="none" points="-21.6,21.6 -21.6,-290.6 772.6,-290.6 772.6,21.6 -21.6,21.6"/>
<!-- @tryrolljs/api -->
<g id="node1" class="node">
<title>@tryrolljs/api</title>
<path fill="none" stroke="#c6c5fe" d="M525.33,-101C525.33,-101 445.67,-101 445.67,-101 441.83,-101 438,-97.17 438,-93.33 438,-93.33 438,-85.67 438,-85.67 438,-81.83 441.83,-78 445.67,-78 445.67,-78 525.33,-78 525.33,-78 529.17,-78 533,-81.83 533,-85.67 533,-85.67 533,-93.33 533,-93.33 533,-97.17 529.17,-101 525.33,-101"/>
<text text-anchor="middle" x="485.5" y="-85.8" font-family="Arial" font-size="14.00" fill="#c6c5fe">@tryrolljs/api</text>
</g>
<!-- @tryrolljs/session&#45;manager -->
<g id="node2" class="node">
<title>@tryrolljs/session&#45;manager</title>
<path fill="none" stroke="#cfffac" d="M743.33,-61C743.33,-61 576.67,-61 576.67,-61 572.83,-61 569,-57.17 569,-53.33 569,-53.33 569,-45.67 569,-45.67 569,-41.83 572.83,-38 576.67,-38 576.67,-38 743.33,-38 743.33,-38 747.17,-38 751,-41.83 751,-45.67 751,-45.67 751,-53.33 751,-53.33 751,-57.17 747.17,-61 743.33,-61"/>
<text text-anchor="middle" x="660" y="-45.8" font-family="Arial" font-size="14.00" fill="#cfffac">@tryrolljs/session&#45;manager</text>
</g>
<!-- @tryrolljs/api&#45;&gt;@tryrolljs/session&#45;manager -->
<g id="edge1" class="edge">
<title>@tryrolljs/api&#45;&gt;@tryrolljs/session&#45;manager</title>
<path fill="none" stroke="#757575" d="M533.18,-78.68C552.63,-74.16 575.52,-68.86 596.39,-64.02"/>
<polygon fill="#757575" stroke="#757575" points="597,-67.47 605.95,-61.8 595.42,-60.65 597,-67.47"/>
</g>
<!-- @tryrolljs/api&#45;client -->
<g id="node3" class="node">
<title>@tryrolljs/api&#45;client</title>
<path fill="none" stroke="#c6c5fe" d="M394.33,-64C394.33,-64 278.67,-64 278.67,-64 274.83,-64 271,-60.17 271,-56.33 271,-56.33 271,-48.67 271,-48.67 271,-44.83 274.83,-41 278.67,-41 278.67,-41 394.33,-41 394.33,-41 398.17,-41 402,-44.83 402,-48.67 402,-48.67 402,-56.33 402,-56.33 402,-60.17 398.17,-64 394.33,-64"/>
<text text-anchor="middle" x="336.5" y="-48.8" font-family="Arial" font-size="14.00" fill="#c6c5fe">@tryrolljs/api&#45;client</text>
</g>
<!-- @tryrolljs/api&#45;client&#45;&gt;@tryrolljs/api -->
<g id="edge2" class="edge">
<title>@tryrolljs/api&#45;client&#45;&gt;@tryrolljs/api</title>
<path fill="none" stroke="#757575" d="M384.82,-64.41C398.13,-67.76 412.76,-71.44 426.62,-74.93"/>
<polygon fill="#757575" stroke="#757575" points="425.5,-78.26 436.05,-77.31 427.21,-71.47 425.5,-78.26"/>
</g>
<!-- @tryrolljs/api&#45;client&#45;&gt;@tryrolljs/session&#45;manager -->
<g id="edge3" class="edge">
<title>@tryrolljs/api&#45;client&#45;&gt;@tryrolljs/session&#45;manager</title>
<path fill="none" stroke="#757575" d="M402.17,-51.9C446.58,-51.48 506.44,-50.92 557.2,-50.45"/>
<polygon fill="#757575" stroke="#757575" points="557.07,-53.95 567.04,-50.36 557,-46.95 557.07,-53.95"/>
</g>
<!-- @tryrolljs/auth&#45;client&#45;credentials&#45;sdk -->
<g id="node4" class="node">
<title>@tryrolljs/auth&#45;client&#45;credentials&#45;sdk</title>
<path fill="none" stroke="#c6c5fe" d="M227.33,-64C227.33,-64 7.67,-64 7.67,-64 3.83,-64 0,-60.17 0,-56.33 0,-56.33 0,-48.67 0,-48.67 0,-44.83 3.83,-41 7.67,-41 7.67,-41 227.33,-41 227.33,-41 231.17,-41 235,-44.83 235,-48.67 235,-48.67 235,-56.33 235,-56.33 235,-60.17 231.17,-64 227.33,-64"/>
<text text-anchor="middle" x="117.5" y="-48.8" font-family="Arial" font-size="14.00" fill="#c6c5fe">@tryrolljs/auth&#45;client&#45;credentials&#45;sdk</text>
</g>
<!-- @tryrolljs/auth&#45;client&#45;credentials&#45;sdk&#45;&gt;@tryrolljs/api&#45;client -->
<g id="edge4" class="edge">
<title>@tryrolljs/auth&#45;client&#45;credentials&#45;sdk&#45;&gt;@tryrolljs/api&#45;client</title>
<path fill="none" stroke="#757575" d="M235.26,-52.5C243.41,-52.5 251.51,-52.5 259.35,-52.5"/>
<polygon fill="#757575" stroke="#757575" points="259.13,-56 269.13,-52.5 259.13,-49 259.13,-56"/>
</g>
<!-- @tryrolljs/auth&#45;web&#45;sdk -->
<g id="node5" class="node">
<title>@tryrolljs/auth&#45;web&#45;sdk</title>
<path fill="none" stroke="#c6c5fe" d="M188.83,-23C188.83,-23 46.17,-23 46.17,-23 42.33,-23 38.5,-19.17 38.5,-15.33 38.5,-15.33 38.5,-7.67 38.5,-7.67 38.5,-3.83 42.33,0 46.17,0 46.17,0 188.83,0 188.83,0 192.67,0 196.5,-3.83 196.5,-7.67 196.5,-7.67 196.5,-15.33 196.5,-15.33 196.5,-19.17 192.67,-23 188.83,-23"/>
<text text-anchor="middle" x="117.5" y="-7.8" font-family="Arial" font-size="14.00" fill="#c6c5fe">@tryrolljs/auth&#45;web&#45;sdk</text>
</g>
<!-- @tryrolljs/auth&#45;web&#45;sdk&#45;&gt;@tryrolljs/session&#45;manager -->
<g id="edge6" class="edge">
<title>@tryrolljs/auth&#45;web&#45;sdk&#45;&gt;@tryrolljs/session&#45;manager</title>
<path fill="none" stroke="#757575" d="M196.8,-17.01C292.07,-23.7 453.12,-35.03 557.74,-42.38"/>
<polygon fill="#757575" stroke="#757575" points="557.21,-45.85 567.43,-43.06 557.7,-38.87 557.21,-45.85"/>
</g>
<!-- @tryrolljs/auth&#45;web&#45;sdk&#45;&gt;@tryrolljs/api&#45;client -->
<g id="edge5" class="edge">
<title>@tryrolljs/auth&#45;web&#45;sdk&#45;&gt;@tryrolljs/api&#45;client</title>
<path fill="none" stroke="#757575" d="M185.99,-23.45C202.07,-26.36 219.15,-29.49 235,-32.5 244.71,-34.34 254.95,-36.33 265.02,-38.31"/>
<polygon fill="#757575" stroke="#757575" points="264.31,-41.73 274.8,-40.24 265.66,-34.87 264.31,-41.73"/>
</g>
<!-- @tryrolljs/cli -->
<g id="node6" class="node">
<title>@tryrolljs/cli</title>
<path fill="none" stroke="#cfffac" d="M373.83,-105C373.83,-105 299.17,-105 299.17,-105 295.33,-105 291.5,-101.17 291.5,-97.33 291.5,-97.33 291.5,-89.67 291.5,-89.67 291.5,-85.83 295.33,-82 299.17,-82 299.17,-82 373.83,-82 373.83,-82 377.67,-82 381.5,-85.83 381.5,-89.67 381.5,-89.67 381.5,-97.33 381.5,-97.33 381.5,-101.17 377.67,-105 373.83,-105"/>
<text text-anchor="middle" x="336.5" y="-89.8" font-family="Arial" font-size="14.00" fill="#cfffac">@tryrolljs/cli</text>
</g>
<!-- @tryrolljs/contract&#45;bindings -->
<g id="node7" class="node">
<title>@tryrolljs/contract&#45;bindings</title>
<path fill="none" stroke="#cfffac" d="M199.83,-146C199.83,-146 35.17,-146 35.17,-146 31.33,-146 27.5,-142.17 27.5,-138.33 27.5,-138.33 27.5,-130.67 27.5,-130.67 27.5,-126.83 31.33,-123 35.17,-123 35.17,-123 199.83,-123 199.83,-123 203.67,-123 207.5,-126.83 207.5,-130.67 207.5,-130.67 207.5,-138.33 207.5,-138.33 207.5,-142.17 203.67,-146 199.83,-146"/>
<text text-anchor="middle" x="117.5" y="-130.8" font-family="Arial" font-size="14.00" fill="#cfffac">@tryrolljs/contract&#45;bindings</text>
</g>
<!-- @tryrolljs/design&#45;system -->
<g id="node8" class="node">
<title>@tryrolljs/design&#45;system</title>
<path fill="none" stroke="#cfffac" d="M192.33,-187C192.33,-187 42.67,-187 42.67,-187 38.83,-187 35,-183.17 35,-179.33 35,-179.33 35,-171.67 35,-171.67 35,-167.83 38.83,-164 42.67,-164 42.67,-164 192.33,-164 192.33,-164 196.17,-164 200,-167.83 200,-171.67 200,-171.67 200,-179.33 200,-179.33 200,-183.17 196.17,-187 192.33,-187"/>
<text text-anchor="middle" x="117.5" y="-171.8" font-family="Arial" font-size="14.00" fill="#cfffac">@tryrolljs/design&#45;system</text>
</g>
<!-- @tryrolljs/eslint&#45;config -->
<g id="node9" class="node">
<title>@tryrolljs/eslint&#45;config</title>
<path fill="none" stroke="#cfffac" d="M184.33,-228C184.33,-228 50.67,-228 50.67,-228 46.83,-228 43,-224.17 43,-220.33 43,-220.33 43,-212.67 43,-212.67 43,-208.83 46.83,-205 50.67,-205 50.67,-205 184.33,-205 184.33,-205 188.17,-205 192,-208.83 192,-212.67 192,-212.67 192,-220.33 192,-220.33 192,-224.17 188.17,-228 184.33,-228"/>
<text text-anchor="middle" x="117.5" y="-212.8" font-family="Arial" font-size="14.00" fill="#cfffac">@tryrolljs/eslint&#45;config</text>
</g>
<!-- @tryrolljs/feature&#45;flag -->
<g id="node10" class="node">
<title>@tryrolljs/feature&#45;flag</title>
<path fill="none" stroke="#cfffac" d="M182.83,-269C182.83,-269 52.17,-269 52.17,-269 48.33,-269 44.5,-265.17 44.5,-261.33 44.5,-261.33 44.5,-253.67 44.5,-253.67 44.5,-249.83 48.33,-246 52.17,-246 52.17,-246 182.83,-246 182.83,-246 186.67,-246 190.5,-249.83 190.5,-253.67 190.5,-253.67 190.5,-261.33 190.5,-261.33 190.5,-265.17 186.67,-269 182.83,-269"/>
<text text-anchor="middle" x="117.5" y="-253.8" font-family="Arial" font-size="14.00" fill="#cfffac">@tryrolljs/feature&#45;flag</text>
</g>
<!-- @tryrolljs/prettier&#45;config -->
<g id="node11" class="node">
<title>@tryrolljs/prettier&#45;config</title>
<path fill="none" stroke="#c6c5fe" d="M189.83,-105C189.83,-105 45.17,-105 45.17,-105 41.33,-105 37.5,-101.17 37.5,-97.33 37.5,-97.33 37.5,-89.67 37.5,-89.67 37.5,-85.83 41.33,-82 45.17,-82 45.17,-82 189.83,-82 189.83,-82 193.67,-82 197.5,-85.83 197.5,-89.67 197.5,-89.67 197.5,-97.33 197.5,-97.33 197.5,-101.17 193.67,-105 189.83,-105"/>
<text text-anchor="middle" x="117.5" y="-89.8" font-family="Arial" font-size="14.00" fill="#c6c5fe">@tryrolljs/prettier&#45;config</text>
</g>
<!-- @tryrolljs/prettier&#45;config&#45;&gt;@tryrolljs/cli -->
<g id="edge7" class="edge">
<title>@tryrolljs/prettier&#45;config&#45;&gt;@tryrolljs/cli</title>
<path fill="none" stroke="#757575" d="M197.76,-93.5C224.94,-93.5 254.76,-93.5 279.68,-93.5"/>
<polygon fill="#757575" stroke="#757575" points="279.61,-97 289.61,-93.5 279.61,-90 279.61,-97"/>
</g>
</g>
</svg>
