<svg width="24" height="24" viewBox="0 0 24 24" fill="#000000" xmlns="http://www.w3.org/2000/svg">
<path fill-rule="evenodd" clip-rule="evenodd" d="M12 2.75C6.89137 2.75 2.75 6.89137 2.75 12C2.75 17.1086 6.89137 21.25 12 21.25C17.1086 21.25 21.25 17.1086 21.25 12C21.25 6.89137 17.1086 2.75 12 2.75ZM1.25 12C1.25 6.06294 6.06294 1.25 12 1.25C17.9371 1.25 22.75 6.06294 22.75 12C22.75 17.9371 17.9371 22.75 12 22.75C6.06294 22.75 1.25 17.9371 1.25 12Z" fill="#212529"/>
<path fill-rule="evenodd" clip-rule="evenodd" d="M7.93767 10.2107C8.23015 9.91735 8.70502 9.91668 8.99833 10.2092L11.9987 13.2011L14.9992 10.2092C15.2925 9.91668 15.7674 9.91735 16.0598 10.2107C16.3523 10.504 16.3516 10.9788 16.0583 11.2713L12.5283 14.7913C12.2356 15.0832 11.7619 15.0832 11.4692 14.7913L7.93917 11.2713C7.64586 10.9788 7.64519 10.504 7.93767 10.2107Z" fill="#212529"/>
</svg>
