<svg width="223" height="30" viewBox="0 0 223 30" fill="none" xmlns="http://www.w3.org/2000/svg">
<g filter="url(#filter0_f_4153_134567)">
<path d="M16.7764 16.605V13.4043C16.7764 12.5384 16.6743 11.7746 16.4702 11.1128C16.2661 10.4448 15.9785 9.882 15.6074 9.42432C15.224 8.97282 14.7601 8.63265 14.2158 8.40381C13.6777 8.16878 13.0654 8.05127 12.3789 8.05127C11.6986 8.05127 11.0863 8.16878 10.542 8.40381C10.0039 8.63265 9.54622 8.97282 9.16895 9.42432C8.79167 9.882 8.50098 10.4448 8.29688 11.1128C8.09896 11.7746 8 12.5384 8 13.4043V16.605C8 17.4709 8.09896 18.2378 8.29688 18.9058C8.50098 19.5675 8.79476 20.1211 9.17822 20.5664C9.5555 21.0241 10.0163 21.3704 10.5605 21.6055C11.1048 21.8343 11.7171 21.9487 12.3975 21.9487C13.084 21.9487 13.6963 21.8343 14.2344 21.6055C14.7786 21.3704 15.2363 21.0241 15.6074 20.5664C15.9847 20.1211 16.2723 19.5675 16.4702 18.9058C16.6743 18.2378 16.7764 17.4709 16.7764 16.605ZM10.2266 15.8164C10.2266 15.637 10.2266 15.4855 10.2266 15.3618C10.2266 15.2381 10.2266 15.0588 10.2266 14.8237V13.0054C10.2266 12.4487 10.276 11.9663 10.375 11.5581C10.474 11.1437 10.6255 10.8066 10.8296 10.5469C11.0028 10.318 11.2192 10.1449 11.479 10.0273C11.7388 9.90983 12.0387 9.85107 12.3789 9.85107C12.6943 9.85107 12.9757 9.90055 13.2231 9.99951C13.4767 10.0985 13.6901 10.2469 13.8633 10.4448C14.0612 10.6675 14.2127 10.9551 14.3179 11.3076C14.4292 11.6602 14.4972 12.0776 14.522 12.5601L10.2266 15.8164ZM14.5405 16.9761C14.5405 17.5451 14.488 18.0399 14.3828 18.4604C14.2839 18.881 14.1323 19.2212 13.9282 19.481C13.7489 19.7036 13.5324 19.8737 13.2788 19.9912C13.0252 20.1025 12.7314 20.1582 12.3975 20.1582C12.0573 20.1582 11.7573 20.0994 11.4976 19.9819C11.244 19.8644 11.0306 19.6882 10.8574 19.4531C10.6842 19.2367 10.5451 18.9645 10.4399 18.6367C10.341 18.3089 10.276 17.9316 10.2451 17.5049L14.5405 14.2671C14.5405 14.4465 14.5405 14.6196 14.5405 14.7866C14.5405 14.9536 14.5405 15.1144 14.5405 15.269V16.9761Z" fill="black"/>
<path d="M24.8792 15.0928L22.5042 11.7158H20.0643L23.5804 16.6606L19.9437 21.7539H22.4021L24.8978 18.2471L27.4026 21.7539H29.8519L26.2151 16.6606L29.7405 11.7158H27.282L24.8792 15.0928Z" fill="black"/>
<path d="M34.6334 19.9263H34.4571V21.8188H34.6427C35.8054 21.8188 36.7981 21.6488 37.6207 21.3086C38.4495 20.9684 39.1174 20.5015 39.6246 19.9077C40.2493 19.1841 40.6853 18.3398 40.9327 17.375C41.1801 16.4102 41.3038 15.3958 41.3038 14.332V13.5527C41.3038 12.7796 41.2018 12.0436 40.9977 11.3447C40.7936 10.6396 40.4936 10.0397 40.0978 9.54492C39.7205 9.08724 39.2597 8.72542 38.7154 8.45947C38.1773 8.19352 37.5589 8.06055 36.86 8.06055C36.1673 8.06055 35.5488 8.18734 35.0045 8.44092C34.4664 8.68831 34.0118 9.02539 33.6407 9.45215C33.2696 9.88509 32.9851 10.3892 32.7872 10.9644C32.5955 11.5334 32.4996 12.1426 32.4996 12.792C32.4996 13.3919 32.58 13.964 32.7408 14.5083C32.9016 15.0526 33.1459 15.535 33.4737 15.9556C33.7953 16.37 34.1974 16.7008 34.6798 16.9482C35.1684 17.1956 35.7405 17.3193 36.3961 17.3193C36.7177 17.3193 37.0115 17.2884 37.2774 17.2266C37.5496 17.1647 37.797 17.0812 38.0196 16.9761C38.2299 16.8771 38.4216 16.7627 38.5948 16.6328C38.7742 16.4967 38.9319 16.3514 39.068 16.1968V16.2432C39.0185 16.7689 38.9072 17.2606 38.734 17.7183C38.5608 18.1698 38.2887 18.5718 37.9176 18.9243C37.5712 19.2459 37.129 19.4933 36.5909 19.6665C36.0528 19.8397 35.4003 19.9263 34.6334 19.9263ZM36.8692 15.5659C36.4981 15.5659 36.1765 15.4886 35.9044 15.334C35.6384 15.1732 35.4158 14.9629 35.2364 14.7031C35.0509 14.4372 34.9148 14.1341 34.8282 13.7939C34.7416 13.4538 34.6983 13.0981 34.6983 12.7271C34.6983 12.3436 34.7447 11.9787 34.8375 11.6323C34.9365 11.2798 35.0787 10.9736 35.2643 10.7139C35.4436 10.4541 35.6663 10.25 35.9322 10.1016C36.2044 9.94694 36.5136 9.86963 36.86 9.86963C37.1692 9.86963 37.4599 9.94385 37.732 10.0923C38.0042 10.2345 38.2423 10.4448 38.4464 10.7231C38.6443 11.0015 38.802 11.3478 38.9195 11.7622C39.0432 12.1766 39.1051 12.6528 39.1051 13.1909V13.9609C39.0123 14.1898 38.8917 14.4032 38.7433 14.6011C38.601 14.7928 38.434 14.9598 38.2423 15.1021C38.0506 15.2505 37.8372 15.3649 37.6021 15.4453C37.3733 15.5257 37.129 15.5659 36.8692 15.5659Z" fill="black"/>
<path d="M47.5419 13.998V15.7422H48.8686C49.252 15.7422 49.5984 15.7886 49.9076 15.8813C50.223 15.9679 50.4921 16.1009 50.7147 16.2803C50.9374 16.4658 51.1075 16.6978 51.225 16.9761C51.3425 17.2544 51.4013 17.5884 51.4013 17.978C51.4013 18.3244 51.3487 18.6336 51.2436 18.9058C51.1446 19.1717 50.9992 19.3944 50.8075 19.5737C50.6096 19.7655 50.3653 19.9108 50.0746 20.0098C49.7901 20.1025 49.4685 20.1489 49.1098 20.1489C48.7758 20.1489 48.4696 20.0994 48.1913 20.0005C47.9192 19.9015 47.6841 19.7624 47.4862 19.583C47.2821 19.4098 47.1244 19.1995 47.0131 18.9521C46.9079 18.6986 46.8554 18.4233 46.8554 18.1265H44.6381C44.6381 18.7573 44.7587 19.3109 44.9999 19.7871C45.2473 20.2572 45.5751 20.653 45.9833 20.9746C46.3915 21.2962 46.8646 21.5374 47.4027 21.6982C47.9408 21.859 48.5006 21.9395 49.0819 21.9395C49.7252 21.9395 50.322 21.8529 50.8725 21.6797C51.4291 21.5003 51.9115 21.2406 52.3197 20.9004C52.7217 20.5664 53.0372 20.1551 53.266 19.6665C53.501 19.1717 53.6186 18.6089 53.6186 17.978C53.6186 17.6379 53.5784 17.3101 53.4979 16.9946C53.4175 16.673 53.2877 16.373 53.1083 16.0947C52.9289 15.8226 52.697 15.5783 52.4125 15.3618C52.1342 15.1392 51.794 14.9598 51.392 14.8237C51.7322 14.6691 52.029 14.4805 52.2826 14.2578C52.5362 14.0352 52.7465 13.797 52.9135 13.5435C53.0805 13.2837 53.2042 13.0146 53.2846 12.7363C53.3712 12.458 53.4145 12.1797 53.4145 11.9014C53.4145 11.2705 53.3093 10.717 53.099 10.2407C52.8887 9.76449 52.5919 9.36247 52.2084 9.03467C51.8311 8.71305 51.3734 8.47184 50.8354 8.31104C50.3034 8.14404 49.719 8.06055 49.0819 8.06055C48.4573 8.06055 47.8821 8.15332 47.3563 8.33887C46.8368 8.52441 46.3853 8.78109 46.0019 9.10889C45.6184 9.44287 45.3184 9.83561 45.102 10.2871C44.8855 10.7386 44.7772 11.2334 44.7772 11.7715H46.9945C46.9945 11.4808 47.0471 11.2179 47.1522 10.9829C47.2636 10.7479 47.4151 10.5469 47.6068 10.3799C47.7924 10.2129 48.0119 10.0861 48.2655 9.99951C48.5253 9.90674 48.8067 9.86035 49.1098 9.86035C49.4499 9.86035 49.7499 9.90674 50.0097 9.99951C50.2756 10.0923 50.4952 10.2222 50.6684 10.3892C50.8415 10.5685 50.9714 10.785 51.058 11.0386C51.1508 11.2922 51.1972 11.5798 51.1972 11.9014C51.1972 12.1982 51.1477 12.4766 51.0487 12.7363C50.956 12.9899 50.8199 13.2033 50.6405 13.3765C50.4488 13.5744 50.2045 13.729 49.9076 13.8403C49.6107 13.9455 49.2644 13.998 48.8686 13.998H47.5419Z" fill="black"/>
<path d="M57.8898 15.0557L59.6618 15.4917C59.7793 15.3804 59.8999 15.2783 60.0236 15.1855C60.1535 15.0866 60.2958 15 60.4504 14.9258C60.5988 14.8577 60.7689 14.8021 60.9606 14.7588C61.1586 14.7155 61.3905 14.6938 61.6564 14.6938C62.0585 14.6938 62.411 14.7619 62.7141 14.8979C63.0171 15.0278 63.2707 15.2134 63.4748 15.4546C63.6789 15.6958 63.8304 15.9803 63.9294 16.3081C64.0345 16.6297 64.0871 16.9854 64.0871 17.375C64.0871 17.777 64.0438 18.1512 63.9572 18.4976C63.8706 18.8377 63.7408 19.1284 63.5676 19.3696C63.382 19.617 63.1532 19.8088 62.8811 19.9448C62.6089 20.0809 62.2873 20.1489 61.9162 20.1489C61.2854 20.1489 60.7658 19.9727 60.3576 19.6201C59.9556 19.2676 59.7144 18.7604 59.634 18.0986H57.4724C57.5095 18.7233 57.6548 19.2769 57.9084 19.7593C58.1682 20.2355 58.4991 20.6344 58.9011 20.9561C59.3031 21.2839 59.7639 21.5312 60.2834 21.6982C60.8029 21.859 61.3472 21.9395 61.9162 21.9395C62.6646 21.9395 63.314 21.8219 63.8645 21.5869C64.4149 21.3519 64.8695 21.0303 65.2282 20.6221C65.5931 20.2139 65.8622 19.7376 66.0354 19.1934C66.2147 18.6429 66.3044 18.0584 66.3044 17.4399C66.3044 16.741 66.2116 16.1133 66.0261 15.5566C65.8405 14.9938 65.5746 14.5145 65.2282 14.1187C64.8757 13.729 64.4458 13.429 63.9387 13.2188C63.4377 13.0085 62.8687 12.9033 62.2316 12.9033C61.7616 12.9033 61.3441 12.9621 60.9792 13.0796C60.6205 13.1971 60.3298 13.3208 60.1071 13.4507L60.4597 10.2129H65.8776V8.24609H58.6135L57.8898 15.0557Z" fill="black"/>
<path d="M70.251 15.0557L72.0229 15.4917C72.1405 15.3804 72.2611 15.2783 72.3848 15.1855C72.5146 15.0866 72.6569 15 72.8115 14.9258C72.96 14.8577 73.13 14.8021 73.3218 14.7588C73.5197 14.7155 73.7516 14.6938 74.0176 14.6938C74.4196 14.6938 74.7721 14.7619 75.0752 14.8979C75.3783 15.0278 75.6318 15.2134 75.8359 15.4546C76.04 15.6958 76.1916 15.9803 76.2905 16.3081C76.3957 16.6297 76.4482 16.9854 76.4482 17.375C76.4482 17.777 76.4049 18.1512 76.3184 18.4976C76.2318 18.8377 76.1019 19.1284 75.9287 19.3696C75.7432 19.617 75.5143 19.8088 75.2422 19.9448C74.9701 20.0809 74.6484 20.1489 74.2773 20.1489C73.6465 20.1489 73.127 19.9727 72.7188 19.6201C72.3167 19.2676 72.0755 18.7604 71.9951 18.0986H69.8335C69.8706 18.7233 70.016 19.2769 70.2695 19.7593C70.5293 20.2355 70.8602 20.6344 71.2622 20.9561C71.6642 21.2839 72.125 21.5312 72.6445 21.6982C73.1641 21.859 73.7083 21.9395 74.2773 21.9395C75.0257 21.9395 75.6751 21.8219 76.2256 21.5869C76.776 21.3519 77.2306 21.0303 77.5894 20.6221C77.9543 20.2139 78.2233 19.7376 78.3965 19.1934C78.5758 18.6429 78.6655 18.0584 78.6655 17.4399C78.6655 16.741 78.5728 16.1133 78.3872 15.5566C78.2017 14.9938 77.9357 14.5145 77.5894 14.1187C77.2368 13.729 76.807 13.429 76.2998 13.2188C75.7988 13.0085 75.2298 12.9033 74.5928 12.9033C74.1227 12.9033 73.7052 12.9621 73.3403 13.0796C72.9816 13.1971 72.6909 13.3208 72.4683 13.4507L72.8208 10.2129H78.2388V8.24609H70.9746L70.251 15.0557Z" fill="black"/>
<path d="M84.6253 13.998V15.7422H85.952C86.3354 15.7422 86.6818 15.7886 86.991 15.8813C87.3064 15.9679 87.5755 16.1009 87.7981 16.2803C88.0208 16.4658 88.1909 16.6978 88.3084 16.9761C88.4259 17.2544 88.4847 17.5884 88.4847 17.978C88.4847 18.3244 88.4321 18.6336 88.327 18.9058C88.228 19.1717 88.0826 19.3944 87.8909 19.5737C87.693 19.7655 87.4487 19.9108 87.158 20.0098C86.8735 20.1025 86.5519 20.1489 86.1932 20.1489C85.8592 20.1489 85.553 20.0994 85.2747 20.0005C85.0026 19.9015 84.7675 19.7624 84.5696 19.583C84.3655 19.4098 84.2078 19.1995 84.0965 18.9521C83.9913 18.6986 83.9388 18.4233 83.9388 18.1265H81.7215C81.7215 18.7573 81.8421 19.3109 82.0833 19.7871C82.3307 20.2572 82.6585 20.653 83.0667 20.9746C83.4749 21.2962 83.948 21.5374 84.4861 21.6982C85.0242 21.859 85.5839 21.9395 86.1653 21.9395C86.8086 21.9395 87.4054 21.8529 87.9559 21.6797C88.5125 21.5003 88.9949 21.2406 89.4031 20.9004C89.8051 20.5664 90.1206 20.1551 90.3494 19.6665C90.5844 19.1717 90.702 18.6089 90.702 17.978C90.702 17.6379 90.6617 17.3101 90.5813 16.9946C90.5009 16.673 90.3711 16.373 90.1917 16.0947C90.0123 15.8226 89.7804 15.5783 89.4959 15.3618C89.2176 15.1392 88.8774 14.9598 88.4754 14.8237C88.8156 14.6691 89.1124 14.4805 89.366 14.2578C89.6196 14.0352 89.8299 13.797 89.9969 13.5435C90.1639 13.2837 90.2876 13.0146 90.368 12.7363C90.4546 12.458 90.4978 12.1797 90.4978 11.9014C90.4978 11.2705 90.3927 10.717 90.1824 10.2407C89.9721 9.76449 89.6753 9.36247 89.2918 9.03467C88.9145 8.71305 88.4568 8.47184 87.9187 8.31104C87.3868 8.14404 86.8024 8.06055 86.1653 8.06055C85.5407 8.06055 84.9655 8.15332 84.4397 8.33887C83.9202 8.52441 83.4687 8.78109 83.0853 9.10889C82.7018 9.44287 82.4018 9.83561 82.1853 10.2871C81.9689 10.7386 81.8606 11.2334 81.8606 11.7715H84.0779C84.0779 11.4808 84.1305 11.2179 84.2356 10.9829C84.347 10.7479 84.4985 10.5469 84.6902 10.3799C84.8758 10.2129 85.0953 10.0861 85.3489 9.99951C85.6087 9.90674 85.8901 9.86035 86.1932 9.86035C86.5333 9.86035 86.8333 9.90674 87.0931 9.99951C87.359 10.0923 87.5786 10.2222 87.7518 10.3892C87.9249 10.5685 88.0548 10.785 88.1414 11.0386C88.2342 11.2922 88.2806 11.5798 88.2806 11.9014C88.2806 12.1982 88.2311 12.4766 88.1321 12.7363C88.0394 12.9899 87.9033 13.2033 87.7239 13.3765C87.5322 13.5744 87.2879 13.729 86.991 13.8403C86.6941 13.9455 86.3478 13.998 85.952 13.998H84.6253Z" fill="black"/>
<path d="M103.351 9.48926V8.24609H94.0084V10.1016H101.013L95.6134 21.7539H97.9513L103.351 9.48926Z" fill="black"/>
<path d="M115.6 21.7539V19.9634H109.31L112.316 16.7534C112.712 16.3328 113.077 15.9246 113.411 15.5288C113.751 15.133 114.045 14.7402 114.292 14.3506C114.534 13.9609 114.722 13.5682 114.858 13.1724C115.001 12.7703 115.072 12.356 115.072 11.9292C115.072 11.3602 114.979 10.8407 114.793 10.3706C114.608 9.89437 114.339 9.48617 113.986 9.146C113.628 8.80583 113.185 8.53988 112.66 8.34814C112.14 8.15641 111.549 8.06055 110.888 8.06055C110.183 8.06055 109.542 8.17497 108.967 8.40381C108.398 8.63265 107.916 8.94189 107.52 9.33154C107.118 9.72119 106.809 10.1789 106.592 10.7046C106.376 11.2241 106.267 11.7777 106.267 12.3652H108.494C108.494 11.9756 108.544 11.6292 108.642 11.3262C108.741 11.0169 108.89 10.7541 109.088 10.5376C109.28 10.3335 109.521 10.1758 109.811 10.0645C110.102 9.95312 110.445 9.89746 110.841 9.89746C111.15 9.89746 111.429 9.95003 111.676 10.0552C111.93 10.1603 112.146 10.3057 112.326 10.4912C112.505 10.6768 112.641 10.8994 112.734 11.1592C112.827 11.4189 112.873 11.7065 112.873 12.022C112.873 12.257 112.839 12.492 112.771 12.7271C112.709 12.9559 112.604 13.2033 112.455 13.4692C112.301 13.7352 112.1 14.029 111.852 14.3506C111.605 14.666 111.299 15.0247 110.934 15.4268L106.537 20.2139V21.7539H115.6Z" fill="black"/>
<path d="M121.709 13.998V15.7422H123.035C123.419 15.7422 123.765 15.7886 124.074 15.8813C124.39 15.9679 124.659 16.1009 124.882 16.2803C125.104 16.4658 125.274 16.6978 125.392 16.9761C125.509 17.2544 125.568 17.5884 125.568 17.978C125.568 18.3244 125.515 18.6336 125.41 18.9058C125.311 19.1717 125.166 19.3944 124.974 19.5737C124.776 19.7655 124.532 19.9108 124.241 20.0098C123.957 20.1025 123.635 20.1489 123.277 20.1489C122.943 20.1489 122.636 20.0994 122.358 20.0005C122.086 19.9015 121.851 19.7624 121.653 19.583C121.449 19.4098 121.291 19.1995 121.18 18.9521C121.075 18.6986 121.022 18.4233 121.022 18.1265H118.805C118.805 18.7573 118.925 19.3109 119.167 19.7871C119.414 20.2572 119.742 20.653 120.15 20.9746C120.558 21.2962 121.031 21.5374 121.57 21.6982C122.108 21.859 122.667 21.9395 123.249 21.9395C123.892 21.9395 124.489 21.8529 125.039 21.6797C125.596 21.5003 126.078 21.2406 126.487 20.9004C126.889 20.5664 127.204 20.1551 127.433 19.6665C127.668 19.1717 127.785 18.6089 127.785 17.978C127.785 17.6379 127.745 17.3101 127.665 16.9946C127.584 16.673 127.454 16.373 127.275 16.0947C127.096 15.8226 126.864 15.5783 126.579 15.3618C126.301 15.1392 125.961 14.9598 125.559 14.8237C125.899 14.6691 126.196 14.4805 126.449 14.2578C126.703 14.0352 126.913 13.797 127.08 13.5435C127.247 13.2837 127.371 13.0146 127.451 12.7363C127.538 12.458 127.581 12.1797 127.581 11.9014C127.581 11.2705 127.476 10.717 127.266 10.2407C127.056 9.76449 126.759 9.36247 126.375 9.03467C125.998 8.71305 125.54 8.47184 125.002 8.31104C124.47 8.14404 123.886 8.06055 123.249 8.06055C122.624 8.06055 122.049 8.15332 121.523 8.33887C121.004 8.52441 120.552 8.78109 120.169 9.10889C119.785 9.44287 119.485 9.83561 119.269 10.2871C119.052 10.7386 118.944 11.2334 118.944 11.7715H121.161C121.161 11.4808 121.214 11.2179 121.319 10.9829C121.43 10.7479 121.582 10.5469 121.774 10.3799C121.959 10.2129 122.179 10.0861 122.432 9.99951C122.692 9.90674 122.974 9.86035 123.277 9.86035C123.617 9.86035 123.917 9.90674 124.176 9.99951C124.442 10.0923 124.662 10.2222 124.835 10.3892C125.008 10.5685 125.138 10.785 125.225 11.0386C125.318 11.2922 125.364 11.5798 125.364 11.9014C125.364 12.1982 125.314 12.4766 125.216 12.7363C125.123 12.9899 124.987 13.2033 124.807 13.3765C124.616 13.5744 124.371 13.729 124.074 13.8403C123.778 13.9455 123.431 13.998 123.035 13.998H121.709Z" fill="black"/>
<path d="M134.487 20.418C134.487 20.8447 134.626 21.2065 134.905 21.5034C135.189 21.7941 135.585 21.9395 136.092 21.9395C136.593 21.9395 136.986 21.7941 137.271 21.5034C137.561 21.2127 137.707 20.8509 137.707 20.418C137.707 19.985 137.564 19.6201 137.28 19.3232C136.995 19.0202 136.599 18.8687 136.092 18.8687C135.573 18.8687 135.174 19.0202 134.896 19.3232C134.623 19.6263 134.487 19.9912 134.487 20.418Z" fill="black"/>
<path d="M146.848 20.418C146.848 20.8447 146.988 21.2065 147.266 21.5034C147.55 21.7941 147.946 21.9395 148.453 21.9395C148.954 21.9395 149.347 21.7941 149.632 21.5034C149.922 21.2127 150.068 20.8509 150.068 20.418C150.068 19.985 149.925 19.6201 149.641 19.3232C149.356 19.0202 148.961 18.8687 148.453 18.8687C147.934 18.8687 147.535 19.0202 147.257 19.3232C146.985 19.6263 146.848 19.9912 146.848 20.418Z" fill="black"/>
<path d="M159.21 20.418C159.21 20.8447 159.349 21.2065 159.627 21.5034C159.912 21.7941 160.307 21.9395 160.815 21.9395C161.316 21.9395 161.708 21.7941 161.993 21.5034C162.283 21.2127 162.429 20.8509 162.429 20.418C162.429 19.985 162.287 19.6201 162.002 19.3232C161.718 19.0202 161.322 18.8687 160.815 18.8687C160.295 18.8687 159.896 19.0202 159.618 19.3232C159.346 19.6263 159.21 19.9912 159.21 20.418Z" fill="black"/>
<path d="M171.153 13.998V15.7422H172.48C172.863 15.7422 173.21 15.7886 173.519 15.8813C173.834 15.9679 174.103 16.1009 174.326 16.2803C174.549 16.4658 174.719 16.6978 174.836 16.9761C174.954 17.2544 175.013 17.5884 175.013 17.978C175.013 18.3244 174.96 18.6336 174.855 18.9058C174.756 19.1717 174.611 19.3944 174.419 19.5737C174.221 19.7655 173.977 19.9108 173.686 20.0098C173.401 20.1025 173.08 20.1489 172.721 20.1489C172.387 20.1489 172.081 20.0994 171.803 20.0005C171.531 19.9015 171.295 19.7624 171.098 19.583C170.893 19.4098 170.736 19.1995 170.624 18.9521C170.519 18.6986 170.467 18.4233 170.467 18.1265H168.249C168.249 18.7573 168.37 19.3109 168.611 19.7871C168.859 20.2572 169.186 20.653 169.595 20.9746C170.003 21.2962 170.476 21.5374 171.014 21.6982C171.552 21.859 172.112 21.9395 172.693 21.9395C173.336 21.9395 173.933 21.8529 174.484 21.6797C175.04 21.5003 175.523 21.2406 175.931 20.9004C176.333 20.5664 176.649 20.1551 176.877 19.6665C177.112 19.1717 177.23 18.6089 177.23 17.978C177.23 17.6379 177.19 17.3101 177.109 16.9946C177.029 16.673 176.899 16.373 176.72 16.0947C176.54 15.8226 176.308 15.5783 176.024 15.3618C175.746 15.1392 175.405 14.9598 175.003 14.8237C175.343 14.6691 175.64 14.4805 175.894 14.2578C176.148 14.0352 176.358 13.797 176.525 13.5435C176.692 13.2837 176.816 13.0146 176.896 12.7363C176.982 12.458 177.026 12.1797 177.026 11.9014C177.026 11.2705 176.921 10.717 176.71 10.2407C176.5 9.76449 176.203 9.36247 175.82 9.03467C175.442 8.71305 174.985 8.47184 174.447 8.31104C173.915 8.14404 173.33 8.06055 172.693 8.06055C172.069 8.06055 171.493 8.15332 170.968 8.33887C170.448 8.52441 169.997 8.78109 169.613 9.10889C169.23 9.44287 168.93 9.83561 168.713 10.2871C168.497 10.7386 168.389 11.2334 168.389 11.7715H170.606C170.606 11.4808 170.658 11.2179 170.764 10.9829C170.875 10.7479 171.026 10.5469 171.218 10.3799C171.404 10.2129 171.623 10.0861 171.877 9.99951C172.137 9.90674 172.418 9.86035 172.721 9.86035C173.061 9.86035 173.361 9.90674 173.621 9.99951C173.887 10.0923 174.107 10.2222 174.28 10.3892C174.453 10.5685 174.583 10.785 174.669 11.0386C174.762 11.2922 174.809 11.5798 174.809 11.9014C174.809 12.1982 174.759 12.4766 174.66 12.7363C174.567 12.9899 174.431 13.2033 174.252 13.3765C174.06 13.5744 173.816 13.729 173.519 13.8403C173.222 13.9455 172.876 13.998 172.48 13.998H171.153Z" fill="black"/>
<path d="M189.572 11.8086C189.572 11.2087 189.467 10.6768 189.257 10.2129C189.047 9.74284 188.759 9.3501 188.394 9.03467C188.017 8.71305 187.575 8.47184 187.068 8.31104C186.567 8.14404 186.019 8.06055 185.426 8.06055C184.826 8.06055 184.272 8.14404 183.765 8.31104C183.264 8.47184 182.834 8.71305 182.475 9.03467C182.11 9.35628 181.823 9.74902 181.613 10.2129C181.408 10.6768 181.306 11.2087 181.306 11.8086C181.306 12.1426 181.353 12.4611 181.446 12.7642C181.538 13.0672 181.668 13.3455 181.835 13.5991C181.996 13.8465 182.191 14.0723 182.42 14.2764C182.655 14.4805 182.914 14.6536 183.199 14.7959C182.865 14.9505 182.562 15.1392 182.29 15.3618C182.024 15.5783 181.795 15.8226 181.603 16.0947C181.412 16.3792 181.263 16.6885 181.158 17.0225C181.059 17.3564 181.009 17.709 181.009 18.0801C181.009 18.7109 181.121 19.2676 181.343 19.75C181.572 20.2262 181.888 20.6252 182.29 20.9468C182.686 21.2746 183.153 21.522 183.691 21.689C184.235 21.856 184.822 21.9395 185.453 21.9395C186.072 21.9395 186.647 21.856 187.179 21.689C187.717 21.522 188.187 21.2746 188.589 20.9468C188.985 20.6252 189.297 20.2231 189.526 19.7407C189.755 19.2583 189.869 18.7048 189.869 18.0801C189.869 17.641 189.798 17.2327 189.656 16.8555C189.514 16.4782 189.316 16.1411 189.062 15.8442C188.883 15.6216 188.673 15.4268 188.431 15.2598C188.196 15.0866 187.94 14.9351 187.661 14.8052C187.896 14.6877 188.11 14.5516 188.301 14.397C188.493 14.2424 188.663 14.0754 188.812 13.896C189.053 13.6177 189.238 13.3022 189.368 12.9497C189.504 12.5972 189.572 12.2168 189.572 11.8086ZM187.652 17.9595C187.652 18.3058 187.596 18.6151 187.485 18.8872C187.374 19.1532 187.225 19.382 187.04 19.5737C186.842 19.7593 186.607 19.9015 186.335 20.0005C186.069 20.0994 185.775 20.1489 185.453 20.1489C185.113 20.1489 184.807 20.1025 184.535 20.0098C184.269 19.9108 184.04 19.7716 183.848 19.5923C183.65 19.4067 183.499 19.1779 183.394 18.9058C183.289 18.6274 183.236 18.3151 183.236 17.9688C183.236 17.6286 183.286 17.3224 183.384 17.0503C183.49 16.772 183.638 16.5308 183.83 16.3267C184.022 16.1349 184.25 15.9865 184.516 15.8813C184.788 15.7762 185.095 15.7236 185.435 15.7236C185.763 15.7236 186.063 15.7762 186.335 15.8813C186.607 15.9865 186.842 16.1349 187.04 16.3267C187.231 16.5308 187.38 16.772 187.485 17.0503C187.596 17.3224 187.652 17.6255 187.652 17.9595ZM187.364 11.8921C187.364 12.1951 187.318 12.4735 187.225 12.7271C187.133 12.9744 187.003 13.1847 186.836 13.3579C186.669 13.5373 186.468 13.6764 186.233 13.7754C185.998 13.8743 185.735 13.9238 185.444 13.9238C185.153 13.9238 184.891 13.8743 184.655 13.7754C184.42 13.6764 184.219 13.5373 184.052 13.3579C183.879 13.1847 183.749 12.9744 183.663 12.7271C183.576 12.4735 183.533 12.1951 183.533 11.8921C183.533 11.5828 183.576 11.3014 183.663 11.0479C183.749 10.7943 183.873 10.5809 184.034 10.4077C184.201 10.2345 184.399 10.1016 184.628 10.0088C184.863 9.90983 185.126 9.86035 185.416 9.86035C185.713 9.86035 185.979 9.90983 186.214 10.0088C186.449 10.1077 186.653 10.2438 186.826 10.417C186.993 10.6025 187.123 10.819 187.216 11.0664C187.315 11.3138 187.364 11.589 187.364 11.8921Z" fill="black"/>
<path d="M198.213 21.9395C199.191 21.9395 200.022 21.7477 200.709 21.3643C201.402 20.9808 201.915 20.5479 202.249 20.0654L201.062 18.915C200.752 19.3109 200.36 19.617 199.883 19.8335C199.407 20.0438 198.894 20.1489 198.343 20.1489C197.941 20.1489 197.57 20.0809 197.23 19.9448C196.896 19.8088 196.605 19.617 196.358 19.3696C196.111 19.1346 195.916 18.8687 195.773 18.5718C195.631 18.2749 195.526 17.9069 195.458 17.4678V17.4214H202.416V16.4658C202.416 15.7484 202.32 15.0866 202.128 14.4805C201.937 13.8743 201.652 13.3517 201.275 12.9126C200.898 12.4797 200.431 12.1426 199.874 11.9014C199.317 11.654 198.677 11.5303 197.954 11.5303C197.304 11.5303 196.692 11.654 196.117 11.9014C195.548 12.1426 195.047 12.4889 194.614 12.9404C194.181 13.3919 193.841 13.9362 193.593 14.5732C193.346 15.2103 193.222 15.9215 193.222 16.707V17.0874C193.222 17.7739 193.34 18.4141 193.575 19.0078C193.816 19.5954 194.156 20.1056 194.595 20.5386C195.034 20.9777 195.56 21.321 196.172 21.5684C196.791 21.8158 197.471 21.9395 198.213 21.9395ZM197.944 13.3301C198.315 13.3301 198.64 13.395 198.918 13.5249C199.203 13.6486 199.438 13.8156 199.624 14.0259C199.815 14.2424 199.964 14.4959 200.069 14.7866C200.174 15.0711 200.227 15.3587 200.227 15.6494V15.7979H195.504C195.572 15.4144 195.678 15.0711 195.82 14.7681C195.962 14.465 196.138 14.2052 196.349 13.9888C196.559 13.7785 196.797 13.6177 197.063 13.5063C197.335 13.3888 197.629 13.3301 197.944 13.3301Z" fill="black"/>
<path d="M214.555 16.605V13.4043C214.555 12.5384 214.452 11.7746 214.248 11.1128C214.044 10.4448 213.757 9.882 213.386 9.42432C213.002 8.97282 212.538 8.63265 211.994 8.40381C211.456 8.16878 210.844 8.05127 210.157 8.05127C209.477 8.05127 208.864 8.16878 208.32 8.40381C207.782 8.63265 207.324 8.97282 206.947 9.42432C206.57 9.882 206.279 10.4448 206.075 11.1128C205.877 11.7746 205.778 12.5384 205.778 13.4043V16.605C205.778 17.4709 205.877 18.2378 206.075 18.9058C206.279 19.5675 206.573 20.1211 206.956 20.5664C207.334 21.0241 207.794 21.3704 208.339 21.6055C208.883 21.8343 209.495 21.9487 210.176 21.9487C210.862 21.9487 211.474 21.8343 212.013 21.6055C212.557 21.3704 213.014 21.0241 213.386 20.5664C213.763 20.1211 214.05 19.5675 214.248 18.9058C214.452 18.2378 214.555 17.4709 214.555 16.605ZM208.005 15.8164C208.005 15.637 208.005 15.4855 208.005 15.3618C208.005 15.2381 208.005 15.0588 208.005 14.8237V13.0054C208.005 12.4487 208.054 11.9663 208.153 11.5581C208.252 11.1437 208.404 10.8066 208.608 10.5469C208.781 10.318 208.997 10.1449 209.257 10.0273C209.517 9.90983 209.817 9.85107 210.157 9.85107C210.472 9.85107 210.754 9.90055 211.001 9.99951C211.255 10.0985 211.468 10.2469 211.641 10.4448C211.839 10.6675 211.991 10.9551 212.096 11.3076C212.207 11.6602 212.275 12.0776 212.3 12.5601L208.005 15.8164ZM212.319 16.9761C212.319 17.5451 212.266 18.0399 212.161 18.4604C212.062 18.881 211.91 19.2212 211.706 19.481C211.527 19.7036 211.311 19.8737 211.057 19.9912C210.803 20.1025 210.51 20.1582 210.176 20.1582C209.835 20.1582 209.535 20.0994 209.276 19.9819C209.022 19.8644 208.809 19.6882 208.636 19.4531C208.462 19.2367 208.323 18.9645 208.218 18.6367C208.119 18.3089 208.054 17.9316 208.023 17.5049L212.319 14.2671C212.319 14.4465 212.319 14.6196 212.319 14.7866C212.319 14.9536 212.319 15.1144 212.319 15.269V16.9761Z" fill="black"/>
</g>
<defs>
<filter id="filter0_f_4153_134567" x="0" y="-5" width="222.555" height="40" filterUnits="userSpaceOnUse" color-interpolation-filters="sRGB">
<feFlood flood-opacity="0" result="BackgroundImageFix"/>
<feBlend mode="normal" in="SourceGraphic" in2="BackgroundImageFix" result="shape"/>
<feGaussianBlur stdDeviation="4" result="effect1_foregroundBlur_4153_134567"/>
</filter>
</defs>
</svg>
