<svg width="20" height="20" viewBox="0 0 20 20" fill="#000000"
  xmlns="http://www.w3.org/2000/svg">
  <path fill-rule="evenodd" clip-rule="evenodd" d="M1.04199 10.0003C1.04199 5.07181 5.07181 1.04199 10.0003 1.04199C14.9288 1.04199 18.9587 5.07181 18.9587 10.0003C18.9587 14.9288 14.9288 18.9587 10.0003 18.9587C5.07181 18.9587 1.04199 14.9288 1.04199 10.0003ZM10.0003 2.29199C5.76217 2.29199 2.29199 5.76217 2.29199 10.0003C2.29199 14.2385 5.76217 17.7087 10.0003 17.7087C14.2385 17.7087 17.7087 14.2385 17.7087 10.0003C17.7087 5.76217 14.2385 2.29199 10.0003 2.29199Z" fill="currentColor"/>
  <path fill-rule="evenodd" clip-rule="evenodd" d="M12.8002 7.19966C13.0443 7.44374 13.0443 7.83947 12.8002 8.08354L8.08354 12.8002C7.83947 13.0443 7.44374 13.0443 7.19966 12.8002C6.95558 12.5561 6.95558 12.1604 7.19966 11.9163L11.9163 7.19966C12.1604 6.95558 12.5561 6.95558 12.8002 7.19966Z" fill="currentColor"/>
  <path fill-rule="evenodd" clip-rule="evenodd" d="M7.19966 7.19966C7.44374 6.95558 7.83947 6.95558 8.08354 7.19966L12.8002 11.9163C13.0443 12.1604 13.0443 12.5561 12.8002 12.8002C12.5561 13.0443 12.1604 13.0443 11.9163 12.8002L7.19966 8.08354C6.95558 7.83947 6.95558 7.44374 7.19966 7.19966Z" fill="currentColor"/>
</svg>
