<svg width="16" height="16" viewBox="0 0 16 16" fill="none" xmlns="http://www.w3.org/2000/svg">
<path fill-rule="evenodd" clip-rule="evenodd" d="M0.853027 10.7314L5.25145 15.1271L15.0749 5.31101L10.6764 0.916016L0.853027 10.7314Z" fill="black" fill-opacity="0.3"/>
<path fill-rule="evenodd" clip-rule="evenodd" d="M6.23336 3.11531C6.23336 4.83513 4.83755 6.2292 3.11632 6.2292C1.39507 6.2292 0 4.83513 0 3.11531C0 1.39475 1.39507 0 3.11632 0C4.83755 0 6.23405 1.39475 6.23405 3.11531" fill="black"/>
<path fill-rule="evenodd" clip-rule="evenodd" d="M16.0005 3.11531C16.0005 4.83513 14.6047 6.2292 12.8834 6.2292C11.1622 6.2292 9.76709 4.83513 9.76709 3.11531C9.76709 1.39475 11.1622 0 12.8834 0C14.6047 0 16.0005 1.39475 16.0005 3.11531Z" fill="black"/>
<path fill-rule="evenodd" clip-rule="evenodd" d="M6.23336 12.8846C6.23336 14.6052 4.83755 15.9999 3.11632 15.9999C1.39507 15.9992 0 14.6052 0 12.8839C0 11.1647 1.39507 9.77002 3.11632 9.77002C4.83755 9.77002 6.23336 11.1647 6.23336 12.8853" fill="black"/>
<path fill-rule="evenodd" clip-rule="evenodd" d="M12.8834 15.9992C11.1622 15.9992 9.76709 14.6059 9.76709 12.8853C9.76709 11.1647 11.1622 9.77002 12.8834 9.77002C14.6047 9.77002 16.0005 11.1647 16.0005 12.8853C16.0005 14.6052 14.6047 15.9999 12.8834 15.9999V15.9992Z" fill="black"/>
</svg>
