<svg width="32" height="32" viewBox="0 0 32 32" fill="#000000" xmlns="http://www.w3.org/2000/svg">
<path fill-rule="evenodd" clip-rule="evenodd" d="M1.7085 21.4622L10.5052 30.2539L30.1518 10.6211L21.355 1.83081L1.7085 21.4622Z" fill="#DFDEE3"/>
<path fill-rule="evenodd" clip-rule="evenodd" d="M12.4665 6.23082C12.4665 9.67063 9.67501 12.4588 6.23256 12.4588C2.79011 12.4588 0 9.67063 0 6.23082C0 2.78958 2.79011 0 6.23256 0C9.67501 0 12.4679 2.78958 12.4679 6.23082" fill="#FF8F08"/>
<path fill-rule="evenodd" clip-rule="evenodd" d="M32.0012 6.23082C32.0012 9.67063 29.2097 12.4588 25.7672 12.4588C22.3248 12.4588 19.5347 9.67063 19.5347 6.23082C19.5347 2.78958 22.3248 0 25.7672 0C29.2097 0 32.0012 2.78958 32.0012 6.23082Z" fill="#7966FF"/>
<path fill-rule="evenodd" clip-rule="evenodd" d="M12.4665 25.7692C12.4665 29.2104 9.67501 32 6.23256 32C2.79011 31.9986 0 29.2104 0 25.7678C0 22.3294 2.79011 19.5398 6.23256 19.5398C9.67501 19.5398 12.4665 22.3294 12.4665 25.7706" fill="#1AF4FF"/>
<path fill-rule="evenodd" clip-rule="evenodd" d="M25.7672 31.9988C22.3248 31.9988 19.5347 29.2121 19.5347 25.7709C19.5347 22.3296 22.3248 19.54 25.7672 19.54C29.2097 19.54 32.0012 22.3296 32.0012 25.7709C32.0012 29.2107 29.2097 32.0003 25.7672 32.0003V31.9988Z" fill="#FFD817"/>
</svg>
