<svg width="32" height="32" viewBox="0 0 32 32" fill="#000000" xmlns="http://www.w3.org/2000/svg">
<path fill-rule="evenodd" clip-rule="evenodd" d="M3 9.33325C3 8.78097 3.44772 8.33325 4 8.33325H28C28.5523 8.33325 29 8.78097 29 9.33325C29 9.88554 28.5523 10.3333 28 10.3333H4C3.44772 10.3333 3 9.88554 3 9.33325Z" fill="black"/>
<path fill-rule="evenodd" clip-rule="evenodd" d="M3 16C3 15.4477 3.44772 15 4 15H28C28.5523 15 29 15.4477 29 16C29 16.5523 28.5523 17 28 17H4C3.44772 17 3 16.5523 3 16Z" fill="black"/>
<path fill-rule="evenodd" clip-rule="evenodd" d="M3 22.6667C3 22.1145 3.44772 21.6667 4 21.6667H28C28.5523 21.6667 29 22.1145 29 22.6667C29 23.219 28.5523 23.6667 28 23.6667H4C3.44772 23.6667 3 23.219 3 22.6667Z" fill="black"/>
</svg>
