<svg width="111" height="32" viewBox="0 0 111 32" fill="none" xmlns="http://www.w3.org/2000/svg">
<path fill-rule="evenodd" clip-rule="evenodd" d="M1.28125 20.0962L7.87875 26.6899L22.6135 11.9655L16.016 5.3728L1.28125 20.0962Z" fill="#DFDEE3"/>
<path fill-rule="evenodd" clip-rule="evenodd" d="M9.34981 8.67307C9.34981 11.2529 7.25619 13.344 4.67437 13.344C2.09256 13.344 0 11.2529 0 8.67307C0 6.09216 2.09256 4 4.67437 4C7.25619 4 9.35087 6.09216 9.35087 8.67307" fill="#FF8F08"/>
<path fill-rule="evenodd" clip-rule="evenodd" d="M23.9982 8.67307C23.9982 11.2529 21.9046 13.344 19.3228 13.344C16.741 13.344 14.6484 11.2529 14.6484 8.67307C14.6484 6.09216 16.741 4 19.3228 4C21.9046 4 23.9982 6.09216 23.9982 8.67307Z" fill="#7966FF"/>
<path fill-rule="evenodd" clip-rule="evenodd" d="M9.34981 23.327C9.34981 25.9079 7.25619 28.0001 4.67437 28.0001C2.09256 27.999 0 25.9079 0 23.326C0 20.7472 2.09256 18.655 4.67437 18.655C7.25619 18.655 9.34981 20.7472 9.34981 23.3281" fill="#1AF4FF"/>
<path fill-rule="evenodd" clip-rule="evenodd" d="M19.3228 27.999C16.741 27.999 14.6484 25.909 14.6484 23.3281C14.6484 20.7472 16.741 18.655 19.3228 18.655C21.9046 18.655 23.9982 20.7472 23.9982 23.3281C23.9982 25.9079 21.9046 28.0001 19.3228 28.0001V27.999Z" fill="#FFD817"/>
<path d="M41.4 24V9.6H43.29L48.51 20.43L53.7 9.6H55.61V23.99H53.63V14.14L48.98 24H48.03L43.37 14.14V24H41.4ZM58.2117 11.43V9.4H60.3017V11.43H58.2117ZM58.2117 24V13.2H60.3017V24H58.2117ZM70.4847 24V18.69C70.4847 18.27 70.448 17.84 70.3747 17.4C70.308 16.9533 70.1747 16.54 69.9747 16.16C69.7814 15.78 69.5047 15.4733 69.1447 15.24C68.7914 15.0067 68.328 14.89 67.7547 14.89C67.3814 14.89 67.028 14.9533 66.6947 15.08C66.3614 15.2 66.068 15.3967 65.8147 15.67C65.568 15.9433 65.3714 16.3033 65.2247 16.75C65.0847 17.1967 65.0147 17.74 65.0147 18.38L63.7147 17.89C63.7147 16.91 63.898 16.0467 64.2647 15.3C64.6314 14.5467 65.158 13.96 65.8447 13.54C66.5314 13.12 67.3614 12.91 68.3347 12.91C69.0814 12.91 69.708 13.03 70.2147 13.27C70.7214 13.51 71.1314 13.8267 71.4447 14.22C71.7647 14.6067 72.008 15.03 72.1747 15.49C72.3414 15.95 72.4547 16.4 72.5147 16.84C72.5747 17.28 72.6047 17.6667 72.6047 18V24H70.4847ZM62.8947 24V13.2H64.7647V16.32H65.0147V24H62.8947ZM80.9894 24C80.3094 24.1333 79.6427 24.19 78.9894 24.17C78.336 24.15 77.7527 24.0233 77.2394 23.79C76.726 23.5567 76.3394 23.19 76.0794 22.69C75.846 22.2433 75.7194 21.79 75.6994 21.33C75.686 20.8633 75.6794 20.3367 75.6794 19.75V10.2H77.7794V19.65C77.7794 20.0833 77.7827 20.46 77.7894 20.78C77.8027 21.1 77.8727 21.37 77.9994 21.59C78.2394 22.0033 78.6194 22.24 79.1394 22.3C79.666 22.3533 80.2827 22.33 80.9894 22.23V24ZM73.6094 14.88V13.2H80.9894V14.88H73.6094ZM83.0664 11.43V9.4H85.1564V11.43H83.0664ZM83.0664 24V13.2H85.1564V24H83.0664ZM95.3394 24V18.69C95.3394 18.27 95.3027 17.84 95.2294 17.4C95.1627 16.9533 95.0294 16.54 94.8294 16.16C94.636 15.78 94.3594 15.4733 93.9994 15.24C93.646 15.0067 93.1827 14.89 92.6094 14.89C92.236 14.89 91.8827 14.9533 91.5494 15.08C91.216 15.2 90.9227 15.3967 90.6694 15.67C90.4227 15.9433 90.226 16.3033 90.0794 16.75C89.9394 17.1967 89.8694 17.74 89.8694 18.38L88.5694 17.89C88.5694 16.91 88.7527 16.0467 89.1194 15.3C89.486 14.5467 90.0127 13.96 90.6994 13.54C91.386 13.12 92.216 12.91 93.1894 12.91C93.936 12.91 94.5627 13.03 95.0694 13.27C95.576 13.51 95.986 13.8267 96.2994 14.22C96.6194 14.6067 96.8627 15.03 97.0294 15.49C97.196 15.95 97.3094 16.4 97.3694 16.84C97.4294 17.28 97.4594 17.6667 97.4594 18V24H95.3394ZM87.7494 24V13.2H89.6194V16.32H89.8694V24H87.7494ZM104.114 29.1C103.534 29.1 102.971 29.01 102.424 28.83C101.884 28.65 101.391 28.3833 100.944 28.03C100.497 27.6833 100.127 27.2533 99.8341 26.74L101.764 25.76C101.997 26.22 102.331 26.5567 102.764 26.77C103.197 26.9833 103.654 27.09 104.134 27.09C104.727 27.09 105.234 26.9833 105.654 26.77C106.074 26.5633 106.391 26.25 106.604 25.83C106.824 25.41 106.931 24.89 106.924 24.27V21.25H107.174V13.2H109.024V24.29C109.024 24.5767 109.014 24.85 108.994 25.11C108.974 25.37 108.937 25.63 108.884 25.89C108.731 26.6167 108.437 27.2167 108.004 27.69C107.577 28.1633 107.031 28.5167 106.364 28.75C105.704 28.9833 104.954 29.1 104.114 29.1ZM103.954 24.3C102.947 24.3 102.077 24.05 101.344 23.55C100.617 23.05 100.054 22.37 99.6541 21.51C99.2607 20.6433 99.0641 19.67 99.0641 18.59C99.0641 17.5033 99.2641 16.5333 99.6641 15.68C100.064 14.82 100.631 14.1433 101.364 13.65C102.104 13.15 102.981 12.9 103.994 12.9C105.014 12.9 105.871 13.15 106.564 13.65C107.264 14.1433 107.791 14.82 108.144 15.68C108.504 16.54 108.684 17.51 108.684 18.59C108.684 19.67 108.504 20.64 108.144 21.5C107.784 22.36 107.254 23.0433 106.554 23.55C105.854 24.05 104.987 24.3 103.954 24.3ZM104.244 22.41C104.931 22.41 105.491 22.2467 105.924 21.92C106.357 21.5933 106.674 21.1433 106.874 20.57C107.074 19.9967 107.174 19.3367 107.174 18.59C107.174 17.8433 107.071 17.1833 106.864 16.61C106.664 16.0367 106.351 15.59 105.924 15.27C105.504 14.95 104.967 14.79 104.314 14.79C103.621 14.79 103.051 14.96 102.604 15.3C102.157 15.64 101.824 16.0967 101.604 16.67C101.391 17.2433 101.284 17.8833 101.284 18.59C101.284 19.3033 101.391 19.95 101.604 20.53C101.824 21.1033 102.151 21.56 102.584 21.9C103.024 22.24 103.577 22.41 104.244 22.41Z" fill="black" fill-opacity="0.8"/>
</svg>
