<svg width="80" height="20" viewBox="0 0 80 20" fill="none" xmlns="http://www.w3.org/2000/svg">
<g clip-path="url(#clip0_3047_54099)">
<path fill-rule="evenodd" clip-rule="evenodd" d="M1.04297 12.8724L6.41904 18.1344L18.4259 6.38372L13.0498 1.12256L1.04297 12.8724Z" fill="black" fill-opacity="0.3"/>
<path fill-rule="evenodd" clip-rule="evenodd" d="M7.61887 3.75564C7.61887 5.81441 5.91281 7.48322 3.809 7.48322C1.70516 7.48322 0 5.81441 0 3.75564C0 1.69599 1.70516 0.0263672 3.809 0.0263672C5.91281 0.0263672 7.61972 1.69599 7.61972 3.75564" fill="black"/>
<path fill-rule="evenodd" clip-rule="evenodd" d="M19.5564 3.75564C19.5564 5.81441 17.8504 7.48322 15.7465 7.48322C13.6427 7.48322 11.9375 5.81441 11.9375 3.75564C11.9375 1.69599 13.6427 0.0263672 15.7465 0.0263672C17.8504 0.0263672 19.5564 1.69599 19.5564 3.75564Z" fill="black"/>
<path fill-rule="evenodd" clip-rule="evenodd" d="M7.61886 15.4504C7.61886 17.51 5.91281 19.1796 3.80899 19.1796C1.70516 19.1787 0 17.51 0 15.4495C0 13.3915 1.70516 11.7219 3.80899 11.7219C5.91281 11.7219 7.61886 13.3915 7.61886 15.4512" fill="black"/>
<path fill-rule="evenodd" clip-rule="evenodd" d="M15.7465 19.1787C13.6427 19.1787 11.9375 17.5109 11.9375 15.4512C11.9375 13.3915 13.6427 11.7219 15.7465 11.7219C17.8504 11.7219 19.5564 13.3915 19.5564 15.4512C19.5564 17.51 17.8504 19.1796 15.7465 19.1796V19.1787Z" fill="black"/>
<path fill-rule="evenodd" clip-rule="evenodd" d="M54.1661 15.81C55.9083 15.81 57.2276 14.3466 57.2276 12.2296C57.2276 10.087 55.9074 8.64916 54.1661 8.64916C52.4247 8.64916 51.0785 10.1135 51.0785 12.2296C51.0785 14.3722 52.3988 15.81 54.1661 15.81ZM46.75 12.2296C46.75 8.44046 49.4424 5.0961 54.1661 5.0961C58.8649 5.0961 61.582 8.44046 61.582 12.2296C61.582 15.9931 58.8898 19.3375 54.1661 19.3375C49.4424 19.3375 46.75 15.9931 46.75 12.2296ZM63.6127 0H67.8348V14.19C67.8348 15.2087 68.3095 15.7579 69.207 15.7579C69.6873 15.7474 70.158 15.6218 70.5792 15.3918L71.1606 18.5275C70.0785 18.9979 68.5746 19.3118 67.413 19.3118C65.0116 19.3118 63.6127 18.0049 63.6127 15.6527V0Z" fill="black"/>
<path fill-rule="evenodd" clip-rule="evenodd" d="M72.4531 0H76.6764V14.1901C76.6764 15.2087 77.151 15.7579 78.048 15.7579C78.471 15.7579 78.9984 15.627 79.4202 15.3918L80.001 18.5275C78.9189 18.9979 77.415 19.3118 76.2534 19.3118C73.852 19.3118 72.4531 18.0048 72.4531 15.6527V0Z" fill="black"/>
<path fill-rule="evenodd" clip-rule="evenodd" d="M34.925 9.35519V4.28558H38.7513C39.7281 4.28558 40.7576 5.27863 40.7576 6.7943C40.7576 8.28426 39.9119 9.35519 38.8833 9.35519H36.5223L41.2271 19.0769H46.2208L42.1029 12.1778C43.9772 11.1582 45.1647 9.06774 45.1647 6.7943C45.1647 3.71079 42.5784 0.522949 39.0421 0.522949H30.5957V19.0769H34.925V13.0921H34.9259V9.35519H34.925Z" fill="black"/>
</g>
<defs>
<clipPath id="clip0_3047_54099">
<rect width="80.0001" height="19.3375" fill="white"/>
</clipPath>
</defs>
</svg>
