<svg width="40" height="40" viewBox="0 0 40 40" fill="none" xmlns="http://www.w3.org/2000/svg">
<path fill-rule="evenodd" clip-rule="evenodd" d="M8 20C8 22.2091 6.20914 24 4 24C1.79086 24 -7.77663e-07 22.2091 -8.74228e-07 20C-9.70792e-07 17.7909 1.79086 16 4 16C5.03199 16 6.14877 15.8776 6.87849 15.1479L7.14787 14.8785C7.8776 14.1488 8 13.032 8 12C8 9.79086 9.79086 8 12 8C14.2091 8 16 9.79086 16 12C16 14.2091 14.2091 16 12 16C11.0724 16 10.0814 16.1378 9.42551 16.7938L8.79378 17.4255C8.13785 18.0814 8 19.0724 8 20ZM20 24C22.2091 24 24 22.2091 24 20C24 18.9676 24.1224 17.8505 24.8523 17.1204L25.1203 16.8523C25.8505 16.1223 26.9677 16 28 16C30.2091 16 32 14.2091 32 12C32 9.79088 30.2091 8 28 8C26.9677 8 25.8505 7.87767 25.1203 7.14765L24.8523 6.87956C24.1224 6.14961 24 5.03236 24 4C24 1.79088 22.2091 -9.70791e-07 20 -8.74228e-07C17.7909 -7.77664e-07 16 1.79089 16 4L16 12L16 20C16 22.2091 17.7909 24 20 24ZM20 24C17.7909 24 16 25.7909 16 28L16 36C16 38.2091 17.7909 40 20 40C22.2091 40 24 38.2091 24 36L24 28C24 25.7909 22.2091 24 20 24ZM40 20C40 17.7909 38.2091 16 36 16C33.7909 16 32 17.7909 32 20C32 22.2091 33.7909 24 36 24C38.2091 24 40 22.2091 40 20Z" fill="url(#paint0_linear_4166_9727)"/>
<defs>
<linearGradient id="paint0_linear_4166_9727" x1="5.27778" y1="0" x2="5.27778" y2="40" gradientUnits="userSpaceOnUse">
<stop stop-color="#E311F5"/>
<stop offset="1" stop-color="white" stop-opacity="0"/>
</linearGradient>
</defs>
</svg>
