<svg width="24" height="24" viewBox="0 0 24 24" fill="none" xmlns="http://www.w3.org/2000/svg">
<path fill-rule="evenodd" clip-rule="evenodd" d="M17.6797 13.289C17.9726 13.5819 17.9726 14.0568 17.6797 14.3497L14.6397 17.3896C14.3468 17.6825 13.8719 17.6825 13.579 17.3896C13.2862 17.0967 13.2862 16.6219 13.579 16.329L16.6191 13.289C16.912 12.9961 17.3868 12.9961 17.6797 13.289Z" fill="black"/>
<path fill-rule="evenodd" clip-rule="evenodd" d="M6.09961 13.8193C6.09961 13.4051 6.4354 13.0693 6.84961 13.0693H17.1496C17.5638 13.0693 17.8996 13.4051 17.8996 13.8193C17.8996 14.2335 17.5638 14.5693 17.1496 14.5693H6.84961C6.4354 14.5693 6.09961 14.2335 6.09961 13.8193Z" fill="black"/>
<path fill-rule="evenodd" clip-rule="evenodd" d="M10.42 6.60932C10.7128 6.90222 10.7128 7.37709 10.4199 7.66998L7.37994 10.71C7.08704 11.0029 6.61217 11.0028 6.31928 10.71C6.02638 10.4171 6.02639 9.94219 6.31928 9.64929L9.35929 6.60932C9.65219 6.31642 10.1271 6.31643 10.42 6.60932Z" fill="black"/>
<path fill-rule="evenodd" clip-rule="evenodd" d="M6.09961 10.1807C6.09961 9.76645 6.4354 9.43066 6.84961 9.43066H17.1496C17.5638 9.43066 17.8996 9.76645 17.8996 10.1807C17.8996 10.5949 17.5638 10.9307 17.1496 10.9307H6.84961C6.4354 10.9307 6.09961 10.5949 6.09961 10.1807Z" fill="black"/>
<path fill-rule="evenodd" clip-rule="evenodd" d="M12 2.53488C6.77256 2.53488 2.53488 6.77256 2.53488 12C2.53488 17.2274 6.77256 21.4651 12 21.4651C17.2274 21.4651 21.4651 17.2274 21.4651 12C21.4651 6.77256 17.2274 2.53488 12 2.53488ZM1 12C1 5.92487 5.92487 1 12 1C18.0751 1 23 5.92487 23 12C23 18.0751 18.0751 23 12 23C5.92487 23 1 18.0751 1 12Z" fill="black"/>
</svg>
