<svg width="24" height="24" viewBox="0 0 24 24" fill="#000000" xmlns="http://www.w3.org/2000/svg">
<path fill-rule="evenodd" clip-rule="evenodd" d="M13.8994 5.39985C14.1923 5.10695 14.6671 5.10695 14.96 5.39985L21.03 11.4698C21.1707 11.6105 21.2497 11.8013 21.2497 12.0002C21.2497 12.1991 21.1707 12.3899 21.03 12.5305L14.96 18.6005C14.6671 18.8934 14.1923 18.8934 13.8994 18.6005C13.6065 18.3076 13.6065 17.8327 13.8994 17.5398L19.439 12.0002L13.8994 6.46051C13.6065 6.16761 13.6065 5.69274 13.8994 5.39985Z" fill="black"/>
<path fill-rule="evenodd" clip-rule="evenodd" d="M2.75 12C2.75 11.5858 3.08579 11.25 3.5 11.25H20.33C20.7442 11.25 21.08 11.5858 21.08 12C21.08 12.4142 20.7442 12.75 20.33 12.75H3.5C3.08579 12.75 2.75 12.4142 2.75 12Z" fill="black"/>
</svg>
