<svg width="24" height="24" viewBox="0 0 24 24" fill="none" xmlns="http://www.w3.org/2000/svg">
<path fill-rule="evenodd" clip-rule="evenodd" d="M13.6648 4.66045C13.6649 4.66048 13.6648 4.66043 13.6648 4.66045L18.3947 7.39037C18.4098 7.39911 18.4246 7.40837 18.4391 7.41814L18.4629 7.43417C18.8727 7.71052 19.2152 7.94154 19.4798 8.15106C19.7545 8.36862 19.9988 8.60346 20.1743 8.90752C20.3541 9.21892 20.4264 9.54131 20.4593 9.87643C20.4898 10.1874 20.4898 10.5601 20.4898 10.9866V16.0233C20.4898 16.4498 20.4898 16.8225 20.4593 17.1334C20.4264 17.4686 20.3541 17.791 20.1743 18.1024C19.9988 18.4064 19.7545 18.6413 19.4798 18.8588C19.2152 19.0683 18.8727 19.2994 18.4629 19.5757L18.4391 19.5917C18.4246 19.6015 18.4098 19.6108 18.3947 19.6195L13.6648 22.3494C13.6648 22.3495 13.6649 22.3494 13.6648 22.3494C13.1683 22.6361 12.563 22.7574 11.9998 22.7574C11.4365 22.7574 10.8313 22.6362 10.3349 22.3495C10.3348 22.3495 10.3349 22.3495 10.3349 22.3495L5.60486 19.6195C5.58972 19.6108 5.5749 19.6015 5.56041 19.5917L5.53663 19.5757C5.12686 19.2994 4.7843 19.0683 4.51975 18.8588C4.24505 18.6413 4.0007 18.4064 3.8252 18.1024C3.64547 17.791 3.57309 17.4686 3.54022 17.1334C3.50973 16.8225 3.50975 16.4498 3.50977 16.0233V10.9866C3.50975 10.5601 3.50973 10.1874 3.54022 9.87643C3.57309 9.54131 3.64547 9.21892 3.8252 8.90752C4.0007 8.60346 4.24505 8.36862 4.51975 8.15106C4.78431 7.94154 5.12687 7.71051 5.53665 7.43416L5.56041 7.41814C5.5749 7.40837 5.58972 7.39911 5.60486 7.39037L10.3347 4.66045C10.3348 4.66043 10.3347 4.66048 10.3347 4.66045C10.8312 4.37379 11.4365 4.25244 11.9998 4.25244C12.563 4.25244 13.1683 4.37379 13.6648 4.66045ZM11.9998 5.75244C11.6281 5.75244 11.2983 5.83615 11.0848 5.95943L6.37739 8.6764C5.9497 8.96487 5.66159 9.16019 5.45104 9.32695C5.24199 9.49251 5.16383 9.58892 5.12433 9.65736C5.08907 9.71846 5.05395 9.80983 5.03306 10.0228C5.0106 10.2519 5.00977 10.5504 5.00977 11.0199V15.9899C5.00977 16.4595 5.0106 16.758 5.03306 16.9871C5.05395 17.2001 5.08907 17.2914 5.12433 17.3525C5.16383 17.421 5.24199 17.5174 5.45104 17.6829C5.66159 17.8497 5.9497 18.045 6.3774 18.3335L11.0847 21.0504C11.2982 21.1737 11.6281 21.2574 11.9998 21.2574C12.3715 21.2574 12.7012 21.1737 12.9147 21.0505L17.6221 18.3335C18.0498 18.045 18.3379 17.8497 18.5485 17.6829C18.7575 17.5174 18.8357 17.421 18.8752 17.3525C18.9105 17.2914 18.9456 17.2001 18.9665 16.9871C18.9889 16.758 18.9898 16.4595 18.9898 15.9899V11.0199C18.9898 10.5504 18.9889 10.2519 18.9665 10.0228C18.9456 9.80983 18.9105 9.71846 18.8752 9.65736C18.8357 9.58892 18.7575 9.49251 18.5485 9.32695C18.3379 9.16019 18.0498 8.96487 17.6221 8.6764L12.9149 5.95951C12.7014 5.83623 12.3715 5.75244 11.9998 5.75244Z" fill="black"/>
<path fill-rule="evenodd" clip-rule="evenodd" d="M6.71967 2.21967C7.40993 1.52941 8.38439 1.25 9.5 1.25H14.5C15.6156 1.25 16.5901 1.52941 17.2803 2.21967C17.9706 2.90993 18.25 3.88439 18.25 5V7.63C18.25 8.04421 17.9142 8.38 17.5 8.38C17.0858 8.38 16.75 8.04421 16.75 7.63V5C16.75 4.11561 16.5294 3.59007 16.2197 3.28033C15.9099 2.97059 15.3844 2.75 14.5 2.75H9.5C8.61561 2.75 8.09007 2.97059 7.78033 3.28033C7.47059 3.59007 7.25 4.11561 7.25 5V7.56C7.25 7.97421 6.91421 8.31 6.5 8.31C6.08579 8.31 5.75 7.97421 5.75 7.56V5C5.75 3.88439 6.02941 2.90993 6.71967 2.21967Z" fill="black"/>
<path fill-rule="evenodd" clip-rule="evenodd" d="M11.9866 11.4014L11.4238 12.2803C11.3169 12.451 11.1695 12.5856 11.0435 12.6782C10.915 12.7726 10.7372 12.8757 10.5336 12.927L9.52024 13.1853L10.1868 13.9912C10.3167 14.1475 10.3992 14.3317 10.4482 14.4806C10.4972 14.6295 10.5406 14.8283 10.5282 15.0342L10.4684 16.0806L11.441 15.6936C11.4412 15.6935 11.4408 15.6937 11.441 15.6936C11.6318 15.6174 11.8341 15.595 11.9945 15.595C12.1549 15.595 12.3566 15.6171 12.5474 15.6934C12.5476 15.6934 12.5472 15.6933 12.5474 15.6934L13.5206 16.0806L13.4608 15.0343C13.4483 14.8267 13.4925 14.6293 13.5418 14.4815C13.5924 14.3295 13.672 14.1596 13.7851 14.0127C13.7904 14.0057 13.796 13.9987 13.8016 13.9919L14.4688 13.1853L13.4463 12.9247C13.2582 12.8745 13.0884 12.7793 12.9593 12.6865C12.83 12.5935 12.6801 12.459 12.5686 12.2855L11.9993 11.3965C11.9978 11.3942 11.9963 11.3919 11.9948 11.3898C11.9921 11.3935 11.9894 11.3973 11.9866 11.4014ZM11.9983 9.83496C12.5492 9.83496 12.9872 10.1629 13.2589 10.582L13.2611 10.5855L13.8183 11.4555C13.8191 11.4562 13.82 11.457 13.821 11.4578C13.825 11.4611 13.8296 11.4648 13.8347 11.4684C13.8399 11.4721 13.8449 11.4755 13.8495 11.4783C13.8508 11.4791 13.852 11.4798 13.8531 11.4804L14.8441 11.733C14.8442 11.7331 14.844 11.733 14.8441 11.733C15.3339 11.8575 15.7882 12.1736 15.9585 12.7027C16.1278 13.229 15.9464 13.749 15.6295 14.1355L15.6274 14.138L14.9782 14.9229C14.9764 14.9266 14.9742 14.9313 14.9719 14.9369C14.9693 14.943 14.9669 14.9494 14.9648 14.9559C14.9627 14.9622 14.961 14.968 14.9598 14.9728L15.0181 15.9939C15.0181 15.9945 15.0182 15.9951 15.0182 15.9957C15.0487 16.498 14.8884 17.0265 14.4389 17.3515C13.9893 17.6766 13.4373 17.6627 12.9716 17.4766C12.9714 17.4765 12.9717 17.4766 12.9716 17.4766L12.0149 17.0958C12.014 17.0958 12.0131 17.0957 12.0122 17.0956C12.0069 17.0952 12.0009 17.095 11.9945 17.095C11.9881 17.095 11.9821 17.0952 11.9769 17.0956C11.9759 17.0957 11.975 17.0958 11.9742 17.0958L11.0181 17.4763C11.0179 17.4764 11.0182 17.4763 11.0181 17.4763C10.5467 17.6647 9.99404 17.6717 9.54742 17.3458C9.103 17.0215 8.94008 16.4968 8.97084 15.9954L9.02939 14.9708C9.02916 14.9698 9.02889 14.9687 9.02861 14.9675C9.02724 14.962 9.02547 14.9558 9.02332 14.9493C9.02118 14.9428 9.01892 14.9367 9.01674 14.9315C9.0163 14.9304 9.01589 14.9294 9.01549 14.9285L8.35956 14.1355C8.04265 13.7491 7.8612 13.229 8.03058 12.7027C8.20086 12.1736 8.65486 11.8576 9.14461 11.7331M10.1408 11.4792C10.1371 11.4815 10.1344 11.4829 10.1332 11.4835C10.1318 11.4842 10.1334 11.4833 10.1381 11.4815C10.1416 11.4802 10.1484 11.4776 10.1584 11.4748L10.1508 11.4869C10.1534 11.4827 10.1561 11.4782 10.1584 11.4748C10.1582 11.4751 10.1585 11.4746 10.1584 11.4748C10.1602 11.4743 10.1623 11.4737 10.1643 11.4732L10.1584 11.4748C10.1639 11.4666 10.1685 11.4609 10.171 11.4579C10.1746 11.4533 10.1763 11.4517 10.1754 11.4527C10.1746 11.4535 10.1723 11.4557 10.1686 11.4589C10.1686 11.4589 10.1686 11.4589 10.1686 11.4589L10.1584 11.4748L10.1408 11.4792Z" fill="black"/>
</svg>
