<svg width="24" height="24" viewBox="0 0 24 24" fill="#000000" xmlns="http://www.w3.org/2000/svg">
<path fill-rule="evenodd" clip-rule="evenodd" d="M5.03033 3.53033C4.51884 4.04182 4.25 4.99464 4.25 7V18C4.25 18.4142 3.91421 18.75 3.5 18.75C3.08579 18.75 2.75 18.4142 2.75 18V7C2.75 5.00536 2.98116 3.45818 3.96967 2.46967C4.95818 1.48116 6.50536 1.25 8.5 1.25H15.5C17.4946 1.25 19.0418 1.48116 20.0303 2.46967C21.0188 3.45818 21.25 5.00536 21.25 7V17.01C21.25 17.1437 21.25 17.3065 21.2381 17.4734C21.2086 17.8866 20.8497 18.1976 20.4366 18.1681C20.0234 18.1386 19.7124 17.7797 19.7419 17.3666C19.7497 17.2577 19.75 17.1444 19.75 17V7C19.75 4.99464 19.4812 4.04182 18.9697 3.53033C18.4582 3.01884 17.5054 2.75 15.5 2.75H8.5C6.49464 2.75 5.54182 3.01884 5.03033 3.53033Z" fill="black"/>
<path fill-rule="evenodd" clip-rule="evenodd" d="M6.35 15.75C5.19421 15.75 4.25 16.6942 4.25 17.85V18.5C4.25 20.0158 5.48421 21.25 7 21.25H17C18.5158 21.25 19.75 20.0158 19.75 18.5V15.75H6.35ZM2.75 17.85C2.75 15.8658 4.36579 14.25 6.35 14.25H20.5C20.9142 14.25 21.25 14.5858 21.25 15V18.5C21.25 20.8442 19.3442 22.75 17 22.75H7C4.65579 22.75 2.75 20.8442 2.75 18.5V17.85Z" fill="black"/>
<path fill-rule="evenodd" clip-rule="evenodd" d="M7.25 7C7.25 6.58579 7.58579 6.25 8 6.25H16C16.4142 6.25 16.75 6.58579 16.75 7C16.75 7.41421 16.4142 7.75 16 7.75H8C7.58579 7.75 7.25 7.41421 7.25 7Z" fill="black"/>
<path fill-rule="evenodd" clip-rule="evenodd" d="M7.25 10.5C7.25 10.0858 7.58579 9.75 8 9.75H13C13.4142 9.75 13.75 10.0858 13.75 10.5C13.75 10.9142 13.4142 11.25 13 11.25H8C7.58579 11.25 7.25 10.9142 7.25 10.5Z" fill="black"/>
</svg>
