<svg width="24" height="24" viewBox="0 0 24 24" fill="#000000" xmlns="http://www.w3.org/2000/svg">
<path fill-rule="evenodd" clip-rule="evenodd" d="M9.75174 8.35724C12.7491 8.87968 15.1203 11.2509 15.6428 14.2483C18.7526 14.1725 21.25 11.6281 21.25 8.5C21.25 5.32421 18.6758 2.75 15.5 2.75C12.3719 2.75 9.82751 5.24742 9.75174 8.35724ZM8.25 8.5C8.25 4.49579 11.4958 1.25 15.5 1.25C19.5042 1.25 22.75 4.49579 22.75 8.5C22.75 12.5042 19.5042 15.75 15.5 15.75C15.3049 15.75 15.1042 15.7386 14.936 15.7287C14.5621 15.7067 14.2618 15.4123 14.2323 15.039C14.0113 12.2367 11.7633 9.98867 8.96102 9.76767C8.58768 9.73822 8.29327 9.43789 8.27128 9.06403C8.26139 8.89583 8.25 8.69505 8.25 8.5Z" fill="black"/>
<path fill-rule="evenodd" clip-rule="evenodd" d="M8.5 9.75C5.32421 9.75 2.75 12.3242 2.75 15.5C2.75 18.6758 5.32421 21.25 8.5 21.25C11.6758 21.25 14.25 18.6758 14.25 15.5C14.25 15.3572 14.2417 15.2006 14.2318 15.0317C14.0076 12.2352 11.7648 9.99236 8.96828 9.76824C8.79941 9.75833 8.64279 9.75 8.5 9.75ZM1.25 15.5C1.25 11.4958 4.49579 8.25 8.5 8.25C8.69505 8.25 8.89583 8.26139 9.06403 8.27128L9.07895 8.27231C12.6166 8.55131 15.4487 11.3834 15.7277 14.921L15.7287 14.936C15.7386 15.1042 15.75 15.3049 15.75 15.5C15.75 19.5042 12.5042 22.75 8.5 22.75C4.49579 22.75 1.25 19.5042 1.25 15.5Z" fill="black"/>
<path fill-rule="evenodd" clip-rule="evenodd" d="M8.5 12.25C8.77492 12.25 9.02781 12.4004 9.15904 12.642L9.93308 14.0669L11.358 14.841C11.5996 14.9722 11.75 15.2251 11.75 15.5C11.75 15.7749 11.5996 16.0278 11.358 16.159L9.93308 16.9331L9.15904 18.358C9.02781 18.5996 8.77492 18.75 8.5 18.75C8.22508 18.75 7.97219 18.5996 7.84096 18.358L7.06692 16.9331L5.642 16.159C5.40042 16.0278 5.25 15.7749 5.25 15.5C5.25 15.2251 5.40042 14.9722 5.642 14.841L7.06692 14.0669L7.84096 12.642C7.97219 12.4004 8.22508 12.25 8.5 12.25ZM8.5 14.5712L8.27904 14.978C8.20987 15.1053 8.10531 15.2099 7.978 15.279L7.57123 15.5L7.978 15.721C8.10531 15.7901 8.20987 15.8947 8.27904 16.022L8.5 16.4288L8.72096 16.022C8.79013 15.8947 8.89469 15.7901 9.022 15.721L9.42877 15.5L9.022 15.279C8.89469 15.2099 8.79013 15.1053 8.72096 14.978L8.5 14.5712Z" fill="black"/>
</svg>
