<svg width="24" height="24" viewBox="0 0 24 24" fill="none" xmlns="http://www.w3.org/2000/svg">
<path fill-rule="evenodd" clip-rule="evenodd" d="M14.2197 2.21967C14.9099 1.52941 15.8844 1.25 17 1.25H19C20.1156 1.25 21.0901 1.52941 21.7803 2.21967C22.4706 2.90993 22.75 3.88439 22.75 5V7C22.75 8.11561 22.4706 9.09007 21.7803 9.78033C21.0901 10.4706 20.1156 10.75 19 10.75H17C15.8844 10.75 14.9099 10.4706 14.2197 9.78033C13.5294 9.09007 13.25 8.11561 13.25 7V5C13.25 3.88439 13.5294 2.90993 14.2197 2.21967ZM15.2803 3.28033C14.9706 3.59007 14.75 4.11561 14.75 5V7C14.75 7.88439 14.9706 8.40993 15.2803 8.71967C15.5901 9.02941 16.1156 9.25 17 9.25H19C19.8844 9.25 20.4099 9.02941 20.7197 8.71967C21.0294 8.40993 21.25 7.88439 21.25 7V5C21.25 4.11561 21.0294 3.59007 20.7197 3.28033C20.4099 2.97059 19.8844 2.75 19 2.75H17C16.1156 2.75 15.5901 2.97059 15.2803 3.28033Z" fill="black"/>
<path fill-rule="evenodd" clip-rule="evenodd" d="M2.21967 14.2197C2.90993 13.5294 3.88439 13.25 5 13.25H7C8.11561 13.25 9.09007 13.5294 9.78033 14.2197C10.4706 14.9099 10.75 15.8844 10.75 17V19C10.75 20.1156 10.4706 21.0901 9.78033 21.7803C9.09007 22.4706 8.11561 22.75 7 22.75H5C3.88439 22.75 2.90993 22.4706 2.21967 21.7803C1.52941 21.0901 1.25 20.1156 1.25 19V17C1.25 15.8844 1.52941 14.9099 2.21967 14.2197ZM3.28033 15.2803C2.97059 15.5901 2.75 16.1156 2.75 17V19C2.75 19.8844 2.97059 20.4099 3.28033 20.7197C3.59007 21.0294 4.11561 21.25 5 21.25H7C7.88439 21.25 8.40993 21.0294 8.71967 20.7197C9.02941 20.4099 9.25 19.8844 9.25 19V17C9.25 16.1156 9.02941 15.5901 8.71967 15.2803C8.40993 14.9706 7.88439 14.75 7 14.75H5C4.11561 14.75 3.59007 14.9706 3.28033 15.2803Z" fill="black"/>
<path fill-rule="evenodd" clip-rule="evenodd" d="M6 2.75C4.20507 2.75 2.75 4.20507 2.75 6C2.75 7.79493 4.20507 9.25 6 9.25C7.79493 9.25 9.25 7.79493 9.25 6C9.25 4.20507 7.79493 2.75 6 2.75ZM1.25 6C1.25 3.37665 3.37665 1.25 6 1.25C8.62335 1.25 10.75 3.37665 10.75 6C10.75 8.62335 8.62335 10.75 6 10.75C3.37665 10.75 1.25 8.62335 1.25 6Z" fill="black"/>
<path fill-rule="evenodd" clip-rule="evenodd" d="M18 14.75C16.2051 14.75 14.75 16.2051 14.75 18C14.75 19.7949 16.2051 21.25 18 21.25C19.7949 21.25 21.25 19.7949 21.25 18C21.25 16.2051 19.7949 14.75 18 14.75ZM13.25 18C13.25 15.3766 15.3766 13.25 18 13.25C20.6234 13.25 22.75 15.3766 22.75 18C22.75 20.6234 20.6234 22.75 18 22.75C15.3766 22.75 13.25 20.6234 13.25 18Z" fill="black"/>
</svg>
