<svg width="24" height="24" viewBox="0 0 24 24" fill="#000000" xmlns="http://www.w3.org/2000/svg">
<path fill-rule="evenodd" clip-rule="evenodd" d="M9.16 7.94922C8.97061 7.94922 8.75 8.12607 8.75 8.41922C8.75 8.67118 8.80322 8.73769 8.80864 8.74447C8.80873 8.74458 8.80858 8.74439 8.80864 8.74447C8.82018 8.75909 8.86385 8.80605 9.04919 8.87183L11.4551 9.7139C11.7443 9.81848 12.0965 9.98754 12.3621 10.3273C12.6349 10.6763 12.74 11.1052 12.74 11.5792C12.74 12.6261 11.9206 13.5492 10.83 13.5492H9.33C8.15054 13.5492 7.25 12.5473 7.25 11.3992C7.25 10.985 7.58579 10.6492 8 10.6492C8.41421 10.6492 8.75 10.985 8.75 11.3992C8.75 11.7912 9.04946 12.0492 9.33 12.0492H10.83C11.0194 12.0492 11.24 11.8724 11.24 11.5792C11.24 11.3268 11.1866 11.259 11.1806 11.2514C11.1688 11.2363 11.1263 11.1905 10.9483 11.1257L8.54961 10.2862C8.25596 10.1822 7.89956 10.014 7.63113 9.67368C7.355 9.3236 7.25 8.89307 7.25 8.41922C7.25 7.37237 8.06939 6.44922 9.16 6.44922H10.6701C11.8391 6.46502 12.75 7.43797 12.75 8.59922C12.75 9.01343 12.4142 9.34922 12 9.34922C11.5858 9.34922 11.25 9.01343 11.25 8.59922C11.25 8.22209 10.9634 7.95564 10.6539 7.94922H9.16Z" fill="black"/>
<path fill-rule="evenodd" clip-rule="evenodd" d="M10 12.1016C10.4142 12.1016 10.75 12.4373 10.75 12.8516V13.5916C10.75 14.0058 10.4142 14.3416 10 14.3416C9.58579 14.3416 9.25 14.0058 9.25 13.5916V12.8516C9.25 12.4373 9.58579 12.1016 10 12.1016Z" fill="black"/>
<path fill-rule="evenodd" clip-rule="evenodd" d="M10 5.66016C10.4142 5.66016 10.75 5.99594 10.75 6.41016V7.19016C10.75 7.60437 10.4142 7.94016 10 7.94016C9.58579 7.94016 9.25 7.60437 9.25 7.19016V6.41016C9.25 5.99594 9.58579 5.66016 10 5.66016Z" fill="black"/>
<path fill-rule="evenodd" clip-rule="evenodd" d="M9.99 2.75C5.99146 2.75 2.75 5.99146 2.75 9.99C2.75 13.9885 5.99146 17.23 9.99 17.23C13.9885 17.23 17.23 13.9885 17.23 9.99C17.23 5.99146 13.9885 2.75 9.99 2.75ZM1.25 9.99C1.25 5.16303 5.16303 1.25 9.99 1.25C14.817 1.25 18.73 5.16303 18.73 9.99C18.73 14.817 14.817 18.73 9.99 18.73C5.16303 18.73 1.25 14.817 1.25 9.99Z" fill="black"/>
<path fill-rule="evenodd" clip-rule="evenodd" d="M19.3019 12.5618C19.5439 12.2257 20.0126 12.1494 20.3488 12.3914C21.7849 13.4254 22.7305 15.1173 22.7305 17.0301C22.7305 20.1743 20.1747 22.7301 17.0305 22.7301C15.0953 22.7301 13.4021 21.7721 12.3686 20.3137C12.1291 19.9757 12.2089 19.5076 12.5469 19.2681C12.8848 19.0286 13.353 19.1085 13.5925 19.4464C14.359 20.528 15.6058 21.2301 17.0305 21.2301C19.3463 21.2301 21.2305 19.3458 21.2305 17.0301C21.2305 15.6229 20.5361 14.3747 19.4723 13.6087C19.1362 13.3667 19.0599 12.898 19.3019 12.5618Z" fill="black"/>
</svg>
