<svg width="24" height="24" viewBox="0 0 24 24" fill="none" xmlns="http://www.w3.org/2000/svg">
<path fill-rule="evenodd" clip-rule="evenodd" d="M5.5 11.8999C5.91421 11.8999 6.25 12.2357 6.25 12.6499C6.25 15.2124 8.66463 17.2499 12 17.2499C15.3354 17.2499 17.75 15.2124 17.75 12.6499C17.75 12.2357 18.0858 11.8999 18.5 11.8999C18.9142 11.8999 19.25 12.2357 19.25 12.6499V16.3499C19.25 19.9793 15.9021 22.7499 12 22.7499C8.09788 22.7499 4.75 19.9793 4.75 16.3499V12.6499C4.75 12.2357 5.08579 11.8999 5.5 11.8999ZM6.25115 16.4473C6.3117 19.0171 8.76294 21.2499 12 21.2499C15.2371 21.2499 17.6883 19.0171 17.7489 16.4473C16.396 17.9017 14.2749 18.7499 12 18.7499C9.72509 18.7499 7.60398 17.9017 6.25115 16.4473Z" fill="black"/>
<path fill-rule="evenodd" clip-rule="evenodd" d="M12 2.75C10.3748 2.75 8.93174 3.3185 7.89319 4.22503L7.89285 4.22533C6.86379 5.12245 6.25 6.33483 6.25 7.65C6.25 8.41948 6.4606 9.1245 6.82996 9.72891L6.83086 9.73038C7.73683 11.2206 9.66309 12.25 12 12.25C14.3369 12.25 16.2632 11.2206 17.1691 9.73038L17.17 9.72891C17.5394 9.1245 17.75 8.41948 17.75 7.65C17.75 6.33635 17.1375 5.12348 16.107 4.21517C15.0675 3.31774 13.624 2.75 12 2.75ZM6.90714 3.09467C8.22857 1.94138 10.0253 1.25 12 1.25C13.9747 1.25 15.7702 1.94132 17.0905 3.0826L17.0956 3.08704L17.0956 3.08706C18.4035 4.2385 19.25 5.84473 19.25 7.65C19.25 8.70021 18.9608 9.67492 18.4504 10.5104C17.2162 12.5397 14.7428 13.75 12 13.75C9.25729 13.75 6.78387 12.5398 5.54966 10.5105C5.03926 9.67501 4.75 8.70026 4.75 7.65C4.75 5.84533 5.59605 4.23783 6.90679 3.09497" fill="black"/>
<path fill-rule="evenodd" clip-rule="evenodd" d="M12 2.75C8.72212 2.75 6.25 5.03942 6.25 7.65V12.65C6.25 15.2125 8.66463 17.25 12 17.25C15.3354 17.25 17.75 15.2125 17.75 12.65V7.65C17.75 6.33635 17.1375 5.12348 16.107 4.21517C15.0675 3.31774 13.624 2.75 12 2.75ZM4.75 7.65C4.75 4.02058 8.09788 1.25 12 1.25C13.9747 1.25 15.7702 1.94132 17.0905 3.0826L17.0956 3.08704L17.0956 3.08706C18.4035 4.2385 19.25 5.84473 19.25 7.65V12.65C19.25 16.3275 15.8446 18.75 12 18.75C8.15537 18.75 4.75 16.3275 4.75 12.65V7.65Z" fill="black"/>
</svg>
