<svg width="24" height="24" viewBox="0 0 24 24" fill="none" xmlns="http://www.w3.org/2000/svg">
<g clip-path="url(#clip0_3247_60494)">
<path fill-rule="evenodd" clip-rule="evenodd" d="M12.0004 1.8499C6.3947 1.8499 1.85039 6.39421 1.85039 11.9999C1.85039 17.6056 6.3947 22.1499 12.0004 22.1499C17.6061 22.1499 22.1504 17.6056 22.1504 11.9999C22.1504 6.39421 17.6061 1.8499 12.0004 1.8499ZM0.650391 11.9999C0.650391 5.73147 5.73196 0.649902 12.0004 0.649902C18.2688 0.649902 23.3504 5.73147 23.3504 11.9999C23.3504 18.2683 18.2688 23.3499 12.0004 23.3499C5.73196 23.3499 0.650391 18.2683 0.650391 11.9999Z" fill="black"/>
<path fill-rule="evenodd" clip-rule="evenodd" d="M14.3631 8.19726C12.7036 7.54307 10.8638 6.81782 8.23628 7.50526C7.51359 7.69434 7.03701 8.12495 6.6794 8.78218C6.307 9.46657 6.07572 10.377 5.87619 11.4789C5.79849 11.9081 5.72648 12.3646 5.6515 12.8399C5.35273 14.734 5.00686 16.9266 4.06623 18.8747C3.92214 19.1731 3.56343 19.2982 3.26503 19.1541C2.96662 19.01 2.84152 18.6513 2.98561 18.3529C3.84098 16.5814 4.15235 14.6192 4.45043 12.7408C4.5297 12.2413 4.60803 11.7477 4.69539 11.2651C4.89749 10.149 5.15439 9.07414 5.62534 8.20863C6.11107 7.31595 6.833 6.63201 7.93255 6.34433C10.9828 5.54629 13.2962 6.4681 14.98 7.13907C15.4265 7.317 15.8288 7.47729 16.1888 7.58319C16.3393 7.62748 16.4915 7.67097 16.6441 7.71457C17.4089 7.93314 18.183 8.15436 18.8084 8.4925C19.6145 8.92833 20.2323 9.58329 20.449 10.6772L20.449 10.6775C20.5463 11.1695 20.4213 11.6547 20.2179 12.0924C20.0137 12.532 19.7045 12.9793 19.3533 13.4229C18.9287 13.959 18.3904 14.5508 17.8387 15.1573C17.4982 15.5315 17.1527 15.9114 16.8256 16.2872C15.938 17.3072 15.1303 18.3554 14.6463 19.4233C14.168 20.4783 14.0232 21.5113 14.3968 22.5461C14.5093 22.8578 14.3478 23.2016 14.0361 23.3142C13.7245 23.4267 13.3806 23.2652 13.2681 22.9535C12.7581 21.5408 12.9881 20.1746 13.5533 18.9278C14.1127 17.6939 15.017 16.5375 15.9204 15.4995C16.291 15.0735 16.6541 14.675 16.9993 14.2961C17.5238 13.7204 18.0069 13.1901 18.4125 12.6779C18.7408 12.2633 18.9835 11.9015 19.1296 11.5868C19.2766 11.2705 19.3007 11.0564 19.2719 10.9104C19.1365 10.2273 18.7873 9.84526 18.2377 9.54809C17.7381 9.27801 17.1196 9.10032 16.3561 8.88099C16.1941 8.83443 16.0255 8.786 15.8501 8.73441C15.3597 8.59014 14.8698 8.39701 14.3631 8.19726Z" fill="black"/>
<path fill-rule="evenodd" clip-rule="evenodd" d="M13.9295 5.87937C14.7073 6.1588 15.5244 6.8254 15.5244 7.76854C15.5244 8.09991 15.2557 8.36854 14.9244 8.36854C14.593 8.36854 14.3244 8.09991 14.3244 7.76854C14.3244 7.57517 14.1044 7.21728 13.5238 7.0087C12.9868 6.81576 12.3764 6.85462 11.9354 7.20092C11.6748 7.40558 11.2976 7.36022 11.093 7.09961C10.8883 6.83899 10.9337 6.46181 11.1943 6.25715C12.0388 5.59395 13.1082 5.58431 13.9295 5.87937ZM19.6288 12.5677C19.7568 12.8733 19.6128 13.2249 19.3072 13.3529C17.4913 14.1136 16.0945 14.6342 14.9338 14.7843C13.7173 14.9416 12.7406 14.6951 11.8056 13.957C11.5455 13.7517 11.5011 13.3744 11.7064 13.1143C11.9118 12.8542 12.289 12.8098 12.5491 13.0151C13.2121 13.5384 13.8595 13.7132 14.7799 13.5942C15.7562 13.4679 17.0094 13.0145 18.8435 12.2461C19.1492 12.1181 19.5007 12.2621 19.6288 12.5677Z" fill="black"/>
<path fill-rule="evenodd" clip-rule="evenodd" d="M10.5231 8.15723C9.74773 8.15723 9.11914 8.78582 9.11914 9.56123C9.11914 10.3366 9.74773 10.9652 10.5231 10.9652C11.2985 10.9652 11.9271 10.3366 11.9271 9.56123C11.9271 8.78582 11.2985 8.15723 10.5231 8.15723ZM8.61914 9.56123C8.61914 8.50968 9.47159 7.65723 10.5231 7.65723C11.5747 7.65723 12.4271 8.50968 12.4271 9.56123C12.4271 10.6128 11.5747 11.4652 10.5231 11.4652C9.47159 11.4652 8.61914 10.6128 8.61914 9.56123Z" fill="black"/>
<path fill-rule="evenodd" clip-rule="evenodd" d="M10.5239 9.16602C10.3058 9.16602 10.1289 9.34286 10.1289 9.56102C10.1289 9.77917 10.3058 9.95602 10.5239 9.95602C10.7421 9.95602 10.9189 9.77917 10.9189 9.56102C10.9189 9.34286 10.7421 9.16602 10.5239 9.16602ZM9.62891 9.56102C9.62891 9.06672 10.0296 8.66602 10.5239 8.66602C11.0182 8.66602 11.4189 9.06672 11.4189 9.56102C11.4189 10.0553 11.0182 10.456 10.5239 10.456C10.0296 10.456 9.62891 10.0553 9.62891 9.56102Z" fill="black"/>
<path d="M17.4207 11.8829C17.6347 11.8829 17.8082 11.7094 17.8082 11.4954C17.8082 11.2814 17.6347 11.1079 17.4207 11.1079C17.2067 11.1079 17.0332 11.2814 17.0332 11.4954C17.0332 11.7094 17.2067 11.8829 17.4207 11.8829Z" fill="black"/>
<path fill-rule="evenodd" clip-rule="evenodd" d="M11.917 2.78017C11.9356 2.44932 12.2189 2.19621 12.5497 2.21483C14.9571 2.35031 17.2301 3.36835 18.934 5.07428C20.638 6.78022 21.6534 9.05435 21.7861 11.4619C21.8044 11.7927 21.5509 12.0757 21.2201 12.094C20.8892 12.1122 20.6062 11.8588 20.5879 11.5279C20.4715 9.41513 19.5804 7.41941 18.085 5.92232C16.5897 4.42523 14.595 3.53183 12.4823 3.41294C12.1515 3.39432 11.8984 3.11102 11.917 2.78017Z" fill="black"/>
</g>
<defs>
<clipPath id="clip0_3247_60494">
<rect width="24" height="24" fill="white"/>
</clipPath>
</defs>
</svg>
