<svg width="24" height="24" viewBox="0 0 24 24" fill="none" xmlns="http://www.w3.org/2000/svg">
<path fill-rule="evenodd" clip-rule="evenodd" d="M3.77155 9.77302C3.23541 10.3092 2.89766 11.2379 2.89766 12.8991V17.0991C2.89766 18.7604 3.23541 19.6891 3.77155 20.2252C4.30769 20.7614 5.23642 21.0991 6.89766 21.0991H11.0977C12.7589 21.0991 13.6876 20.7614 14.2238 20.2252C14.7599 19.6891 15.0977 18.7604 15.0977 17.0991V12.8991C15.0977 11.2379 14.7599 10.3092 14.2238 9.77302C13.6876 9.23688 12.7589 8.89912 11.0977 8.89912H6.89766C5.23642 8.89912 4.30769 9.23688 3.77155 9.77302ZM2.49876 8.50022C3.53762 7.46136 5.05889 7.09912 6.89766 7.09912H11.0977C12.9364 7.09912 14.4577 7.46136 15.4966 8.50022C16.5354 9.53909 16.8977 11.0604 16.8977 12.8991V17.0991C16.8977 18.9379 16.5354 20.4592 15.4966 21.498C14.4577 22.5369 12.9364 22.8991 11.0977 22.8991H6.89766C5.05889 22.8991 3.53762 22.5369 2.49876 21.498C1.4599 20.4592 1.09766 18.9379 1.09766 17.0991V12.8991C1.09766 11.0604 1.4599 9.53909 2.49876 8.50022Z" fill="black"/>
<path fill-rule="evenodd" clip-rule="evenodd" d="M9.77155 3.77302C9.23541 4.30915 8.89766 5.23789 8.89766 6.89912V7.09912H11.0977C12.9364 7.09912 14.4577 7.46136 15.4966 8.50022C16.5354 9.53909 16.8977 11.0604 16.8977 12.8991V15.0991H17.0977C18.7589 15.0991 19.6876 14.7614 20.2238 14.2252C20.7599 13.6891 21.0977 12.7604 21.0977 11.0991V6.89912C21.0977 5.23789 20.7599 4.30915 20.2238 3.77302C19.6876 3.23688 18.7589 2.89912 17.0977 2.89912H12.8977C11.2364 2.89912 10.3077 3.23688 9.77155 3.77302ZM8.49876 2.50023C9.53762 1.46136 11.0589 1.09912 12.8977 1.09912H17.0977C18.9364 1.09912 20.4577 1.46136 21.4966 2.50023C22.5354 3.53909 22.8977 5.06035 22.8977 6.89912V11.0991C22.8977 12.9379 22.5354 14.4592 21.4966 15.498C20.4577 16.5369 18.9364 16.8991 17.0977 16.8991H15.9977C15.5006 16.8991 15.0977 16.4962 15.0977 15.9991V12.8991C15.0977 11.2379 14.7599 10.3092 14.2238 9.77302C13.6876 9.23688 12.7589 8.89912 11.0977 8.89912H7.99766C7.5006 8.89912 7.09766 8.49618 7.09766 7.99912V6.89912C7.09766 5.06035 7.4599 3.53909 8.49876 2.50023Z" fill="black"/>
</svg>
