<svg width="24" height="24" viewBox="0 0 24 24" fill="none" xmlns="http://www.w3.org/2000/svg">
<path fill-rule="evenodd" clip-rule="evenodd" d="M3.09467 3.09467C4.42914 1.7602 6.42603 1.25 9 1.25H11C11.4142 1.25 11.75 1.58579 11.75 2C11.75 2.41421 11.4142 2.75 11 2.75H9C6.57397 2.75 5.07086 3.2398 4.15533 4.15533C3.2398 5.07086 2.75 6.57397 2.75 9V15C2.75 17.426 3.2398 18.9291 4.15533 19.8447C5.07086 20.7602 6.57397 21.25 9 21.25H15C17.426 21.25 18.9291 20.7602 19.8447 19.8447C20.7602 18.9291 21.25 17.426 21.25 15V13C21.25 12.5858 21.5858 12.25 22 12.25C22.4142 12.25 22.75 12.5858 22.75 13V15C22.75 17.574 22.2398 19.5709 20.9053 20.9053C19.5709 22.2398 17.574 22.75 15 22.75H9C6.42603 22.75 4.42914 22.2398 3.09467 20.9053C1.7602 19.5709 1.25 17.574 1.25 15V9C1.25 6.42603 1.7602 4.42914 3.09467 3.09467Z" fill="black"/>
<path fill-rule="evenodd" clip-rule="evenodd" d="M18.1964 1.0135C19.3098 0.904216 20.4136 1.39315 21.51 2.48958C22.6065 3.58602 23.0954 4.68983 22.9861 5.80318C22.8807 6.87719 22.233 7.76732 21.51 8.49024L13.6213 16.3789C13.3961 16.5969 13.1018 16.7873 12.8178 16.93C12.5354 17.0719 12.2028 17.1971 11.8858 17.2424L8.87196 17.6729C8.12987 17.775 7.41984 17.5724 6.9217 17.0763C6.42249 16.5791 6.2183 15.8689 6.32744 15.1225C6.32751 15.122 6.32759 15.1215 6.32766 15.121L6.7569 12.1163C6.75696 12.1158 6.75703 12.1154 6.75709 12.1149C6.80213 11.7937 6.92665 11.4587 7.06959 11.1744C7.21283 10.8894 7.40569 10.5933 7.62938 10.3696L15.5094 2.48958C16.2323 1.76666 17.1224 1.11893 18.1964 1.0135ZM18.343 2.50633C17.787 2.5609 17.2071 2.91317 16.57 3.55024L8.69004 11.4302C8.61372 11.5066 8.50658 11.6555 8.40982 11.848C8.31296 12.0407 8.25763 12.2152 8.24251 12.3236L8.24217 12.326L7.81217 15.336L7.81176 15.3388C7.76139 15.6819 7.86226 15.896 7.98021 16.0135C8.09937 16.1322 8.31879 16.2344 8.66568 16.1872C8.66627 16.1871 8.66686 16.187 8.66746 16.1869L11.6736 15.7575C11.7766 15.7427 11.949 15.6879 12.1441 15.5898C12.3349 15.4939 12.4889 15.3861 12.5745 15.3045L20.4494 7.42958C21.0864 6.79251 21.4387 6.21264 21.4933 5.65665C21.544 5.14 21.3529 4.45381 20.4494 3.55024C19.5458 2.64668 18.8596 2.45561 18.343 2.50633Z" fill="black"/>
<path fill-rule="evenodd" clip-rule="evenodd" d="M14.7079 3.42793C15.1067 3.31613 15.5207 3.54881 15.6325 3.94765C16.2316 6.08476 17.9044 7.75922 20.0548 8.3685C20.4533 8.48141 20.6849 8.89602 20.5719 9.29455C20.459 9.69307 20.0444 9.9246 19.6459 9.81169C16.9963 9.06096 14.9291 6.99542 14.1882 4.35254C14.0764 3.9537 14.3091 3.53974 14.7079 3.42793Z" fill="black"/>
</svg>
