<svg width="24" height="24" viewBox="0 0 24 24" fill="none" xmlns="http://www.w3.org/2000/svg">
<path fill-rule="evenodd" clip-rule="evenodd" d="M15.5176 2.43775C16.6843 2.28855 17.8647 2.76567 19.0642 3.89422L19.0655 3.89552C20.269 5.03361 20.8168 6.1881 20.7346 7.36399C20.6552 8.50024 19.9965 9.46195 19.2454 10.2555M19.2454 10.2555L11.0395 18.9412C10.8081 19.1931 10.4966 19.4065 10.2013 19.5643C9.90225 19.7243 9.55628 19.8611 9.23149 19.9189L9.2265 19.9197L6.00765 20.4695C5.22708 20.6041 4.47858 20.409 3.94538 19.9034C3.41293 19.3984 3.17764 18.6621 3.2648 17.8776L3.26506 17.8753L3.63666 14.6213C3.67982 14.2976 3.80004 13.9473 3.94175 13.6435C4.08295 13.3407 4.2756 13.0196 4.50358 12.7769L4.50504 12.7754L12.715 4.08538C13.4666 3.2915 14.3901 2.58192 15.5176 2.43775M13.8049 5.11605C13.8047 5.11618 13.805 5.11591 13.8049 5.11605L5.59685 13.8039C5.59668 13.8041 5.59702 13.8038 5.59685 13.8039C5.51488 13.8914 5.40228 14.0607 5.30119 14.2774C5.20193 14.4903 5.14231 14.6872 5.12444 14.8138L4.75563 18.0433C4.75559 18.0436 4.75555 18.0439 4.75552 18.0443C4.71301 18.4292 4.83264 18.6776 4.97755 18.815C5.12185 18.9518 5.37335 19.0568 5.75279 18.9913L5.75394 18.9911L8.97105 18.4416C9.09632 18.419 9.28934 18.351 9.4941 18.2415C9.70168 18.1306 9.85783 18.0109 9.936 17.9251L9.94496 17.9153L18.155 9.22538C18.8237 8.51904 19.1952 7.87538 19.2383 7.25939C19.2786 6.68293 19.0416 5.93767 18.0357 4.98613C17.0354 4.04514 16.281 3.85234 15.7078 3.92563C15.0954 4.00394 14.4732 4.41017 13.8049 5.11605Z" fill="black"/>
<path fill-rule="evenodd" clip-rule="evenodd" d="M11.7743 5.30885C12.1836 5.24509 12.5671 5.52518 12.6308 5.93446C13.0079 8.35508 14.9725 10.2077 17.4149 10.4537C17.827 10.4952 18.1275 10.8629 18.086 11.2751C18.0445 11.6872 17.6767 11.9876 17.2646 11.9461C14.147 11.6321 11.6316 9.26475 11.1487 6.16537C11.0849 5.75609 11.365 5.37262 11.7743 5.30885Z" fill="black"/>
</svg>
