<svg width="24" height="24" viewBox="0 0 24 24" fill="#000000" xmlns="http://www.w3.org/2000/svg">
<path fill-rule="evenodd" clip-rule="evenodd" d="M3.98506 5.34613C3.34412 5.9413 2.89766 6.92066 2.89766 8.49912V15.4991C2.89766 17.0776 3.34412 18.0569 3.98506 18.6521C4.63808 19.2585 5.63562 19.5991 6.99766 19.5991H16.9977C18.3597 19.5991 19.3572 19.2585 20.0103 18.6521C20.6512 18.0569 21.0977 17.0776 21.0977 15.4991V8.49912C21.0977 6.92066 20.6512 5.9413 20.0103 5.34613C19.3572 4.73976 18.3597 4.39912 16.9977 4.39912H6.99766C5.63562 4.39912 4.63808 4.73976 3.98506 5.34613ZM2.76025 4.02711C3.85723 3.00848 5.35969 2.59912 6.99766 2.59912H16.9977C18.6356 2.59912 20.1381 3.00848 21.2351 4.02711C22.3441 5.05694 22.8977 6.57758 22.8977 8.49912V15.4991C22.8977 17.4207 22.3441 18.9413 21.2351 19.9711C20.1381 20.9898 18.6356 21.3991 16.9977 21.3991H6.99766C5.35969 21.3991 3.85723 20.9898 2.76025 19.9711C1.65119 18.9413 1.09766 17.4207 1.09766 15.4991V8.49912C1.09766 6.57758 1.65119 5.05694 2.76025 4.02711Z" fill="black"/>
<path fill-rule="evenodd" clip-rule="evenodd" d="M17.7048 8.43845C18.015 8.82683 17.9517 9.39315 17.5633 9.70335L14.4321 12.2042C13.0741 13.2854 10.9191 13.2854 9.56103 12.2042L9.55881 12.2025L6.43882 9.70247C6.05093 9.39166 5.98844 8.82525 6.29925 8.43736C6.61007 8.04946 7.17648 7.98698 7.56437 8.29779L10.6821 10.796C10.6825 10.7963 10.6828 10.7965 10.6831 10.7968C11.385 11.3547 12.6088 11.3546 13.3105 10.7964C13.3107 10.7963 13.3103 10.7966 13.3105 10.7964L16.4399 8.29691C16.8283 7.98671 17.3946 8.05008 17.7048 8.43845Z" fill="black"/>
</svg>
