<svg width="24" height="24" viewBox="0 0 24 24" fill="none" xmlns="http://www.w3.org/2000/svg">
<path fill-rule="evenodd" clip-rule="evenodd" d="M11.8803 3.18994C12.0792 3.18994 12.27 3.26896 12.4106 3.40961L14.9706 5.96961C15.2635 6.2625 15.2635 6.73738 14.9706 7.03027C14.6777 7.32316 14.2029 7.32316 13.91 7.03027L11.8803 5.0006L9.85064 7.03027C9.55775 7.32316 9.08288 7.32316 8.78998 7.03027C8.49709 6.73738 8.49709 6.2625 8.78998 5.96961L11.35 3.40961C11.4906 3.26896 11.6814 3.18994 11.8803 3.18994Z" fill="black"/>
<path fill-rule="evenodd" clip-rule="evenodd" d="M11.8799 3.25977C12.2941 3.25977 12.6299 3.59555 12.6299 4.00977V14.1798C12.6299 14.594 12.2941 14.9298 11.8799 14.9298C11.4657 14.9298 11.1299 14.594 11.1299 14.1798V4.00977C11.1299 3.59555 11.4657 3.25977 11.8799 3.25977Z" fill="black"/>
<path fill-rule="evenodd" clip-rule="evenodd" d="M4 11.25C4.41421 11.25 4.75 11.5858 4.75 12C4.75 14.0406 5.44112 15.8486 6.66877 17.141C7.89078 18.4274 9.68843 19.25 12 19.25C14.3116 19.25 16.1092 18.4274 17.3312 17.141C18.5589 15.8486 19.25 14.0406 19.25 12C19.25 11.5858 19.5858 11.25 20 11.25C20.4142 11.25 20.75 11.5858 20.75 12C20.75 14.3794 19.9411 16.5714 18.4188 18.174C16.8908 19.7826 14.6884 20.75 12 20.75C9.31157 20.75 7.10922 19.7826 5.58123 18.174C4.05888 16.5714 3.25 14.3794 3.25 12C3.25 11.5858 3.58579 11.25 4 11.25Z" fill="black"/>
</svg>
