<svg width="24" height="24" viewBox="0 0 24 24" fill="#000000" xmlns="http://www.w3.org/2000/svg">
<path fill-rule="evenodd" clip-rule="evenodd" d="M20.7628 3.23724C21.0791 3.55357 21.0791 4.06643 20.7628 4.38276L13.3828 11.7628C13.0664 12.0791 12.5536 12.0791 12.2372 11.7628C11.9209 11.4464 11.9209 10.9336 12.2372 10.6172L19.6172 3.23724C19.9336 2.92092 20.4464 2.92092 20.7628 3.23724Z" fill="black"/>
<path fill-rule="evenodd" clip-rule="evenodd" d="M16 2.81818C16 2.36631 16.3663 2 16.8182 2H21.1818C21.6337 2 22 2.36631 22 2.81818V7.18182C22 7.63369 21.6337 8 21.1818 8C20.7299 8 20.3636 7.63369 20.3636 7.18182V3.63636H16.8182C16.3663 3.63636 16 3.27005 16 2.81818Z" fill="black"/>
<path fill-rule="evenodd" clip-rule="evenodd" d="M3.73266 3.73266C4.99538 2.46995 6.87269 2 9.24771 2H11.0826C11.5386 2 11.9083 2.36967 11.9083 2.82569C11.9083 3.2817 11.5386 3.65138 11.0826 3.65138H9.24771C7.03557 3.65138 5.70187 4.09886 4.90036 4.90036C4.09886 5.70187 3.65138 7.03557 3.65138 9.24771V14.7523C3.65138 16.9644 4.09886 18.2981 4.90036 19.0996C5.70187 19.9011 7.03557 20.3486 9.24771 20.3486H14.7523C16.9644 20.3486 18.2981 19.9011 19.0996 19.0996C19.9011 18.2981 20.3486 16.9644 20.3486 14.7523V12.9174C20.3486 12.4614 20.7183 12.0917 21.1743 12.0917C21.6303 12.0917 22 12.4614 22 12.9174V14.7523C22 17.1273 21.5301 19.0046 20.2673 20.2673C19.0046 21.5301 17.1273 22 14.7523 22H9.24771C6.87269 22 4.99538 21.5301 3.73266 20.2673C2.46995 19.0046 2 17.1273 2 14.7523V9.24771C2 6.87269 2.46995 4.99538 3.73266 3.73266Z" fill="black"/>
</svg>
