<svg width="24" height="24" viewBox="0 0 24 24" fill="none" xmlns="http://www.w3.org/2000/svg">
<path fill-rule="evenodd" clip-rule="evenodd" d="M5.40039 2.8501C4.73837 2.8501 4.15039 3.39014 4.15039 4.2001V6.5001C4.15039 6.65686 4.20949 6.92343 4.34727 7.23081C4.48216 7.5317 4.66013 7.79918 4.83072 7.96977L4.84414 7.98354L8.64414 11.9835C8.65878 11.9989 8.67276 12.015 8.68604 12.0316C8.93967 12.3486 9.17429 12.7654 9.34675 13.1966C9.51759 13.6237 9.65039 14.122 9.65039 14.6001V19.9001C9.65039 20.8669 10.7639 21.4746 11.6017 20.9648L12.9948 20.0692C13.0013 20.065 13.0079 20.061 13.0145 20.057C13.1055 20.0024 13.2482 19.8556 13.3725 19.6166C13.4944 19.3822 13.5504 19.1509 13.5504 19.0001V14.7001C13.5504 14.1847 13.6768 13.6353 13.885 13.1447C14.0902 12.6609 14.3988 12.1784 14.8112 11.8315L19.0846 8.05504C19.2541 7.88051 19.4504 7.59269 19.6051 7.25225C19.7652 6.90002 19.8504 6.55858 19.8504 6.3001V4.1001C19.8504 3.41431 19.2862 2.8501 18.6004 2.8501H5.40039ZM2.65039 4.2001C2.65039 2.61005 3.86241 1.3501 5.40039 1.3501H18.6004C20.1146 1.3501 21.3504 2.58588 21.3504 4.1001V6.3001C21.3504 6.84162 21.1856 7.40018 20.9707 7.87295C20.7549 8.34774 20.4579 8.80322 20.1307 9.13043C20.1198 9.14133 20.1086 9.15189 20.097 9.1621L15.797 12.9621C15.7916 12.9669 15.7861 12.9716 15.7805 12.9763C15.5975 13.1288 15.4091 13.3928 15.2658 13.7305C15.124 14.0649 15.0504 14.4154 15.0504 14.7001V19.0001C15.0504 19.4493 14.9064 19.918 14.7033 20.3086C14.5044 20.691 14.2009 21.0904 13.7975 21.3364L12.406 22.231L12.3935 22.2388C10.6319 23.3229 8.15039 22.1311 8.15039 19.9001V14.6001C8.15039 14.3782 8.08319 14.0765 7.95403 13.7536C7.83169 13.4478 7.67454 13.1747 7.53274 12.9915L3.76277 9.02311C3.43664 8.69463 3.16722 8.26536 2.97851 7.84439C2.7913 7.42676 2.65039 6.94333 2.65039 6.5001V4.2001Z" fill="black"/>
</svg>
