<svg width="24" height="24" viewBox="0 0 24 24" fill="#000000" xmlns="http://www.w3.org/2000/svg">
<path fill-rule="evenodd" clip-rule="evenodd" d="M4.88579 3.30149C4.51985 3.63876 4.25 4.17684 4.25 5V21.25H16.75V5C16.75 4.17684 16.4802 3.63876 16.1142 3.30149C15.7383 2.95499 15.1836 2.75 14.5 2.75H6.5C5.81637 2.75 5.26175 2.95499 4.88579 3.30149ZM3.86921 2.19851C4.57825 1.54501 5.52363 1.25 6.5 1.25H14.5C15.4764 1.25 16.4217 1.54501 17.1308 2.19851C17.8498 2.86124 18.25 3.82316 18.25 5V22C18.25 22.4142 17.9142 22.75 17.5 22.75H3.5C3.08579 22.75 2.75 22.4142 2.75 22V5C2.75 3.82316 3.15015 2.86124 3.86921 2.19851Z" fill="black"/>
<path fill-rule="evenodd" clip-rule="evenodd" d="M1.25 22C1.25 21.5858 1.58579 21.25 2 21.25H19C19.4142 21.25 19.75 21.5858 19.75 22C19.75 22.4142 19.4142 22.75 19 22.75H2C1.58579 22.75 1.25 22.4142 1.25 22Z" fill="black"/>
<path fill-rule="evenodd" clip-rule="evenodd" d="M6.562 4.84879C7.0881 4.38989 7.76273 4.24023 8.39 4.24023H12.62C13.2473 4.24023 13.9219 4.38989 14.448 4.84879C14.9928 5.32395 15.26 6.02625 15.26 6.88023V8.11023C15.26 8.96421 14.9928 9.66651 14.448 10.1417C13.9219 10.6006 13.2473 10.7502 12.62 10.7502H8.39C7.76273 10.7502 7.0881 10.6006 6.562 10.1417C6.01725 9.66651 5.75 8.96421 5.75 8.11023V6.88023C5.75 6.02625 6.01725 5.32395 6.562 4.84879ZM7.548 5.97918C7.40775 6.10152 7.25 6.34421 7.25 6.88023V8.11023C7.25 8.64625 7.40775 8.88895 7.548 9.01128C7.7069 9.14988 7.97727 9.25023 8.39 9.25023H12.62C13.0327 9.25023 13.3031 9.14988 13.462 9.01128C13.6022 8.88895 13.76 8.64625 13.76 8.11023V6.88023C13.76 6.34421 13.6022 6.10152 13.462 5.97918C13.3031 5.84058 13.0327 5.74023 12.62 5.74023H8.39C7.97727 5.74023 7.7069 5.84058 7.548 5.97918Z" fill="black"/>
<path fill-rule="evenodd" clip-rule="evenodd" d="M5.75 13C5.75 12.5858 6.08579 12.25 6.5 12.25H9.5C9.91421 12.25 10.25 12.5858 10.25 13C10.25 13.4142 9.91421 13.75 9.5 13.75H6.5C6.08579 13.75 5.75 13.4142 5.75 13Z" fill="black"/>
<path fill-rule="evenodd" clip-rule="evenodd" d="M19.3292 8.66475C19.5144 8.29427 19.9649 8.1441 20.3354 8.32934L22.3354 9.32934C22.5895 9.45639 22.75 9.71609 22.75 10.0002V16.0002C22.75 16.4137 22.4152 16.7492 22.0017 16.7502L17.5017 16.7602C17.0875 16.7611 16.7509 16.426 16.75 16.0118C16.7491 15.5976 17.0841 15.2611 17.4983 15.2602L21.25 15.2518V10.4637L19.6646 9.67098C19.2941 9.48574 19.1439 9.03524 19.3292 8.66475Z" fill="black"/>
</svg>
