<svg width="24" height="24" viewBox="0 0 24 24" fill="none" xmlns="http://www.w3.org/2000/svg">
<g clip-path="url(#clip0_2856_20370)">
<path d="M23.9888 12.2247C23.9888 11.2414 23.9071 10.5239 23.7304 9.77979H12.2393V14.2178H18.9843C18.8484 15.3207 18.114 16.9816 16.4821 18.0977L16.4592 18.2463L20.0925 20.9965L20.3442 21.021C22.656 18.9349 23.9888 15.8654 23.9888 12.2247Z" fill="#4285F4"/>
<path d="M12.2393 23.9173C15.5438 23.9173 18.3179 22.8543 20.3442 21.0206L16.4821 18.0973C15.4486 18.8016 14.0615 19.2932 12.2393 19.2932C9.00273 19.2932 6.25576 17.2071 5.27654 14.3237L5.13301 14.3356L1.35507 17.1925L1.30566 17.3267C3.31829 21.2332 7.45238 23.9173 12.2393 23.9173Z" fill="#34A853"/>
<path d="M5.27634 14.3238C5.01797 13.5797 4.86844 12.7824 4.86844 11.9586C4.86844 11.1347 5.01797 10.3375 5.26275 9.59342L5.25591 9.43494L1.43062 6.53223L1.30547 6.59039C0.475969 8.21149 0 10.0319 0 11.9586C0 13.8853 0.475969 15.7056 1.30547 17.3267L5.27634 14.3238Z" fill="#FBBC05"/>
<path d="M12.2393 4.62403C14.5374 4.62403 16.0877 5.59402 16.9717 6.40461L20.4258 3.10928C18.3044 1.1826 15.5438 0 12.2393 0C7.45238 0 3.31829 2.68406 1.30566 6.59056L5.26295 9.59359C6.25576 6.7102 9.00273 4.62403 12.2393 4.62403Z" fill="#EB4335"/>
</g>
<defs>
<clipPath id="clip0_2856_20370">
<rect width="24" height="24" fill="white"/>
</clipPath>
</defs>
</svg>
