<svg width="24" height="24" viewBox="0 0 24 24" fill="#000000" xmlns="http://www.w3.org/2000/svg">
<path fill-rule="evenodd" clip-rule="evenodd" d="M4.45938 14.9604C4.75198 14.6672 5.22685 14.6668 5.52004 14.9594L10.54 19.9694C10.8332 20.262 10.8337 20.7369 10.5411 21.03C10.2485 21.3232 9.77362 21.3237 9.48043 21.0311L4.46043 16.0211C4.16725 15.7285 4.16677 15.2536 4.45938 14.9604Z" fill="black"/>
<path fill-rule="evenodd" clip-rule="evenodd" d="M10.0098 2.75C10.424 2.75 10.7598 3.08579 10.7598 3.5V20.5C10.7598 20.9142 10.424 21.25 10.0098 21.25C9.59555 21.25 9.25977 20.9142 9.25977 20.5V3.5C9.25977 3.08579 9.59555 2.75 10.0098 2.75Z" fill="black"/>
<path fill-rule="evenodd" clip-rule="evenodd" d="M13.9902 2.75C14.4044 2.75 14.7402 3.08579 14.7402 3.5V20.5C14.7402 20.9142 14.4044 21.25 13.9902 21.25C13.576 21.25 13.2402 20.9142 13.2402 20.5V3.5C13.2402 3.08579 13.576 2.75 13.9902 2.75Z" fill="black"/>
</svg>
