<svg width="24" height="24" viewBox="0 0 24 24" fill="#000000" xmlns="http://www.w3.org/2000/svg">
<path fill-rule="evenodd" clip-rule="evenodd" d="M1.25 12C1.25 6.06579 6.06579 1.25 12 1.25C12.4142 1.25 12.75 1.58579 12.75 2C12.75 2.41421 12.4142 2.75 12 2.75C6.89421 2.75 2.75 6.89421 2.75 12C2.75 17.1058 6.89421 21.25 12 21.25C17.1058 21.25 21.25 17.1058 21.25 12C21.25 11.5858 21.5858 11.25 22 11.25C22.4142 11.25 22.75 11.5858 22.75 12C22.75 17.9342 17.9342 22.75 12 22.75C6.06579 22.75 1.25 17.9342 1.25 12Z" fill="black"/>
<path fill-rule="evenodd" clip-rule="evenodd" d="M22.5301 1.46967C22.823 1.76256 22.823 2.23744 22.5301 2.53033L14.3301 10.7303C14.0372 11.0232 13.5624 11.0232 13.2695 10.7303C12.9766 10.4374 12.9766 9.96256 13.2695 9.66967L21.4695 1.46967C21.7624 1.17678 22.2372 1.17678 22.5301 1.46967Z" fill="black"/>
<path fill-rule="evenodd" clip-rule="evenodd" d="M13 5.41992C13.4142 5.41992 13.75 5.75571 13.75 6.16992V10.2499H17.83C18.2442 10.2499 18.58 10.5857 18.58 10.9999C18.58 11.4141 18.2442 11.7499 17.83 11.7499H13C12.5858 11.7499 12.25 11.4141 12.25 10.9999V6.16992C12.25 5.75571 12.5858 5.41992 13 5.41992Z" fill="black"/>
</svg>
