<svg width="24" height="24" viewBox="0 0 24 24" fill="#000000" xmlns="http://www.w3.org/2000/svg">
<path fill-rule="evenodd" clip-rule="evenodd" d="M19.2502 4.75105C16.5824 2.09225 12.2666 2.09354 9.61 4.75015L9.60871 4.75144C7.75592 6.59524 7.19424 9.25189 7.9165 11.5993C7.9982 11.8648 7.92644 12.1537 7.73 12.3502L3.03501 17.0451C2.96934 17.1142 2.88035 17.257 2.81618 17.4495C2.7509 17.6453 2.73858 17.8108 2.75182 17.9016L2.75269 17.9076L3.05176 20.081C3.07986 20.2569 3.18508 20.465 3.36247 20.6432C3.54121 20.8228 3.74448 20.9233 3.91192 20.9468L6.0979 21.2477C6.19719 21.2621 6.36627 21.2503 6.55595 21.1889C6.74696 21.127 6.88054 21.0402 6.94171 20.9772L6.94984 20.9689L11.6599 16.2689C11.8572 16.072 12.1475 16.0008 12.4135 16.084C14.7456 16.8134 17.4032 16.246 19.2599 14.399C21.9163 11.742 21.9161 7.40793 19.2502 4.75105ZM8.54998 3.68885C11.7934 0.446106 17.0571 0.447609 20.3091 3.6886C23.563 6.93155 23.563 12.2171 20.32 15.4602L20.3187 15.4614C18.172 17.5977 15.1448 18.3307 12.4088 17.6407L8.01301 22.0272C7.73471 22.3116 7.36545 22.5033 7.01839 22.6158C6.66915 22.729 6.26463 22.7871 5.88493 22.7325C5.88377 22.7323 5.8826 22.7321 5.88144 22.732L3.70742 22.4328C3.15503 22.3561 2.66279 22.0665 2.29937 21.7014C1.93576 21.3361 1.65126 20.8463 1.56827 20.3031L1.56659 20.2921L1.26752 18.1181C1.26736 18.1169 1.26719 18.1158 1.26703 18.1147C1.21115 17.7265 1.27876 17.3183 1.39316 16.9752C1.50806 16.6305 1.69741 16.2695 1.96148 15.9975L1.96928 15.9894L6.36011 11.5987C5.6789 8.85806 6.39952 5.82934 8.54998 3.68885Z" fill="black"/>
<path fill-rule="evenodd" clip-rule="evenodd" d="M6.35932 16.9599C6.65221 16.667 7.12709 16.667 7.41998 16.9599L9.71998 19.2599C10.0129 19.5528 10.0129 20.0277 9.71998 20.3206C9.42708 20.6135 8.95221 20.6135 8.65932 20.3206L6.35932 18.0206C6.06643 17.7277 6.06643 17.2528 6.35932 16.9599Z" fill="black"/>
<path fill-rule="evenodd" clip-rule="evenodd" d="M14.5 8.75C14.0858 8.75 13.75 9.08579 13.75 9.5C13.75 9.91421 14.0858 10.25 14.5 10.25C14.9142 10.25 15.25 9.91421 15.25 9.5C15.25 9.08579 14.9142 8.75 14.5 8.75ZM12.25 9.5C12.25 8.25736 13.2574 7.25 14.5 7.25C15.7426 7.25 16.75 8.25736 16.75 9.5C16.75 10.7426 15.7426 11.75 14.5 11.75C13.2574 11.75 12.25 10.7426 12.25 9.5Z" fill="black"/>
</svg>
