<svg width="24" height="24" viewBox="0 0 24 24" fill="#000000" xmlns="http://www.w3.org/2000/svg">
<path fill-rule="evenodd" clip-rule="evenodd" d="M11.7895 3.44482C11.4175 3.44482 11.087 3.50986 10.876 3.60434L10.8739 3.60528L4.97226 6.22601C4.19761 6.56777 4.14453 6.87698 4.14453 6.90982C4.14453 6.94267 4.19761 7.25188 4.97226 7.59364L4.97392 7.59437L10.876 10.2153C11.087 10.3098 11.4175 10.3748 11.7895 10.3748C12.1615 10.3748 12.492 10.3098 12.703 10.2153L12.7051 10.2144L18.6051 7.59437L18.6068 7.59364C19.3815 7.25188 19.4345 6.94267 19.4345 6.90982C19.4345 6.87698 19.3815 6.56777 18.6068 6.22601L12.7051 3.60528L12.703 3.60434C12.492 3.50986 12.1615 3.44482 11.7895 3.44482ZM13.3149 2.23481C12.8561 2.02965 12.3021 1.94482 11.7895 1.94482C11.2769 1.94482 10.7229 2.02965 10.2642 2.23481C10.2638 2.23498 10.2634 2.23514 10.263 2.23531L4.3668 4.85364C4.36707 4.85352 4.36654 4.85375 4.3668 4.85364C3.4418 5.26192 2.64453 5.94795 2.64453 6.90982C2.64453 7.87167 3.44095 8.55733 4.36591 8.96562C4.36561 8.96549 4.36621 8.96575 4.36591 8.96562L10.263 11.5843C10.2635 11.5845 10.2639 11.5847 10.2643 11.5849C10.7231 11.79 11.277 11.8748 11.7895 11.8748C12.3021 11.8748 12.856 11.79 13.3148 11.5849C13.3152 11.5847 13.3156 11.5845 13.316 11.5843L19.2123 8.96601C19.212 8.96613 19.2125 8.9659 19.2123 8.96601C20.1373 8.55773 20.9345 7.87171 20.9345 6.90982C20.9345 5.94791 20.138 5.26222 19.213 4.85394C19.2132 4.85404 19.2127 4.85384 19.213 4.85394L13.316 2.23531C13.3157 2.23514 13.3153 2.23498 13.3149 2.23481Z" fill="black"/>
<path fill-rule="evenodd" clip-rule="evenodd" d="M3 10.25C3.41421 10.25 3.75 10.5858 3.75 11C3.75 11.2434 3.84628 11.5559 4.0399 11.8535C4.23351 12.151 4.48007 12.3655 4.70295 12.4639L4.70479 12.4647L11.4934 15.4841C11.4936 15.4842 11.4931 15.484 11.4934 15.4841C11.8219 15.6291 12.1898 15.6269 12.5017 15.4863L12.5052 15.4847L19.2952 12.4647L19.2971 12.4639C19.5199 12.3655 19.7665 12.151 19.9601 11.8535C20.1537 11.5559 20.25 11.2434 20.25 11C20.25 10.5858 20.5858 10.25 21 10.25C21.4142 10.25 21.75 10.5858 21.75 11C21.75 11.5966 21.5313 12.1891 21.2174 12.6715C20.9037 13.1537 20.4505 13.5941 19.9038 13.8357C19.9035 13.8358 19.9041 13.8356 19.9038 13.8357L13.1183 16.8537C13.1177 16.854 13.117 16.8543 13.1163 16.8546C12.4089 17.1729 11.5973 17.1702 10.8866 16.8559L4.09705 13.8361C4.09671 13.8359 4.09637 13.8358 4.09603 13.8356C3.54937 13.594 3.0963 13.1537 2.7826 12.6715C2.46872 12.1891 2.25 11.5966 2.25 11C2.25 10.5858 2.58579 10.25 3 10.25Z" fill="black"/>
<path fill-rule="evenodd" clip-rule="evenodd" d="M3 15.25C3.41421 15.25 3.75 15.5858 3.75 16C3.75 16.6308 4.12295 17.2043 4.70554 17.4651C4.70572 17.4651 4.70535 17.465 4.70554 17.4651L11.4934 20.4841C11.4936 20.4842 11.4931 20.484 11.4934 20.4841C11.8219 20.6291 12.1898 20.6269 12.5017 20.4863L12.5052 20.4847L19.2939 17.4653C19.2941 17.4652 19.2937 17.4654 19.2939 17.4653C19.8765 17.2046 20.25 16.6308 20.25 16C20.25 15.5858 20.5858 15.25 21 15.25C21.4142 15.25 21.75 15.5858 21.75 16C21.75 17.229 21.0232 18.3353 19.9061 18.8347L19.9048 18.8353L13.1183 21.8537C13.1177 21.854 13.117 21.8543 13.1163 21.8546C12.4089 22.1729 11.5973 22.1702 10.8866 21.8559L4.0939 18.8347C2.97681 18.3353 2.25 17.229 2.25 16C2.25 15.5858 2.58579 15.25 3 15.25Z" fill="black"/>
</svg>
