<svg width="24" height="24" viewBox="0 0 24 24" fill="#000000" xmlns="http://www.w3.org/2000/svg">
<path d="M18 18.8617H17.24C16.44 18.8617 15.68 19.1717 15.12 19.7317L13.41 21.4217C12.63 22.1917 11.36 22.1917 10.58 21.4217L8.87 19.7317C8.31 19.1717 7.54 18.8617 6.75 18.8617H6C4.34 18.8617 3 17.5317 3 15.8917V4.98169C3 3.34169 4.34 2.01172 6 2.01172H18C19.66 2.01172 21 3.34169 21 4.98169V15.8917C21 17.5217 19.66 18.8617 18 18.8617Z" stroke="#292D32" stroke-width="1.5" stroke-miterlimit="10" stroke-linecap="round" stroke-linejoin="round"/>
<path fill-rule="evenodd" clip-rule="evenodd" d="M10 7.75C9.03617 7.75 8.25 8.53227 8.25 9.51001C8.25 10.8349 8.86015 11.9067 9.65867 12.7231C10.4548 13.5371 11.3935 14.0481 11.9423 14.2432C11.9444 14.2435 11.947 14.2439 11.9502 14.2444C11.9644 14.2462 11.9831 14.2475 12.0037 14.2475C12.0245 14.2475 12.0416 14.2462 12.0529 14.2447C12.0533 14.2446 12.0536 14.2446 12.0539 14.2446C12.6016 14.0507 13.5403 13.5394 14.3372 12.7235C15.1344 11.9072 15.7454 10.8349 15.75 9.50888C15.7494 8.53167 14.9635 7.75 14 7.75C13.4265 7.75 12.924 8.02041 12.5988 8.45157C12.4571 8.6395 12.2354 8.75 12 8.75C11.7646 8.75 11.5429 8.6395 11.4012 8.45157C11.076 8.02041 10.5735 7.75 10 7.75ZM6.75 9.51001C6.75 7.70775 8.20383 6.25 10 6.25C10.7572 6.25 11.4493 6.50687 12 6.93816C12.5507 6.50687 13.2428 6.25 14 6.25C15.7962 6.25 17.25 7.70775 17.25 9.51001L17.25 9.51239C17.2442 11.3358 16.3953 12.7631 15.4103 13.7716C14.4341 14.771 13.2806 15.4073 12.5253 15.6688L12.5172 15.6716L12.5172 15.6715C12.3405 15.7304 12.1539 15.7475 12.0037 15.7475C11.8513 15.7475 11.669 15.7299 11.4963 15.6759C11.4891 15.6736 11.4818 15.6712 11.4747 15.6688C10.72 15.4075 9.56396 14.7715 8.58633 13.7719C7.59985 12.7633 6.75 11.3351 6.75 9.51001Z" fill="#292D32"/>
</svg>
