<svg width="24" height="24" viewBox="0 0 24 24" fill="#000000" xmlns="http://www.w3.org/2000/svg">
<path d="M8.4649 11.2931C9.5979 10.1601 11.5739 10.1601 12.7069 11.2931L13.4139 12.0001L14.8279 10.5861L14.1209 9.87906C13.1779 8.93506 11.9219 8.41406 10.5859 8.41406C9.2499 8.41406 7.9939 8.93506 7.0509 9.87906L4.9289 12.0001C3.9932 12.9388 3.46777 14.2101 3.46777 15.5356C3.46777 16.861 3.9932 18.1323 4.9289 19.0711C5.39277 19.5356 5.94387 19.9039 6.55052 20.1548C7.15717 20.4057 7.80742 20.5342 8.4639 20.5331C9.12056 20.5344 9.77102 20.406 10.3779 20.1551C10.9847 19.9042 11.5359 19.5358 11.9999 19.0711L12.7069 18.3641L11.2929 16.9501L10.5859 17.6571C10.0224 18.2181 9.25957 18.533 8.4644 18.533C7.66923 18.533 6.90643 18.2181 6.3429 17.6571C5.7814 17.0938 5.46611 16.3309 5.46611 15.5356C5.46611 14.7402 5.7814 13.9773 6.3429 13.4141L8.4649 11.2931Z" fill="black"/>
<path d="M11.9999 4.92875L11.2929 5.63575L12.7069 7.04975L13.4139 6.34275C13.9774 5.78174 14.7402 5.46678 15.5354 5.46678C16.3305 5.46678 17.0933 5.78174 17.6569 6.34275C18.2184 6.90602 18.5337 7.66892 18.5337 8.46425C18.5337 9.25958 18.2184 10.0225 17.6569 10.5858L15.5349 12.7067C14.4019 13.8398 12.4259 13.8398 11.2929 12.7067L10.5859 11.9998L9.17188 13.4137L9.87887 14.1208C10.8219 15.0648 12.0779 15.5858 13.4139 15.5858C14.7499 15.5858 16.0059 15.0648 16.9489 14.1208L19.0709 11.9998C20.0066 11.061 20.532 9.78967 20.532 8.46425C20.532 7.13883 20.0066 5.86746 19.0709 4.92875C18.1324 3.99256 16.861 3.4668 15.5354 3.4668C14.2098 3.4668 12.9383 3.99256 11.9999 4.92875Z" fill="black"/>
</svg>
