<svg width="24" height="24" viewBox="0 0 24 24" fill="none" xmlns="http://www.w3.org/2000/svg">
<path fill-rule="evenodd" clip-rule="evenodd" d="M9.83997 9.45406H12.9597V11.0081C13.4091 10.1143 14.5616 9.31126 16.2928 9.31126C19.6117 9.31126 20.3996 11.0904 20.3996 14.3546V20.4001H17.0396V15.098C17.0396 13.2391 16.5902 12.1908 15.4461 12.1908C13.8594 12.1908 13.2 13.3206 13.2 15.0972V20.4001H9.83997V9.45406ZM4.07841 20.2573H7.43841V9.31126H4.07841V20.2573ZM7.91973 5.7421C7.91985 6.02373 7.864 6.30258 7.75541 6.56243C7.64683 6.82229 7.48768 7.05797 7.28721 7.25578C6.88099 7.6595 6.33113 7.88549 5.75841 7.8841C5.1867 7.88371 4.63811 7.65831 4.23129 7.25662C4.03155 7.05814 3.87293 6.82219 3.76454 6.5623C3.65614 6.30241 3.6001 6.02369 3.59961 5.7421C3.59961 5.17342 3.82641 4.6291 4.23213 4.22758C4.63859 3.82535 5.18741 3.59985 5.75925 3.6001C6.33213 3.6001 6.88149 3.82606 7.28721 4.22758C7.69209 4.6291 7.91973 5.17342 7.91973 5.7421Z" fill="black"/>
</svg>
