<svg width="24" height="24" viewBox="0 0 24 24" fill="#000000" xmlns="http://www.w3.org/2000/svg">
<g clip-path="url(#clip0_97_8303)">
<path fill-rule="evenodd" clip-rule="evenodd" d="M8.4076 5.49424C7.81421 6.23089 7.60465 7.30314 7.60465 8.65116V10.3256C7.60465 10.6724 7.32353 10.9535 6.97674 10.9535C6.62996 10.9535 6.34884 10.6724 6.34884 10.3256V8.65116C6.34884 7.22802 6.55788 5.78864 7.42961 4.70645C8.32497 3.59493 9.79951 3 12 3C14.2005 3 15.675 3.59493 16.5704 4.70645C17.4421 5.78864 17.6512 7.22802 17.6512 8.65116V10.3256C17.6512 10.6724 17.37 10.9535 17.0233 10.9535C16.6765 10.9535 16.3953 10.6724 16.3953 10.3256V8.65116C16.3953 7.30314 16.1858 6.23089 15.5924 5.49424C15.0226 4.78693 13.9856 4.25581 12 4.25581C10.0144 4.25581 8.97736 4.78693 8.4076 5.49424Z" fill="black"/>
<path fill-rule="evenodd" clip-rule="evenodd" d="M12 13.8837C11.1908 13.8837 10.5349 14.5397 10.5349 15.3488C10.5349 16.158 11.1908 16.814 12 16.814C12.8092 16.814 13.4651 16.158 13.4651 15.3488C13.4651 14.5397 12.8092 13.8837 12 13.8837ZM9.27907 15.3488C9.27907 13.8461 10.4973 12.6279 12 12.6279C13.5027 12.6279 14.7209 13.8461 14.7209 15.3488C14.7209 16.8516 13.5027 18.0698 12 18.0698C10.4973 18.0698 9.27907 16.8516 9.27907 15.3488Z" fill="black"/>
<path fill-rule="evenodd" clip-rule="evenodd" d="M4.90911 11.6068C4.48089 12.035 4.25581 12.8327 4.25581 14.5116V16.186C4.25581 17.865 4.48089 18.6627 4.90911 19.0909C5.33734 19.5191 6.13505 19.7442 7.81395 19.7442H16.186C17.865 19.7442 18.6627 19.5191 19.0909 19.0909C19.5191 18.6627 19.7442 17.865 19.7442 16.186V14.5116C19.7442 12.8327 19.5191 12.035 19.0909 11.6068C18.6627 11.1786 17.865 10.9535 16.186 10.9535H7.81395C6.13505 10.9535 5.33734 11.1786 4.90911 11.6068ZM4.02112 10.7188C4.84871 9.89121 6.14402 9.69767 7.81395 9.69767H16.186C17.856 9.69767 19.1513 9.89121 19.9789 10.7188C20.8065 11.5464 21 12.8417 21 14.5116V16.186C21 17.856 20.8065 19.1513 19.9789 19.9789C19.1513 20.8065 17.856 21 16.186 21H7.81395C6.14402 21 4.84871 20.8065 4.02112 19.9789C3.19353 19.1513 3 17.856 3 16.186V14.5116C3 12.8417 3.19353 11.5464 4.02112 10.7188Z" fill="black"/>
</g>
<defs>
<clipPath id="clip0_97_8303">
<rect width="24" height="24" fill="white"/>
</clipPath>
</defs>
</svg>
