<svg width="24" height="24" viewBox="0 0 24 24" fill="#000000" xmlns="http://www.w3.org/2000/svg">
<path fill-rule="evenodd" clip-rule="evenodd" d="M11.0755 4.25763C10.2851 4.89898 9.79303 5.93654 9.64767 7.62458C9.61213 8.03727 9.24878 8.34301 8.83609 8.30747C8.4234 8.27193 8.11766 7.90858 8.1532 7.49589C8.31784 5.58393 8.90578 4.08649 10.1304 3.09284C11.3343 2.11599 13.0168 1.74023 15.1104 1.74023H15.2404C17.5496 1.74023 19.3614 2.19802 20.577 3.41365C21.7926 4.62929 22.2504 6.44106 22.2504 8.75023V15.2702C22.2504 17.5794 21.7926 19.3912 20.577 20.6068C19.3614 21.8224 17.5496 22.2802 15.2404 22.2802H15.1104C13.032 22.2802 11.3596 21.9095 10.1582 20.9484C8.93506 19.9699 8.33934 18.4943 8.16367 16.6098C8.12523 16.1974 8.4284 15.8319 8.84082 15.7935C9.25325 15.755 9.61875 16.0582 9.6572 16.4706C9.81153 18.1262 10.3058 19.1456 11.0952 19.7771C11.9063 20.4259 13.1689 20.7802 15.1104 20.7802H15.2404C17.4013 20.7802 18.7195 20.343 19.5164 19.5462C20.3132 18.7493 20.7504 17.4311 20.7504 15.2702V8.75023C20.7504 6.58941 20.3132 5.27118 19.5164 4.47431C18.7195 3.67745 17.4013 3.24023 15.2404 3.24023H15.1104C13.1541 3.24023 11.8866 3.59948 11.0755 4.25763Z" fill="black"/>
<path fill-rule="evenodd" clip-rule="evenodd" d="M2.87012 12C2.87012 11.5858 3.2059 11.25 3.62012 11.25H15.0001C15.4143 11.25 15.7501 11.5858 15.7501 12C15.7501 12.4142 15.4143 12.75 15.0001 12.75H3.62012C3.2059 12.75 2.87012 12.4142 2.87012 12Z" fill="black"/>
<path fill-rule="evenodd" clip-rule="evenodd" d="M6.38033 8.11957C6.67322 8.41247 6.67322 8.88734 6.38033 9.18023L3.56066 11.9999L6.38033 14.8196C6.67322 15.1125 6.67322 15.5873 6.38033 15.8802C6.08744 16.1731 5.61256 16.1731 5.31967 15.8802L1.96967 12.5302C1.67678 12.2373 1.67678 11.7625 1.96967 11.4696L5.31967 8.11957C5.61256 7.82668 6.08744 7.82668 6.38033 8.11957Z" fill="black"/>
</svg>
