<svg width="24" height="24" viewBox="0 0 24 24" fill="#000000" xmlns="http://www.w3.org/2000/svg">
<path fill-rule="evenodd" clip-rule="evenodd" d="M10.96 9.24023C10.6129 9.24023 10.26 9.55462 10.26 10.0202C10.26 10.3728 10.3357 10.5 10.3736 10.5483C10.4186 10.6056 10.5086 10.677 10.7494 10.7629L13.7615 11.8136C14.1139 11.9391 14.5166 12.1359 14.8174 12.5211C15.1248 12.9148 15.25 13.4059 15.25 13.9702C15.25 15.1979 14.2998 16.2502 13.05 16.2502H11.17C9.80474 16.2502 8.75 15.1027 8.75 13.7502C8.75 13.336 9.08579 13.0002 9.5 13.0002C9.91421 13.0002 10.25 13.336 10.25 13.7502C10.25 14.3378 10.6953 14.7502 11.17 14.7502H13.05C13.4002 14.7502 13.75 14.4425 13.75 13.9702C13.75 13.6246 13.6752 13.4956 13.6351 13.4443C13.5886 13.3847 13.4967 13.3118 13.2606 13.2276L10.2485 12.1768C9.90083 12.0531 9.49626 11.8597 9.1939 11.4747C8.88434 11.0805 8.76001 10.5877 8.76001 10.0202C8.76001 8.80585 9.70704 7.74023 10.96 7.74023H12.84C14.2053 7.74023 15.26 8.88778 15.26 10.2402C15.26 10.6544 14.9242 10.9902 14.51 10.9902C14.0958 10.9902 13.76 10.6544 13.76 10.2402C13.76 9.65269 13.3147 9.24023 12.84 9.24023H10.96Z" fill="black"/>
<path fill-rule="evenodd" clip-rule="evenodd" d="M12 6.75C12.4142 6.75 12.75 7.08579 12.75 7.5V16.5C12.75 16.9142 12.4142 17.25 12 17.25C11.5858 17.25 11.25 16.9142 11.25 16.5V7.5C11.25 7.08579 11.5858 6.75 12 6.75Z" fill="black"/>
<path fill-rule="evenodd" clip-rule="evenodd" d="M12 2.75C6.89421 2.75 2.75 6.89421 2.75 12C2.75 17.1058 6.89421 21.25 12 21.25C17.1058 21.25 21.25 17.1058 21.25 12C21.25 11.5858 21.5858 11.25 22 11.25C22.4142 11.25 22.75 11.5858 22.75 12C22.75 17.9342 17.9342 22.75 12 22.75C6.06579 22.75 1.25 17.9342 1.25 12C1.25 6.06579 6.06579 1.25 12 1.25C12.4142 1.25 12.75 1.58579 12.75 2C12.75 2.41421 12.4142 2.75 12 2.75Z" fill="black"/>
<path fill-rule="evenodd" clip-rule="evenodd" d="M17.25 2C17.25 1.58579 17.5858 1.25 18 1.25H22C22.4142 1.25 22.75 1.58579 22.75 2V6C22.75 6.41421 22.4142 6.75 22 6.75C21.5858 6.75 21.25 6.41421 21.25 6V2.75H18C17.5858 2.75 17.25 2.41421 17.25 2Z" fill="black"/>
<path fill-rule="evenodd" clip-rule="evenodd" d="M22.5303 1.46967C22.8232 1.76256 22.8232 2.23744 22.5303 2.53033L17.5303 7.53033C17.2374 7.82322 16.7626 7.82322 16.4697 7.53033C16.1768 7.23744 16.1768 6.76256 16.4697 6.46967L21.4697 1.46967C21.7626 1.17678 22.2374 1.17678 22.5303 1.46967Z" fill="black"/>
</svg>
