<svg width="24" height="24" viewBox="0 0 24 24" fill="#000000" xmlns="http://www.w3.org/2000/svg">
<path fill-rule="evenodd" clip-rule="evenodd" d="M3.88339 5.23807C3.20343 5.86946 2.74805 6.89393 2.74805 8.50098V15.501C2.74805 17.108 3.20343 18.1325 3.88339 18.7639C4.5734 19.4046 5.61302 19.751 6.99805 19.751H16.998C18.3831 19.751 19.4227 19.4046 20.1127 18.7639C20.7927 18.1325 21.248 17.108 21.248 15.501V8.50098C21.248 6.89393 20.7927 5.86946 20.1127 5.23807C19.4227 4.59734 18.3831 4.25098 16.998 4.25098H6.99805C5.61302 4.25098 4.5734 4.59734 3.88339 5.23807ZM2.86271 4.13888C3.92269 3.15461 5.38308 2.75098 6.99805 2.75098H16.998C18.613 2.75098 20.0734 3.15461 21.1334 4.13888C22.2034 5.1325 22.748 6.60803 22.748 8.50098V15.501C22.748 17.3939 22.2034 18.8695 21.1334 19.8631C20.0734 20.8473 18.613 21.251 16.998 21.251H6.99805C5.38308 21.251 3.92269 20.8473 2.86271 19.8631C1.79266 18.8695 1.24805 17.3939 1.24805 15.501V8.50098C1.24805 6.60803 1.79266 5.1325 2.86271 4.13888Z" fill="black"/>
<path fill-rule="evenodd" clip-rule="evenodd" d="M12 9.75C10.7574 9.75 9.75 10.7574 9.75 12C9.75 13.2426 10.7574 14.25 12 14.25C13.2426 14.25 14.25 13.2426 14.25 12C14.25 10.7574 13.2426 9.75 12 9.75ZM8.25 12C8.25 9.92893 9.92893 8.25 12 8.25C14.0711 8.25 15.75 9.92893 15.75 12C15.75 14.0711 14.0711 15.75 12 15.75C9.92893 15.75 8.25 14.0711 8.25 12Z" fill="black"/>
<path fill-rule="evenodd" clip-rule="evenodd" d="M5.50195 8.75098C5.91617 8.75098 6.25195 9.08676 6.25195 9.50098V14.501C6.25195 14.9152 5.91617 15.251 5.50195 15.251C5.08774 15.251 4.75195 14.9152 4.75195 14.501V9.50098C4.75195 9.08676 5.08774 8.75098 5.50195 8.75098Z" fill="black"/>
<path fill-rule="evenodd" clip-rule="evenodd" d="M18.498 8.75098C18.9123 8.75098 19.248 9.08676 19.248 9.50098V14.501C19.248 14.9152 18.9123 15.251 18.498 15.251C18.0838 15.251 17.748 14.9152 17.748 14.501V9.50098C17.748 9.08676 18.0838 8.75098 18.498 8.75098Z" fill="black"/>
</svg>
