<svg width="24" height="24" viewBox="0 0 24 24" fill="none" xmlns="http://www.w3.org/2000/svg">
<path fill-rule="evenodd" clip-rule="evenodd" d="M3.43029 5.1146C2.85534 5.64847 2.45996 6.52293 2.45996 7.91998V13.07C2.45996 14.0802 2.66699 14.8141 2.99072 15.3386C3.30881 15.8541 3.77032 16.2183 4.37926 16.4463C4.56718 16.5144 4.75881 16.5691 4.94845 16.5994C4.96392 16.6019 4.97931 16.6049 4.99459 16.6083C5.32974 16.6837 5.70302 16.72 6.10995 16.72H14.9C16.105 16.72 16.9946 16.4186 17.5796 15.8754C18.1546 15.3415 18.55 14.4671 18.55 13.07V7.91998C18.55 7.50905 18.5069 7.14665 18.4427 6.77771C18.26 5.86441 17.8473 5.26676 17.2924 4.88329C16.7194 4.48741 15.9215 4.27002 14.9 4.27002H6.10995C4.90492 4.27002 4.01531 4.57138 3.43029 5.1146ZM2.40962 4.0154C3.36461 3.12864 4.67499 2.77002 6.10995 2.77002H14.9C16.1184 2.77002 17.2455 3.02762 18.1451 3.64925C19.061 4.28215 19.6675 5.24209 19.9157 6.49423L19.9187 6.51073C19.9937 6.93889 20.05 7.39404 20.05 7.91998V13.07C20.05 14.753 19.5653 16.0785 18.6003 16.9746C17.6453 17.8613 16.3349 18.22 14.9 18.22H6.10995C5.62486 18.22 5.14592 18.1777 4.68789 18.0768C4.3875 18.0268 4.10839 17.9439 3.86366 17.8549L3.85764 17.8527L3.85765 17.8527C2.96808 17.5205 2.22559 16.9551 1.71421 16.1264C1.20793 15.306 0.959961 14.2798 0.959961 13.07V7.91998C0.959961 6.23703 1.44457 4.91151 2.40962 4.0154Z" fill="black"/>
<path fill-rule="evenodd" clip-rule="evenodd" d="M18.6521 6.10845C18.8313 5.93018 19.0882 5.85417 19.3356 5.90624C20.4226 6.13509 21.3744 6.64808 22.0472 7.51923C22.7167 8.38621 23.0511 9.53171 23.0511 10.9201V16.0701C23.0511 17.7531 22.5665 19.0786 21.6014 19.9747C20.6464 20.8615 19.336 21.2201 17.9011 21.2201H9.11107C8.30814 21.2201 7.54414 21.1123 6.85801 20.8525C5.41264 20.317 4.4334 19.1878 4.09544 17.4863C4.046 17.2374 4.12578 16.9803 4.30747 16.8032C4.48916 16.626 4.74812 16.5527 4.9957 16.6085C5.33085 16.6839 5.70413 16.7201 6.11107 16.7201H14.9011C16.1061 16.7201 16.9957 16.4187 17.5807 15.8755C18.1557 15.3417 18.5511 14.4672 18.5511 13.0701V7.92012C18.5511 7.49312 18.5148 7.12432 18.4464 6.79086C18.3956 6.54325 18.4729 6.28672 18.6521 6.10845ZM20.0493 7.74386C20.0505 7.80207 20.0511 7.86082 20.0511 7.92012V13.0701C20.0511 14.7531 19.5665 16.0786 18.6014 16.9747C17.6464 17.8615 16.336 18.2201 14.9011 18.2201H6.11107C6.0485 18.2201 5.98604 18.2194 5.92372 18.218C6.25404 18.8227 6.75062 19.2136 7.38118 19.4467L7.38708 19.4489L7.38707 19.4489C7.86019 19.6284 8.43514 19.7201 9.11107 19.7201H17.9011C19.1061 19.7201 19.9957 19.4187 20.5807 18.8755C21.1557 18.3417 21.5511 17.4672 21.5511 16.0701V10.9201C21.5511 9.76853 21.2754 8.97404 20.86 8.43604C20.644 8.15634 20.3742 7.92518 20.0493 7.74386Z" fill="black"/>
<path fill-rule="evenodd" clip-rule="evenodd" d="M10.4984 8.60986C9.45459 8.60986 8.6084 9.45606 8.6084 10.4999C8.6084 11.5437 9.45459 12.3899 10.4984 12.3899C11.5422 12.3899 12.3884 11.5437 12.3884 10.4999C12.3884 9.45606 11.5422 8.60986 10.4984 8.60986ZM7.1084 10.4999C7.1084 8.62763 8.62617 7.10986 10.4984 7.10986C12.3707 7.10986 13.8884 8.62763 13.8884 10.4999C13.8884 12.3721 12.3707 13.8899 10.4984 13.8899C8.62617 13.8899 7.1084 12.3721 7.1084 10.4999Z" fill="black"/>
<path fill-rule="evenodd" clip-rule="evenodd" d="M4.78027 7.5498C5.19449 7.5498 5.53027 7.88559 5.53027 8.2998V12.6998C5.53027 13.114 5.19449 13.4498 4.78027 13.4498C4.36606 13.4498 4.03027 13.114 4.03027 12.6998V8.2998C4.03027 7.88559 4.36606 7.5498 4.78027 7.5498Z" fill="black"/>
<path fill-rule="evenodd" clip-rule="evenodd" d="M16.2217 7.55029C16.6359 7.55029 16.9717 7.88608 16.9717 8.30029V12.7003C16.9717 13.1145 16.6359 13.4503 16.2217 13.4503C15.8075 13.4503 15.4717 13.1145 15.4717 12.7003V8.30029C15.4717 7.88608 15.8075 7.55029 16.2217 7.55029Z" fill="black"/>
</svg>
