<svg width="24" height="24" viewBox="0 0 24 24" fill="#000000" xmlns="http://www.w3.org/2000/svg">
<path fill-rule="evenodd" clip-rule="evenodd" d="M11.681 3.46376C10.8482 3.75116 10.1936 4.35292 9.67526 5.425L9.67306 5.42954C9.40701 5.97051 9.18288 6.6511 8.9902 7.46988C8.99017 7.47003 8.99024 7.46973 8.9902 7.46988L8.01033 11.6594C7.53745 13.6763 7.66077 14.9942 8.2259 15.9041C8.79155 16.8148 9.91985 17.5108 11.9333 17.9888L13.616 18.3895C14.1648 18.5219 14.6655 18.6046 15.1198 18.6409L15.1318 18.6419C16.5613 18.7793 17.5297 18.5056 18.2374 17.9C18.9704 17.2727 19.5447 16.1883 19.9495 14.4486L20.9298 10.2673C21.4029 8.24949 21.2815 6.92971 20.7165 6.01895C20.1514 5.10822 19.0221 4.41199 16.9995 3.93889C16.9994 3.93887 16.9996 3.93891 16.9995 3.93889L15.3295 3.54889L15.3274 3.54841C13.7183 3.16782 12.5486 3.16432 11.681 3.46376ZM15.6716 2.08843C13.9411 1.67924 12.4462 1.61285 11.1916 2.04583C9.90261 2.49067 8.97754 3.42311 8.32591 4.76981C7.99256 5.44825 7.73704 6.24671 7.52997 7.12676L6.54983 11.3173C6.0428 13.4802 6.07435 15.283 6.95167 16.6955C7.82845 18.1072 9.42999 18.9361 11.5863 19.4481M11.5863 19.4481L13.2641 19.8476C13.2645 19.8477 13.265 19.8478 13.2654 19.8479C13.8739 19.9948 14.4507 20.0918 14.9942 20.1357C16.6822 20.2969 18.1017 19.9904 19.2127 19.0396C20.2995 18.1095 20.9752 16.6591 21.4104 14.7891C21.4103 14.7893 21.4104 14.7889 21.4104 14.7891L22.3902 10.6097C22.8971 8.4476 22.8685 6.64238 21.9911 5.22814C21.1137 3.8139 19.5081 2.98515 17.3408 2.47825L15.6727 2.08868C15.6723 2.0886 15.672 2.08852 15.6716 2.08843" fill="black"/>
<path d="M15.0603 19.3916C14.4403 19.8116 13.6603 20.1616 12.7103 20.4716L11.1303 20.9916C7.16034 22.2716 5.07034 21.2016 3.78034 17.2316L2.50034 13.2816C1.22034 9.31156 2.28034 7.21156 6.25034 5.93156L7.83034 5.41156C8.24034 5.28156 8.63034 5.17156 9.00034 5.10156C8.70034 5.71156 8.46034 6.45156 8.26034 7.30156L7.28034 11.4916C6.30034 15.6716 7.59034 17.7316 11.7603 18.7216L13.4403 19.1216C14.0203 19.2616 14.5603 19.3516 15.0603 19.3916Z" stroke="black" stroke-width="1.5" stroke-linecap="round" stroke-linejoin="round"/>
<path fill-rule="evenodd" clip-rule="evenodd" d="M11.9138 8.34706C12.0156 7.94556 12.4237 7.70262 12.8252 7.80444L17.6752 9.03444C18.0767 9.13627 18.3196 9.5443 18.2178 9.9458C18.116 10.3473 17.7079 10.5902 17.3064 10.4884L12.4564 9.25841C12.0549 9.15659 11.812 8.74856 11.9138 8.34706Z" fill="black"/>
<path fill-rule="evenodd" clip-rule="evenodd" d="M10.9336 12.2132C11.036 11.8118 11.4444 11.5695 11.8458 11.6719L14.7458 12.4119C15.1471 12.5143 15.3895 12.9227 15.2871 13.3241C15.1846 13.7254 14.7763 13.9677 14.3749 13.8653L11.4749 13.1253C11.0735 13.0229 10.8312 12.6145 10.9336 12.2132Z" fill="black"/>
</svg>
