<svg width="24" height="24" viewBox="0 0 24 24" fill="#000000" xmlns="http://www.w3.org/2000/svg">
<path fill-rule="evenodd" clip-rule="evenodd" d="M10.0098 2.75C10.424 2.75 10.7598 3.08579 10.7598 3.5V20.5C10.7598 20.9142 10.424 21.25 10.0098 21.25C9.59555 21.25 9.25977 20.9142 9.25977 20.5V3.5C9.25977 3.08579 9.59555 2.75 10.0098 2.75Z" fill="black"/>
<path fill-rule="evenodd" clip-rule="evenodd" d="M13.4594 2.9702C13.752 2.67701 14.2269 2.67654 14.52 2.96914L19.54 7.97914C19.8332 8.27174 19.8337 8.74662 19.5411 9.0398C19.2485 9.33299 18.7736 9.33346 18.4804 9.04086L13.4604 4.03086C13.1672 3.73826 13.1668 3.26338 13.4594 2.9702Z" fill="black"/>
<path fill-rule="evenodd" clip-rule="evenodd" d="M13.9902 2.75C14.4044 2.75 14.7402 3.08579 14.7402 3.5V20.5C14.7402 20.9142 14.4044 21.25 13.9902 21.25C13.576 21.25 13.2402 20.9142 13.2402 20.5V3.5C13.2402 3.08579 13.576 2.75 13.9902 2.75Z" fill="black"/>
</svg>
