<svg width="24" height="24" viewBox="0 0 24 24" fill="#000000" xmlns="http://www.w3.org/2000/svg">
<path fill-rule="evenodd" clip-rule="evenodd" d="M1.25 12C1.25 6.06579 6.06579 1.25 12 1.25C12.4142 1.25 12.75 1.58579 12.75 2C12.75 2.41421 12.4142 2.75 12 2.75C6.89421 2.75 2.75 6.89421 2.75 12C2.75 17.1058 6.89421 21.25 12 21.25C17.1058 21.25 21.25 17.1058 21.25 12C21.25 11.5858 21.5858 11.25 22 11.25C22.4142 11.25 22.75 11.5858 22.75 12C22.75 17.9342 17.9342 22.75 12 22.75C6.06579 22.75 1.25 17.9342 1.25 12Z" fill="black"/>
<path fill-rule="evenodd" clip-rule="evenodd" d="M21.7303 2.26947C22.0232 2.56237 22.0232 3.03724 21.7303 3.33013L13.5303 11.5301C13.2374 11.823 12.7626 11.823 12.4697 11.5301C12.1768 11.2372 12.1768 10.7624 12.4697 10.4695L20.6697 2.26947C20.9626 1.97658 21.4374 1.97658 21.7303 2.26947Z" fill="black"/>
<path fill-rule="evenodd" clip-rule="evenodd" d="M16.4199 2C16.4199 1.58579 16.7557 1.25 17.1699 1.25H21.9999C22.4141 1.25 22.7499 1.58579 22.7499 2V6.83C22.7499 7.24421 22.4141 7.58 21.9999 7.58C21.5857 7.58 21.2499 7.24421 21.2499 6.83V2.75H17.1699C16.7557 2.75 16.4199 2.41421 16.4199 2Z" fill="black"/>
</svg>
