<svg width="24" height="24" viewBox="0 0 24 24" fill="none" xmlns="http://www.w3.org/2000/svg">
<path fill-rule="evenodd" clip-rule="evenodd" d="M17.9101 2.75C16.8943 2.75 16.0801 3.56421 16.0801 4.58C16.0801 5.55792 16.8322 6.34607 17.7843 6.40782C17.8642 6.40073 17.946 6.40073 18.0258 6.40782C18.9763 6.34613 19.7317 5.559 19.7401 4.57733C19.7386 3.57086 18.9231 2.75 17.9101 2.75ZM14.5801 4.58C14.5801 2.73579 16.0659 1.25 17.9101 1.25C19.7562 1.25 21.2401 2.74768 21.2401 4.58V4.58536H21.2401C21.2272 6.38428 19.8112 7.84488 18.0272 7.90951C17.9864 7.91099 17.9456 7.90913 17.9051 7.90396C17.8646 7.90913 17.8237 7.91099 17.7829 7.90951C15.9999 7.84491 14.5801 6.38403 14.5801 4.58Z" fill="black"/>
<path fill-rule="evenodd" clip-rule="evenodd" d="M16.8111 8.85124C18.3315 8.58491 20.065 8.83883 21.3252 9.67506L21.3266 9.67596C22.188 10.2502 22.7181 11.0823 22.7181 12.01C22.7181 12.9377 22.188 13.7698 21.3266 14.344C20.0757 15.1813 18.3629 15.4342 16.8464 15.1796C16.4379 15.1111 16.1623 14.7243 16.2309 14.3158C16.2995 13.9073 16.6862 13.6318 17.0947 13.7003C18.3177 13.9057 19.6242 13.6789 20.4932 13.0969L20.4945 13.096C21.0431 12.7302 21.2181 12.3223 21.2181 12.01C21.2181 11.6978 21.0433 11.2901 20.4952 10.9245C19.6155 10.3411 18.2894 10.1151 17.07 10.3287C16.662 10.4002 16.2733 10.1274 16.2018 9.71941C16.1303 9.31141 16.4031 8.92271 16.8111 8.85124Z" fill="black"/>
<path fill-rule="evenodd" clip-rule="evenodd" d="M2.73047 4.58C2.73047 2.74768 4.21437 1.25 6.06047 1.25C7.90469 1.25 9.39047 2.73579 9.39047 4.58C9.39047 6.38403 7.97062 7.84491 6.18763 7.90951C6.14681 7.91099 6.10595 7.90913 6.06547 7.90396C6.02499 7.90913 5.98413 7.91099 5.94331 7.90951C4.15938 7.84488 2.74334 6.38429 2.73049 4.58536L2.73047 4.58ZM4.23047 4.57733C4.23885 5.559 4.99425 6.34613 5.94472 6.40782C6.02458 6.40073 6.10637 6.40073 6.18623 6.40782C7.13834 6.34607 7.89047 5.55792 7.89047 4.58C7.89047 3.56421 7.07626 2.75 6.06047 2.75C5.04747 2.75 4.23191 3.57087 4.23047 4.57733Z" fill="black"/>
<path fill-rule="evenodd" clip-rule="evenodd" d="M3.47578 10.9245C4.35554 10.3411 5.68164 10.1151 6.90101 10.3287C7.30901 10.4002 7.6977 10.1274 7.76918 9.71941C7.84065 9.31141 7.56784 8.92271 7.15984 8.85124C5.63953 8.58491 3.906 8.83883 2.64575 9.67506L2.64575 9.67506L2.6444 9.67596C1.78302 10.2502 1.25293 11.0823 1.25293 12.01C1.25293 12.9374 1.78274 13.7693 2.64373 14.3436C3.89469 15.1812 5.60784 15.4343 7.1246 15.1796C7.5331 15.1111 7.80866 14.7243 7.74008 14.3158C7.6715 13.9073 7.28475 13.6318 6.87625 13.7003C5.65329 13.9057 4.34679 13.6789 3.47781 13.0969L3.47645 13.096C2.92784 12.7302 2.75293 12.3223 2.75293 12.01C2.75293 11.6978 2.9277 11.2901 3.47578 10.9245Z" fill="black"/>
<path fill-rule="evenodd" clip-rule="evenodd" d="M11.9101 10.2202C10.8943 10.2202 10.0801 11.0344 10.0801 12.0502C10.0801 13.0281 10.8322 13.8163 11.7843 13.878C11.8653 13.8708 11.9483 13.8709 12.0292 13.8783C12.972 13.8243 13.7317 13.0345 13.7401 12.0475C13.7386 11.0411 12.9231 10.2202 11.9101 10.2202ZM8.58008 12.0502C8.58008 10.206 10.0659 8.72021 11.9101 8.72021C13.7562 8.72021 15.2401 10.2179 15.2401 12.0502V12.0556H15.2401C15.2272 13.8497 13.8148 15.3279 12.0218 15.3799C11.9828 15.381 11.9438 15.3791 11.9051 15.3742C11.8646 15.3793 11.8237 15.3812 11.7829 15.3797C9.99992 15.3151 8.58008 13.8542 8.58008 12.0502Z" fill="black"/>
<path fill-rule="evenodd" clip-rule="evenodd" d="M12.0035 16.2354C13.172 16.2354 14.3808 16.5263 15.3258 17.1563C16.1871 17.7306 16.7172 18.5627 16.7172 19.4904C16.7172 20.4179 16.1873 21.2499 15.3261 21.8242C14.3771 22.4586 13.1687 22.7529 11.9997 22.7529C10.8307 22.7529 9.62234 22.4586 8.67337 21.8242C7.81218 21.2499 7.28223 20.4179 7.28223 19.4904C7.28223 18.5627 7.81232 17.7306 8.6737 17.1563L8.67551 17.1551L8.67551 17.1551C9.62449 16.5264 10.8348 16.2354 12.0035 16.2354ZM9.50487 18.405C8.95695 18.7706 8.78223 19.1782 8.78223 19.4904C8.78223 19.8027 8.95714 20.2106 9.50575 20.5763L9.50665 20.5769C10.1576 21.0122 11.059 21.2529 11.9997 21.2529C12.9405 21.2529 13.8418 21.0122 14.4928 20.5769L14.4937 20.5763C15.0423 20.2106 15.2172 19.8027 15.2172 19.4904C15.2172 19.178 15.0423 18.7701 14.4937 18.4044C13.8487 17.9744 12.9475 17.7354 12.0035 17.7354C11.0601 17.7354 10.1558 17.9741 9.50487 18.405Z" fill="black"/>
</svg>
