<svg width="24" height="24" viewBox="0 0 24 24" fill="none" xmlns="http://www.w3.org/2000/svg">
<path d="M13.125 16.5C13.125 16.7984 13.0065 17.0845 12.7955 17.2955C12.5845 17.5065 12.2984 17.625 12 17.625C11.7016 17.625 11.4155 17.5065 11.2045 17.2955C10.9935 17.0845 10.875 16.7984 10.875 16.5C10.875 16.2016 10.9935 15.9155 11.2045 15.7045C11.4155 15.4935 11.7016 15.375 12 15.375C12.2984 15.375 12.5845 15.4935 12.7955 15.7045C13.0065 15.9155 13.125 16.2016 13.125 16.5ZM10.5 9C10.5 8.59725 10.635 8.21925 10.8727 7.9515C11.0985 7.69725 11.4532 7.5 12 7.5C12.981 7.5 13.7865 8.511 13.5225 9.5685C13.3875 10.11 13.065 10.4198 12.5798 10.8855L12.4462 11.013C11.8995 11.5425 11.25 12.246 11.25 13.5C11.25 13.6989 11.329 13.8897 11.4697 14.0303C11.6103 14.171 11.8011 14.25 12 14.25C12.1989 14.25 12.3897 14.171 12.5303 14.0303C12.671 13.8897 12.75 13.6989 12.75 13.5C12.75 12.8798 13.0148 12.5497 13.4888 12.0922L13.632 11.9557C14.0925 11.5208 14.7315 10.917 14.9775 9.93225C15.4635 7.98975 14.019 6 12 6C11.0468 6 10.2765 6.36525 9.75225 6.95475C9.24 7.53075 9 8.27775 9 9C9 9.19891 9.07902 9.38968 9.21967 9.53033C9.36032 9.67098 9.55109 9.75 9.75 9.75C9.94891 9.75 10.1397 9.67098 10.2803 9.53033C10.421 9.38968 10.5 9.19891 10.5 9ZM1.5 12C1.5 6.201 6.201 1.5 12 1.5C17.799 1.5 22.5 6.201 22.5 12C22.5 17.799 17.799 22.5 12 22.5C6.201 22.5 1.5 17.799 1.5 12ZM12 3C7.02975 3 3 7.02975 3 12C3 16.9703 7.02975 21 12 21C16.9703 21 21 16.9703 21 12C21 7.02975 16.9703 3 12 3Z" fill="black"/>
</svg>
