<svg width="24" height="24" viewBox="0 0 24 24" fill="#000000" xmlns="http://www.w3.org/2000/svg">
<path fill-rule="evenodd" clip-rule="evenodd" d="M3.89481 2.49637C4.84095 1.48504 6.3285 1.25 8.22 1.25H15.78C17.6715 1.25 19.1591 1.48504 20.1052 2.49637C21.0347 3.48991 21.25 5.03645 21.25 7.04001V11.3C21.25 11.7142 20.9142 12.05 20.5 12.05C20.0858 12.05 19.75 11.7142 19.75 11.3V7.04001C19.75 5.01357 19.4953 4.0401 19.0098 3.52114C18.5409 3.01996 17.6685 2.75 15.78 2.75H8.22C6.3315 2.75 5.45906 3.01996 4.99019 3.52114C4.50468 4.0401 4.25 5.01357 4.25 7.04001V18.3C4.25 18.9046 4.33408 19.3385 4.45025 19.6233C4.56542 19.9057 4.68815 19.9904 4.74794 20.0162C4.80225 20.0396 4.92947 20.0686 5.18132 19.9599C5.44052 19.848 5.78163 19.6077 6.18124 19.1788C6.18701 19.1726 6.19289 19.1665 6.19887 19.1605L6.20198 19.1574C7.3393 17.9598 9.1318 18.0578 10.1207 19.381L11.1305 20.7307C11.3787 21.0624 11.311 21.5324 10.9793 21.7805C10.6476 22.0287 10.1776 21.9609 9.92947 21.6293L8.91946 20.2793L8.91923 20.279C8.49043 19.7052 7.78886 19.6606 7.28577 20.1944L7.27113 20.2095L7.26989 20.2108C6.78723 20.7271 6.28513 21.1171 5.77589 21.337C5.25617 21.5614 4.68652 21.6229 4.15457 21.3938C3.62811 21.1671 3.27521 20.7143 3.06131 20.1898C2.84842 19.6677 2.75 19.0254 2.75 18.3V7.04001C2.75 5.03645 2.96532 3.48991 3.89481 2.49637Z" fill="black"/>
<path fill-rule="evenodd" clip-rule="evenodd" d="M7.25 7C7.25 6.58579 7.58579 6.25 8 6.25H16C16.4142 6.25 16.75 6.58579 16.75 7C16.75 7.41421 16.4142 7.75 16 7.75H8C7.58579 7.75 7.25 7.41421 7.25 7Z" fill="black"/>
<path fill-rule="evenodd" clip-rule="evenodd" d="M8.25 11C8.25 10.5858 8.58579 10.25 9 10.25H15C15.4142 10.25 15.75 10.5858 15.75 11C15.75 11.4142 15.4142 11.75 15 11.75H9C8.58579 11.75 8.25 11.4142 8.25 11Z" fill="black"/>
<path fill-rule="evenodd" clip-rule="evenodd" d="M19.1342 13.4569C19.7974 13.3887 20.4077 13.6866 20.9512 14.2301C21.4978 14.7767 21.7992 15.3883 21.7334 16.0531C21.6716 16.6782 21.2988 17.1632 20.9512 17.5108L17.4188 21.0432C17.2722 21.1968 17.0919 21.3084 16.9438 21.3825C16.7879 21.4604 16.5985 21.5312 16.4078 21.5613L16.3954 21.5632L15.0469 21.7529C15.0466 21.753 15.0472 21.7529 15.0469 21.7529C14.6054 21.8157 14.1494 21.6997 13.8205 21.3708C13.4916 21.0419 13.3754 20.5868 13.4382 20.1452C13.4383 20.1449 13.4382 20.1455 13.4382 20.1452L13.6299 18.7835C13.6605 18.5897 13.7328 18.4015 13.8104 18.2481C13.8879 18.0948 13.9982 17.9224 14.1405 17.7801C14.1405 17.7801 14.1405 17.7801 14.1405 17.7801L17.6805 14.2401C18.0282 13.8924 18.5121 13.5208 19.1342 13.4569ZM19.2875 14.949C19.1796 14.9601 19.0035 15.0384 18.7412 15.3008L15.2025 18.8394C15.202 18.8401 15.1964 18.8464 15.1871 18.86C15.1752 18.8772 15.1618 18.8996 15.1488 18.9253C15.1358 18.9509 15.1257 18.9751 15.1188 18.9949C15.1145 19.0073 15.1124 19.0151 15.1117 19.0181L14.9378 20.2535L16.1739 20.0795C16.1771 20.0788 16.1862 20.0765 16.201 20.0714C16.2223 20.064 16.2474 20.0536 16.2729 20.0409C16.2986 20.028 16.319 20.0157 16.3326 20.0062C16.3358 20.004 16.3382 20.0022 16.3399 20.001C16.3434 19.9973 16.3469 19.9937 16.3505 19.9901L19.8905 16.4501C20.1529 16.1878 20.2301 16.0127 20.2407 15.9053C20.2474 15.8376 20.2439 15.6442 19.8905 15.2908C19.544 14.9443 19.3543 14.9422 19.2875 14.949Z" fill="black"/>
<path fill-rule="evenodd" clip-rule="evenodd" d="M17.4987 14.5578C17.8978 14.447 18.3112 14.6806 18.422 15.0797C18.6516 15.9063 19.2936 16.5482 20.1201 16.7778C20.5192 16.8887 20.7529 17.3021 20.642 17.7012C20.5312 18.1003 20.1178 18.334 19.7187 18.2231C18.3852 17.8527 17.3472 16.8147 16.9768 15.4812C16.8659 15.0821 17.0996 14.6687 17.4987 14.5578Z" fill="black"/>
</svg>
