<svg width="90" height="35" viewBox="0 0 90 35" fill="none" xmlns="http://www.w3.org/2000/svg">
<g id="logo-text">
<g id="Group 23">
<path id="Fill 14" fill-rule="evenodd" clip-rule="evenodd" d="M44.1476 28.0303C47.2095 28.0303 49.5286 25.451 49.5286 21.7213C49.5286 17.945 47.2095 15.4122 44.1476 15.4122C41.0865 15.4122 38.7206 17.9915 38.7206 21.7213C38.7206 25.4973 41.0401 28.0303 44.1476 28.0303ZM31.1133 21.7211C31.1133 15.0442 35.8448 9.14966 44.1479 9.14966C52.4055 9.14966 57.1829 15.0442 57.1829 21.7211C57.1829 28.3521 52.4513 34.2464 44.1479 34.2464C35.8448 34.2464 31.1133 28.3521 31.1133 21.7211Z" fill="#293354"/>
<path id="Fill 16" fill-rule="evenodd" clip-rule="evenodd" d="M60.75 0.169739H68.1719V25.1748C68.1719 26.9707 69.0068 27.938 70.5841 27.938C71.3259 27.938 72.254 27.7078 72.9958 27.2933L74.0165 32.819C72.1145 33.6479 69.4705 34.2009 67.4296 34.2009C63.2083 34.2009 60.75 31.8979 60.75 27.7536V0.169739Z" fill="#293354"/>
<g id="Group 20">
<mask id="mask0_6217_14335" style="mask-type:luminance" maskUnits="userSpaceOnUse" x="76" y="0" width="14" height="35">
<path id="Clip 19" fill-rule="evenodd" clip-rule="evenodd" d="M76.2852 0.169739H89.5518V34.2009H76.2852V0.169739Z" fill="white"/>
</mask>
<g mask="url(#mask0_6217_14335)">
<path id="Fill 18" fill-rule="evenodd" clip-rule="evenodd" d="M76.2852 0.169739H83.707V25.1748C83.707 26.9707 84.542 27.938 86.1195 27.938C86.8613 27.938 87.7891 27.7078 88.531 27.2933L89.5519 32.819C87.6497 33.6479 85.0057 34.2009 82.9647 34.2009C78.7434 34.2009 76.2852 31.8979 76.2852 27.7536V0.169739Z" fill="#293354"/>
</g>
</g>
<path id="Fill 21" fill-rule="evenodd" clip-rule="evenodd" d="M10.3344 16.6557V7.72203H17.0603C18.7768 7.72203 20.5856 9.47173 20.5856 12.1428C20.5856 14.768 19.1013 16.6557 17.2922 16.6557H13.1419L21.4119 33.7863H30.1881L22.9515 21.6291C26.245 19.833 28.3325 16.1492 28.3325 12.1428C28.3325 6.70923 23.7865 1.09106 17.5706 1.09106H2.72656V33.7863H10.3344V23.2409H10.3374V16.6557H10.3344Z" fill="#293354"/>
</g>
</g>
</svg>
