<svg width="24" height="24" viewBox="0 0 24 24" fill="none" xmlns="http://www.w3.org/2000/svg">
<path fill-rule="evenodd" clip-rule="evenodd" d="M12.0026 1.24756C12.6109 1.24756 13.2561 1.33178 13.7871 1.52546L13.7934 1.52773L18.7828 3.39756C19.5298 3.67688 20.1665 4.23762 20.6132 4.88337C21.06 5.52922 21.3601 6.32273 21.3601 7.12006V14.5501C21.3601 15.289 21.1212 16.0878 20.7714 16.7833C20.4214 17.4791 19.9221 18.1476 19.3291 18.5908L15.0308 21.7995C15.0304 21.7998 15.0301 21.8001 15.0297 21.8004C14.172 22.4447 13.0735 22.7451 12.0101 22.7451C10.9468 22.7451 9.84824 22.4447 8.9905 21.8003C8.99016 21.8001 8.98982 21.7998 8.98948 21.7995L4.69151 18.5911C4.09852 18.1479 3.59888 17.4791 3.2489 16.7833C2.89906 16.0878 2.66016 15.289 2.66016 14.5501V7.12006C2.66016 6.32273 2.96032 5.52922 3.40711 4.88337C3.85378 4.23768 4.49033 3.677 5.23725 3.39765C5.23732 3.39762 5.23717 3.39768 5.23725 3.39765L10.227 1.52775C10.7516 1.33181 11.3953 1.24756 12.0026 1.24756ZM10.7526 2.93265C10.7524 2.93271 10.7527 2.9326 10.7526 2.93265L5.76334 4.80236C5.36036 4.95304 4.95148 5.2875 4.6407 5.73675C4.32999 6.1859 4.16016 6.68739 4.16016 7.12006V14.5501C4.16016 14.9911 4.31126 15.5573 4.58892 16.1093C4.86643 16.661 5.23209 17.1224 5.58907 17.3892C5.5891 17.3893 5.58904 17.3892 5.58907 17.3892L9.89084 20.6006C10.4429 21.0156 11.209 21.2451 12.0101 21.2451C12.8113 21.2451 13.5773 21.0156 14.1295 20.6006L14.1315 20.5991L18.4312 17.3893C18.7881 17.1224 19.1539 16.6609 19.4314 16.1093C19.709 15.5573 19.8601 14.9911 19.8601 14.5501V7.12006C19.8601 6.68739 19.6903 6.1859 19.3796 5.73675C19.0688 5.2875 18.6604 4.95324 18.2575 4.80256L13.2703 2.93362C12.9515 2.81792 12.4929 2.74756 12.0026 2.74756C11.5102 2.74756 11.0579 2.81869 10.7526 2.93265Z" fill="black"/>
<path fill-rule="evenodd" clip-rule="evenodd" d="M12 8.25C10.2051 8.25 8.75 9.70507 8.75 11.5C8.75 13.2949 10.2051 14.75 12 14.75C13.7949 14.75 15.25 13.2949 15.25 11.5C15.25 9.70507 13.7949 8.25 12 8.25ZM7.25 11.5C7.25 8.87665 9.37665 6.75 12 6.75C14.6234 6.75 16.75 8.87665 16.75 11.5C16.75 14.1234 14.6234 16.25 12 16.25C9.37665 16.25 7.25 14.1234 7.25 11.5Z" fill="black"/>
<path fill-rule="evenodd" clip-rule="evenodd" d="M12.2501 9.5C12.6643 9.5 13.0001 9.83579 13.0001 10.25V11.18C13.0001 11.7837 12.6899 12.3641 12.1434 12.6847L11.3885 13.1416C11.0341 13.3561 10.573 13.2427 10.3585 12.8883C10.144 12.534 10.2574 12.0729 10.6118 11.8584L11.3835 11.3913C11.4528 11.351 11.5001 11.2739 11.5001 11.18V10.25C11.5001 9.83579 11.8359 9.5 12.2501 9.5Z" fill="black"/>
</svg>
