<svg width="24" height="24" viewBox="0 0 24 24" fill="#000000" xmlns="http://www.w3.org/2000/svg">
<path fill-rule="evenodd" clip-rule="evenodd" d="M16.3442 5.74196C16.5806 5.40183 17.0479 5.31773 17.3881 5.55412C19.5605 7.06399 21.0612 9.46595 21.3655 12.2381C21.4108 12.6499 21.1136 13.0203 20.7019 13.0655C20.2902 13.1107 19.9197 12.8136 19.8745 12.4018C19.6189 10.074 18.3595 8.05598 16.532 6.78586C16.1919 6.54946 16.1078 6.08209 16.3442 5.74196Z" fill="black"/>
<path fill-rule="evenodd" clip-rule="evenodd" d="M7.70268 5.78679C7.94181 6.125 7.8615 6.59303 7.52329 6.83217C5.71402 8.11145 4.47358 10.129 4.23639 12.4462C4.19421 12.8582 3.82598 13.1581 3.41392 13.1159C3.00186 13.0737 2.70201 12.7055 2.74419 12.2934C3.02701 9.53053 4.50656 7.12812 6.65729 5.60741C6.9955 5.36827 7.46354 5.44858 7.70268 5.78679Z" fill="black"/>
<path fill-rule="evenodd" clip-rule="evenodd" d="M7.52111 20.6001C7.7089 20.2309 8.16042 20.0838 8.52963 20.2716C9.58529 20.8085 10.7889 21.1101 12.0596 21.1101C13.2859 21.1101 14.4336 20.836 15.4614 20.3357C15.8338 20.1545 16.2827 20.3094 16.464 20.6819C16.6453 21.0543 16.4903 21.5032 16.1178 21.6845C14.8856 22.2842 13.5134 22.6101 12.0596 22.6101C10.5503 22.6101 9.11394 22.2517 7.8496 21.6086C7.4804 21.4208 7.33333 20.9693 7.52111 20.6001Z" fill="black"/>
<path fill-rule="evenodd" clip-rule="evenodd" d="M12.0603 2.89014C10.9391 2.89014 10.0303 3.799 10.0303 4.92014C10.0303 6.04127 10.9391 6.95014 12.0603 6.95014C13.1814 6.95014 14.0903 6.04128 14.0903 4.92014C14.0903 3.799 13.1814 2.89014 12.0603 2.89014ZM8.53027 4.92014C8.53027 2.97057 10.1107 1.39014 12.0603 1.39014C14.0098 1.39014 15.5903 2.97057 15.5903 4.92014C15.5903 6.8697 14.0098 8.45014 12.0603 8.45014C10.1107 8.45014 8.53027 6.8697 8.53027 4.92014Z" fill="black"/>
<path fill-rule="evenodd" clip-rule="evenodd" d="M4.8298 15.1099C3.70867 15.1099 2.7998 16.0187 2.7998 17.1399C2.7998 18.261 3.70867 19.1699 4.8298 19.1699C5.95094 19.1699 6.85981 18.261 6.85981 17.1399C6.85981 16.0187 5.95094 15.1099 4.8298 15.1099ZM1.2998 17.1399C1.2998 15.1903 2.88024 13.6099 4.8298 13.6099C6.77937 13.6099 8.35981 15.1903 8.35981 17.1399C8.35981 19.0894 6.77937 20.6699 4.8298 20.6699C2.88024 20.6699 1.2998 19.0894 1.2998 17.1399Z" fill="black"/>
<path fill-rule="evenodd" clip-rule="evenodd" d="M19.1696 15.1099C18.0485 15.1099 17.1396 16.0187 17.1396 17.1399C17.1396 18.261 18.0485 19.1699 19.1696 19.1699C20.2908 19.1699 21.1996 18.261 21.1996 17.1399C21.1996 16.0187 20.2908 15.1099 19.1696 15.1099ZM15.6396 17.1399C15.6396 15.1903 17.2201 13.6099 19.1696 13.6099C21.1192 13.6099 22.6996 15.1903 22.6996 17.1399C22.6996 19.0894 21.1192 20.6699 19.1696 20.6699C17.2201 20.6699 15.6396 19.0894 15.6396 17.1399Z" fill="black"/>
</svg>
