<svg width="24" height="24" viewBox="0 0 24 24" fill="none" xmlns="http://www.w3.org/2000/svg">
<path d="M16.5001 15.0002C15.9999 14.9994 15.5046 15.0995 15.0439 15.2944C14.5833 15.4893 14.1666 15.7751 13.8188 16.1346L9.49696 13.3596C9.83433 12.4848 9.83433 11.5157 9.49696 10.6409L13.8188 7.86587C14.4268 8.48767 15.232 8.87882 16.0966 8.97238C16.9612 9.06594 17.8315 8.85609 18.5584 8.37875C19.2854 7.9014 19.8238 7.18625 20.0816 6.35568C20.3393 5.52511 20.3004 4.63077 19.9715 3.82573C19.6425 3.02069 19.044 2.355 18.2784 1.9426C17.5127 1.53021 16.6275 1.39674 15.7743 1.56505C14.9211 1.73335 14.1529 2.19297 13.6012 2.86523C13.0496 3.53749 12.7487 4.38059 12.7501 5.25024C12.7516 5.71494 12.8374 6.17552 13.0032 6.60962L8.68133 9.38462C8.16101 8.85005 7.49306 8.48282 6.76292 8.32989C6.03277 8.17696 5.2736 8.24527 4.58249 8.52609C3.89137 8.80691 3.29972 9.28748 2.88318 9.90635C2.46664 10.5252 2.24414 11.2543 2.24414 12.0002C2.24414 12.7462 2.46664 13.4753 2.88318 14.0941C3.29972 14.713 3.89137 15.1936 4.58249 15.4744C5.2736 15.7552 6.03277 15.8235 6.76292 15.6706C7.49306 15.5177 8.16101 15.1504 8.68133 14.6159L13.0032 17.3909C12.8374 17.825 12.7516 18.2855 12.7501 18.7502C12.7501 19.4919 12.97 20.2169 13.3821 20.8336C13.7941 21.4503 14.3798 21.931 15.065 22.2148C15.7502 22.4986 16.5042 22.5729 17.2317 22.4282C17.9591 22.2835 18.6273 21.9263 19.1517 21.4019C19.6762 20.8774 20.0333 20.2093 20.178 19.4818C20.3227 18.7544 20.2485 18.0004 19.9646 17.3152C19.6808 16.63 19.2002 16.0443 18.5835 15.6322C17.9668 15.2202 17.2418 15.0002 16.5001 15.0002ZM16.5001 3.00024C16.9451 3.00024 17.3801 3.1322 17.7501 3.37944C18.1201 3.62667 18.4085 3.97807 18.5788 4.38921C18.7491 4.80034 18.7937 5.25274 18.7069 5.6892C18.62 6.12565 18.4057 6.52657 18.0911 6.84123C17.7764 7.1559 17.3755 7.37019 16.939 7.45701C16.5026 7.54383 16.0502 7.49927 15.639 7.32897C15.2279 7.15868 14.8765 6.87029 14.6293 6.50028C14.382 6.13027 14.2501 5.69525 14.2501 5.25024C14.2526 4.65427 14.4904 4.0834 14.9118 3.66198C15.3332 3.24056 15.9041 3.00271 16.5001 3.00024ZM6.00008 14.2502C5.55508 14.2502 5.12006 14.1183 4.75005 13.871C4.38004 13.6238 4.09165 13.2724 3.92135 12.8613C3.75106 12.4501 3.7065 11.9977 3.79332 11.5613C3.88013 11.1248 4.09443 10.7239 4.40909 10.4093C4.72376 10.0946 5.12467 9.88029 5.56113 9.79348C5.99759 9.70666 6.44999 9.75122 6.86112 9.92151C7.27225 10.0918 7.62366 10.3802 7.87089 10.7502C8.11812 11.1202 8.25008 11.5552 8.25008 12.0002C8.24762 12.5962 8.00977 13.1671 7.58835 13.5885C7.16692 14.0099 6.59606 14.2478 6.00008 14.2502ZM16.5001 21.0002C16.0551 21.0002 15.6201 20.8683 15.2501 20.621C14.88 20.3738 14.5917 20.0224 14.4214 19.6113C14.2511 19.2001 14.2065 18.7477 14.2933 18.3113C14.3801 17.8748 14.5944 17.4739 14.9091 17.1593C15.2238 16.8446 15.6247 16.6303 16.0611 16.5435C16.4976 16.4567 16.95 16.5012 17.3611 16.6715C17.7723 16.8418 18.1237 17.1302 18.3709 17.5002C18.6181 17.8702 18.7501 18.3052 18.7501 18.7502C18.7476 19.3462 18.5098 19.9171 18.0883 20.3385C17.6669 20.7599 17.0961 20.9978 16.5001 21.0002Z" fill="black"/>
</svg>
