<svg width="24" height="24" viewBox="0 0 24 24" fill="none" xmlns="http://www.w3.org/2000/svg">
<path fill-rule="evenodd" clip-rule="evenodd" d="M3.09272 3.09565C4.42719 1.76118 6.42407 1.25098 8.99805 1.25098H14.998C17.572 1.25098 19.5689 1.76118 20.9034 3.09565C22.2378 4.43012 22.748 6.427 22.748 9.00098V15.001C22.748 17.5749 22.2378 19.5718 20.9034 20.9063C19.5689 22.2408 17.572 22.751 14.998 22.751H8.99805C6.42407 22.751 4.42719 22.2408 3.09272 20.9063C1.75825 19.5718 1.24805 17.5749 1.24805 15.001V9.00098C1.24805 6.427 1.75825 4.43012 3.09272 3.09565ZM4.15338 4.15631C3.23785 5.07184 2.74805 6.57495 2.74805 9.00098V15.001C2.74805 17.427 3.23785 18.9301 4.15338 19.8456C5.06891 20.7612 6.57202 21.251 8.99805 21.251H14.998C17.4241 21.251 18.9272 20.7612 19.8427 19.8456C20.7582 18.9301 21.248 17.427 21.248 15.001V9.00098C21.248 6.57495 20.7582 5.07184 19.8427 4.15631C18.9272 3.24078 17.4241 2.75098 14.998 2.75098H8.99805C6.57202 2.75098 5.06891 3.24078 4.15338 4.15631Z" fill="black"/>
<path fill-rule="evenodd" clip-rule="evenodd" d="M12.4484 9.00556C11.3512 8.7139 10.3711 9.52619 10.3711 10.5607C10.3711 10.6409 10.3779 10.7157 10.389 10.7766L10.3917 10.7913L10.3938 10.8061C10.4609 11.2825 10.7438 11.6935 11.1466 11.9435L11.5011 12.1635V14.5607C11.5011 14.8365 11.7253 15.0607 12.0011 15.0607C12.2769 15.0607 12.5011 14.8365 12.5011 14.5607V12.1635L12.8556 11.9435C13.2584 11.6935 13.5413 11.2825 13.6084 10.8061L13.6095 10.7987L13.6107 10.7913C13.6448 10.5797 13.6375 10.3581 13.5775 10.1381L13.5756 10.1312C13.4344 9.59296 12.9889 9.14743 12.4507 9.00616L12.4484 9.00556ZM12.8327 7.55561C10.7703 7.00812 8.87109 8.55564 8.87109 10.5607C8.87109 10.7155 8.88344 10.8754 8.91049 11.0298C9.02458 11.8129 9.43104 12.4887 10.0011 12.9625V14.5607C10.0011 15.6649 10.8969 16.5607 12.0011 16.5607C13.1053 16.5607 14.0011 15.6649 14.0011 14.5607V12.9625C14.5729 12.4873 14.98 11.8089 15.0927 11.0228C15.1571 10.6176 15.144 10.183 15.0256 9.74688C14.746 8.68705 13.8928 7.83435 12.8327 7.55561Z" fill="black"/>
<path fill-rule="evenodd" clip-rule="evenodd" d="M14.3496 10.1602H21.9996V11.6602H14.3496V10.1602Z" fill="black"/>
<path fill-rule="evenodd" clip-rule="evenodd" d="M1.99805 10.1602H9.64804V11.6602H1.99805V10.1602Z" fill="black"/>
</svg>
