<svg width="24" height="24" viewBox="0 0 24 24" fill="none" xmlns="http://www.w3.org/2000/svg">
<path fill-rule="evenodd" clip-rule="evenodd" d="M4.96578 5.03367C6.97033 4.83122 8.97512 4.72998 10.9801 4.72998C14.3454 4.72998 17.7201 4.90127 21.074 5.23364C21.4862 5.27448 21.7872 5.64175 21.7464 6.05394C21.7055 6.46614 21.3383 6.76717 20.9261 6.72632C17.62 6.39869 14.2947 6.22998 10.9801 6.22998C9.02535 6.22998 7.07051 6.3287 5.11543 6.52618L5.11323 6.5264L3.07323 6.7264C2.661 6.76682 2.29405 6.4654 2.25363 6.05316C2.21322 5.64092 2.51464 5.27397 2.92688 5.23356L4.96578 5.03367Z" fill="black"/>
<path fill-rule="evenodd" clip-rule="evenodd" d="M9.4597 3.78456L9.23976 5.09421C9.17116 5.50271 8.7844 5.77824 8.3759 5.70964C7.96741 5.64104 7.69187 5.25428 7.76048 4.84578L7.98048 3.53579C7.98432 3.51297 7.98828 3.48908 7.99228 3.46487C8.06114 3.04899 8.16216 2.43887 8.56885 1.97769C9.04291 1.44012 9.76621 1.25 10.6901 1.25H13.3101C14.2453 1.25 14.9678 1.4554 15.4391 1.99845C15.8463 2.46776 15.9448 3.08006 16.0106 3.48891C16.0138 3.5088 16.0169 3.52822 16.02 3.54711L16.2396 4.84486C16.3087 5.25326 16.0337 5.64037 15.6253 5.70949C15.2169 5.7786 14.8297 5.50355 14.7606 5.09514L14.5399 3.79069C14.4562 3.27767 14.4033 3.09352 14.3062 2.98155C14.2524 2.9196 14.065 2.75 13.3101 2.75H10.6901C9.92402 2.75 9.74232 2.91488 9.69389 2.96981C9.60177 3.07427 9.54978 3.24976 9.4597 3.78456Z" fill="black"/>
<path fill-rule="evenodd" clip-rule="evenodd" d="M18.8987 8.39172C19.3121 8.4184 19.6255 8.77512 19.5989 9.18847L18.9486 19.2626L18.9473 19.2816C18.9209 19.6578 18.8919 20.0716 18.8144 20.4565C18.734 20.8557 18.5923 21.277 18.3052 21.6508C17.704 22.4335 16.681 22.7502 15.2104 22.7502H8.79042C7.31985 22.7502 6.29679 22.4335 5.69562 21.6508C5.40852 21.277 5.26682 20.8557 5.18643 20.4565C5.1089 20.0716 5.07993 19.6578 5.05358 19.2816L5.05196 19.2585L4.40198 9.18847C4.37529 8.77512 4.68875 8.4184 5.10211 8.39172C5.51546 8.36504 5.87218 8.6785 5.89886 9.09185L6.54858 19.1577C6.54863 19.1584 6.54868 19.1591 6.54873 19.1598C6.57695 19.5625 6.60084 19.882 6.6569 20.1604C6.71151 20.4315 6.78732 20.6096 6.88522 20.7371C7.05404 20.9569 7.47098 21.2502 8.79042 21.2502H15.2104C16.5299 21.2502 16.9468 20.9569 17.1156 20.7371C17.2135 20.6096 17.2893 20.4315 17.3439 20.1604C17.4 19.882 17.4239 19.5625 17.4521 19.1598C17.4522 19.1591 17.4522 19.1584 17.4523 19.1577L18.102 9.09185C18.1287 8.6785 18.4854 8.36504 18.8987 8.39172Z" fill="black"/>
<path fill-rule="evenodd" clip-rule="evenodd" d="M9.58008 16.5C9.58008 16.0858 9.91586 15.75 10.3301 15.75H13.6601C14.0743 15.75 14.4101 16.0858 14.4101 16.5C14.4101 16.9142 14.0743 17.25 13.6601 17.25H10.3301C9.91586 17.25 9.58008 16.9142 9.58008 16.5Z" fill="black"/>
<path fill-rule="evenodd" clip-rule="evenodd" d="M8.75 12.5C8.75 12.0858 9.08579 11.75 9.5 11.75H14.5C14.9142 11.75 15.25 12.0858 15.25 12.5C15.25 12.9142 14.9142 13.25 14.5 13.25H9.5C9.08579 13.25 8.75 12.9142 8.75 12.5Z" fill="black"/>
</svg>
