<svg width="24" height="24" viewBox="0 0 24 24" fill="none" xmlns="http://www.w3.org/2000/svg">
<path fill-rule="evenodd" clip-rule="evenodd" d="M17.0303 8.96967C17.3232 9.26256 17.3232 9.73744 17.0303 10.0303L12.8303 14.2303C12.6714 14.3892 12.4497 14.4685 12.2261 14.4463C12.0025 14.4242 11.8006 14.303 11.676 14.116L10.5834 12.4772L8.03033 15.0303C7.73744 15.3232 7.26256 15.3232 6.96967 15.0303C6.67678 14.7374 6.67678 14.2626 6.96967 13.9697L10.1697 10.7697C10.3286 10.6108 10.5503 10.5315 10.7739 10.5537C10.9975 10.5758 11.1994 10.697 11.324 10.884L12.4166 12.5228L15.9697 8.96967C16.2626 8.67678 16.7374 8.67678 17.0303 8.96967Z" fill="black"/>
<path fill-rule="evenodd" clip-rule="evenodd" d="M13.75 9.5C13.75 9.08579 14.0858 8.75 14.5 8.75H16.5C16.9142 8.75 17.25 9.08579 17.25 9.5V11.5C17.25 11.9142 16.9142 12.25 16.5 12.25C16.0858 12.25 15.75 11.9142 15.75 11.5V10.25H14.5C14.0858 10.25 13.75 9.91421 13.75 9.5Z" fill="black"/>
<path fill-rule="evenodd" clip-rule="evenodd" d="M3.09467 3.09467C4.42914 1.7602 6.42603 1.25 9 1.25H15C17.574 1.25 19.5709 1.7602 20.9053 3.09467C22.2398 4.42914 22.75 6.42603 22.75 9V15C22.75 17.574 22.2398 19.5709 20.9053 20.9053C19.5709 22.2398 17.574 22.75 15 22.75H9C6.42603 22.75 4.42914 22.2398 3.09467 20.9053C1.7602 19.5709 1.25 17.574 1.25 15V9C1.25 6.42603 1.7602 4.42914 3.09467 3.09467ZM4.15533 4.15533C3.2398 5.07086 2.75 6.57397 2.75 9V15C2.75 17.426 3.2398 18.9291 4.15533 19.8447C5.07086 20.7602 6.57397 21.25 9 21.25H15C17.426 21.25 18.9291 20.7602 19.8447 19.8447C20.7602 18.9291 21.25 17.426 21.25 15V9C21.25 6.57397 20.7602 5.07086 19.8447 4.15533C18.9291 3.2398 17.426 2.75 15 2.75H9C6.57397 2.75 5.07086 3.2398 4.15533 4.15533Z" fill="black"/>
</svg>
