<svg width="24" height="24" viewBox="0 0 24 24" fill="none" xmlns="http://www.w3.org/2000/svg">
<path fill-rule="evenodd" clip-rule="evenodd" d="M12 2.75C9.65279 2.75 7.75 4.65279 7.75 7C7.75 9.34721 9.65279 11.25 12 11.25C14.3472 11.25 16.25 9.34721 16.25 7C16.25 4.65279 14.3472 2.75 12 2.75ZM6.25 7C6.25 3.82436 8.82436 1.25 12 1.25C15.1756 1.25 17.75 3.82436 17.75 7C17.75 10.1756 15.1756 12.75 12 12.75C8.82436 12.75 6.25 10.1756 6.25 7Z" fill="black"/>
<path fill-rule="evenodd" clip-rule="evenodd" d="M20.1332 14.4266C20.7964 14.3585 21.4067 14.6564 21.9502 15.1998C22.4968 15.7464 22.7982 16.358 22.7324 17.0228C22.6706 17.6479 22.2978 18.1329 21.9502 18.4805L18.4178 22.0129C18.2712 22.1665 18.0908 22.2782 17.9427 22.3523C17.7869 22.4302 17.5974 22.5009 17.4068 22.531L17.3944 22.533L16.0459 22.7226C16.0456 22.7227 16.0462 22.7226 16.0459 22.7226C15.6044 22.7855 15.1485 22.6694 14.8195 22.3405C14.4906 22.0116 14.3744 21.5565 14.4373 21.1149C14.4373 21.1146 14.4372 21.1152 14.4373 21.1149L14.6289 19.7532C14.6595 19.5595 14.7318 19.3712 14.8094 19.2179C14.8869 19.0645 14.9972 18.8922 15.1395 18.7499L18.6795 15.2099C19.0272 14.8622 19.5111 14.4905 20.1332 14.4266ZM20.2865 15.9188C20.1786 15.9298 20.0026 16.0082 19.7402 16.2705L16.2015 19.8092C16.201 19.8099 16.1954 19.8162 16.1861 19.8297C16.1742 19.847 16.1608 19.8694 16.1478 19.895C16.1349 19.9207 16.1247 19.9448 16.1178 19.9647C16.1135 19.9771 16.1114 19.9848 16.1107 19.9878L15.9368 21.2232L17.1729 21.0492C17.1761 21.0485 17.1852 21.0462 17.2 21.0411C17.2214 21.0337 17.2465 21.0233 17.272 21.0106C17.2977 20.9977 17.3181 20.9854 17.3317 20.9759C17.3349 20.9737 17.3372 20.972 17.3389 20.9707C17.3424 20.9671 17.346 20.9634 17.3495 20.9599L20.8895 17.4199C21.1519 17.1575 21.2291 16.9825 21.2397 16.8751C21.2464 16.8074 21.2429 16.6139 20.8895 16.2605C20.543 15.914 20.3533 15.9119 20.2865 15.9188Z" fill="black"/>
<path fill-rule="evenodd" clip-rule="evenodd" d="M18.4987 15.5276C18.8978 15.4167 19.3112 15.6504 19.422 16.0495C19.6516 16.876 20.2936 17.5179 21.1201 17.7475C21.5192 17.8584 21.7529 18.2718 21.642 18.6709C21.5312 19.07 21.1177 19.3037 20.7186 19.1928C19.3852 18.8224 18.3472 17.7844 17.9768 16.4509C17.8659 16.0518 18.0996 15.6384 18.4987 15.5276Z" fill="black"/>
<path fill-rule="evenodd" clip-rule="evenodd" d="M12.0002 15.75C7.52305 15.75 4.16016 18.6809 4.16016 22C4.16016 22.4142 3.82437 22.75 3.41016 22.75C2.99594 22.75 2.66016 22.4142 2.66016 22C2.66016 17.5791 6.99731 14.25 12.0002 14.25C13.1123 14.25 14.1851 14.4104 15.1864 14.7118C15.583 14.8313 15.8077 15.2496 15.6883 15.6462C15.5689 16.0428 15.1506 16.2676 14.7539 16.1481C13.8952 15.8896 12.9681 15.75 12.0002 15.75Z" fill="black"/>
</svg>
