<svg width="24" height="24" viewBox="0 0 24 24" fill="#000000" xmlns="http://www.w3.org/2000/svg">
<path fill-rule="evenodd" clip-rule="evenodd" d="M10.5511 3.55098L7.86038 6.24998H16.8232C16.6906 5.91445 16.4853 5.60009 16.2053 5.32445L16.198 5.31733L14.4507 3.54995C13.3734 2.48301 11.628 2.48336 10.5511 3.55098ZM6.24108 5.74968L9.49302 2.48773C11.1555 0.837419 13.8474 0.837427 15.5098 2.48773L15.5148 2.49267L17.2613 4.25921C18.0351 5.02274 18.4517 5.99996 18.5005 7.01387C18.5115 7.24039 18.4193 7.45969 18.2498 7.6104C18.0804 7.76111 17.8518 7.82705 17.6281 7.78977C17.4482 7.75979 17.246 7.74998 17.0014 7.74998H7.00141C6.75716 7.74998 6.52538 7.76743 6.30545 7.80126C6.02831 7.8439 5.75052 7.72837 5.58534 7.50178C5.42017 7.27519 5.39519 6.97538 5.52059 6.72457C5.70466 6.35643 5.95865 6.03218 6.24108 5.74968C6.24095 5.74981 6.24121 5.74955 6.24108 5.74968Z" fill="black"/>
<path fill-rule="evenodd" clip-rule="evenodd" d="M5 15.75C3.20421 15.75 1.75 17.2042 1.75 19C1.75 19.6094 1.92052 20.1833 2.21838 20.6663L2.22467 20.6765L2.22459 20.6766C2.7844 21.6177 3.81412 22.25 5 22.25C6.18588 22.25 7.2156 21.6177 7.77541 20.6766L7.78154 20.6663L7.78162 20.6663C8.07948 20.1833 8.25 19.6094 8.25 19C8.25 17.2042 6.79579 15.75 5 15.75ZM0.25 19C0.25 16.3758 2.37579 14.25 5 14.25C7.62421 14.25 9.75 16.3758 9.75 19C9.75 19.8885 9.50169 20.7327 9.06151 21.4486C8.24062 22.8246 6.73196 23.75 5 23.75C3.26803 23.75 1.75936 22.8246 0.93848 21.4486C0.498301 20.7327 0.25 19.8885 0.25 19Z" fill="black"/>
<path fill-rule="evenodd" clip-rule="evenodd" d="M2.76172 18.9795C2.76172 18.5653 3.09751 18.2295 3.51172 18.2295H6.49172C6.90593 18.2295 7.24172 18.5653 7.24172 18.9795C7.24172 19.3937 6.90593 19.7295 6.49172 19.7295H3.51172C3.09751 19.7295 2.76172 19.3937 2.76172 18.9795Z" fill="black"/>
<path fill-rule="evenodd" clip-rule="evenodd" d="M5 16.7695C5.41421 16.7695 5.75 17.1053 5.75 17.5195V20.5095C5.75 20.9237 5.41421 21.2595 5 21.2595C4.58579 21.2595 4.25 20.9237 4.25 20.5095V17.5195C4.25 17.1053 4.58579 16.7695 5 16.7695Z" fill="black"/>
<path fill-rule="evenodd" clip-rule="evenodd" d="M7 7.75C6.75575 7.75 6.52397 7.76744 6.30404 7.80128L6.28339 7.80416C5.17606 7.94312 4.30559 8.41721 3.70955 9.11651C3.11197 9.81761 2.75 10.7929 2.75 12V14.818C3.4178 14.4568 4.18354 14.25 5 14.25C7.62421 14.25 9.75 16.3758 9.75 19C9.75 19.8077 9.54483 20.5787 9.17688 21.25H17C18.3296 21.25 19.3793 20.8101 20.0947 20.0947C20.8101 19.3793 21.25 18.3296 21.25 17V12C21.25 10.7847 20.8817 9.80336 20.2747 9.09999C19.6691 8.39822 18.7851 7.92541 17.6634 7.79497C17.6511 7.79354 17.6389 7.79181 17.6267 7.78978C17.4468 7.7598 17.2446 7.75 17 7.75H7ZM6.08633 6.31713C6.38313 6.27204 6.68789 6.25 7 6.25H17C17.2697 6.25 17.5608 6.25975 17.8545 6.30711C19.305 6.47974 20.5395 7.1109 21.4103 8.12C22.2833 9.13163 22.75 10.4753 22.75 12V17C22.75 18.6704 22.1899 20.1207 21.1553 21.1553C20.1207 22.1899 18.6704 22.75 17 22.75H7.63C7.31467 22.75 7.03302 22.5528 6.9252 22.2564C6.81739 21.9601 6.90644 21.628 7.14804 21.4254C7.39099 21.2216 7.60515 20.9684 7.77217 20.6821L7.78162 20.6663C8.07948 20.1833 8.25 19.6094 8.25 19C8.25 17.2042 6.79579 15.75 5 15.75C4.02649 15.75 3.15813 16.1788 2.56317 16.8553C2.35705 17.0897 2.02733 17.1719 1.73531 17.0617C1.44329 16.9516 1.25 16.6721 1.25 16.36V12C1.25 10.4871 1.70803 9.15239 2.56795 8.14349C3.42737 7.13519 4.64812 6.4999 6.08633 6.31713Z" fill="black"/>
<path fill-rule="evenodd" clip-rule="evenodd" d="M16.25 14.5C16.25 12.9858 17.4858 11.75 19 11.75H22C22.4142 11.75 22.75 12.0858 22.75 12.5C22.75 12.9142 22.4142 13.25 22 13.25H19C18.3142 13.25 17.75 13.8142 17.75 14.5C17.75 15.1858 18.3142 15.75 19 15.75H22C22.4142 15.75 22.75 16.0858 22.75 16.5C22.75 16.9142 22.4142 17.25 22 17.25H19C17.4858 17.25 16.25 16.0142 16.25 14.5Z" fill="black"/>
</svg>
