<svg width="24" height="24" viewBox="0 0 24 24" fill="#000000" xmlns="http://www.w3.org/2000/svg">
<path fill-rule="evenodd" clip-rule="evenodd" d="M3.60156 16.1104C4.01578 16.1104 4.35156 16.4461 4.35156 16.8604C4.35156 18.021 5.4539 19.0504 7.18158 19.0504C8.89596 19.0504 10.0016 18.0136 10.0016 16.8604C10.0016 16.4461 10.3374 16.1104 10.7516 16.1104C11.1658 16.1104 11.5016 16.4461 11.5016 16.8604V18.8904C11.5016 21.119 9.46465 22.7504 7.18158 22.7504C4.9014 22.7504 2.85156 21.1215 2.85156 18.8904V16.8604C2.85156 16.4461 3.18735 16.1104 3.60156 16.1104ZM4.60511 19.856C5.03545 20.6474 5.98028 21.2504 7.18158 21.2504C8.38358 21.2504 9.32568 20.6459 9.7524 19.8515C9.01279 20.3034 8.10857 20.5504 7.18158 20.5504C6.2522 20.5504 5.34616 20.3059 4.60511 19.856Z" fill="black"/>
<path fill-rule="evenodd" clip-rule="evenodd" d="M7.15979 11.7598C6.3414 11.7598 5.62994 12.0402 5.12431 12.4836L5.1237 12.4842C4.62368 12.9217 4.33984 13.4946 4.33984 14.1097C4.33984 14.4642 4.43771 14.7906 4.61085 15.0804C5.0383 15.7727 5.97611 16.2997 7.1698 16.2997C8.3683 16.2997 9.30252 15.7793 9.72786 15.0819C9.90158 14.7916 9.99982 14.4647 9.99982 14.1097C9.99982 13.4927 9.71501 12.917 9.20968 12.4959L9.20022 12.488L9.20029 12.4879C8.68852 12.047 7.97289 11.7598 7.15979 11.7598ZM4.13533 11.3558C4.92971 10.6592 5.99818 10.2598 7.15979 10.2598C8.3244 10.2598 9.38694 10.6708 10.1747 11.3475C10.9866 12.0263 11.4998 13.0089 11.4998 14.1097C11.4998 14.754 11.3185 15.3463 11.0129 15.8556L11.0106 15.8595L11.0106 15.8595C10.2554 17.1011 8.7702 17.7997 7.1698 17.7997C5.56544 17.7997 4.08433 17.0885 3.33082 15.8624L3.32663 15.8556L3.32667 15.8556C3.02108 15.3463 2.83984 14.7539 2.83984 14.1097C2.83984 13.0049 3.35597 12.0378 4.13594 11.3553L4.62982 11.9197L4.13533 11.3558Z" fill="black"/>
<path fill-rule="evenodd" clip-rule="evenodd" d="M7.18158 11.75C5.51321 11.75 4.35156 12.8998 4.35156 14.11V16.86C4.35156 18.0109 5.46426 19.05 7.18158 19.05C8.89779 19.05 10.0016 18.0218 10.0016 16.86V14.11C10.0016 13.493 9.71628 12.9116 9.21991 12.4763C8.70829 12.0365 7.99354 11.75 7.18158 11.75ZM2.85156 14.11C2.85156 11.8801 4.88995 10.25 7.18158 10.25C8.34848 10.25 9.41291 10.6627 10.2011 11.3418L10.2055 11.3455L10.2055 11.3455C10.9878 12.03 11.5016 13.0079 11.5016 14.11V16.86C11.5016 19.1382 9.40537 20.55 7.18158 20.55C4.9589 20.55 2.85156 19.1291 2.85156 16.86V14.11Z" fill="black"/>
<path fill-rule="evenodd" clip-rule="evenodd" d="M18.9202 10.7002C18.5612 10.7002 18.2454 10.8394 18.0176 11.0734L18.0041 11.0869C17.7381 11.3466 17.5895 11.7163 17.6269 12.1091L17.6277 12.1179L17.6277 12.1179C17.6806 12.7529 18.2911 13.3002 19.0402 13.3002H20.983C21.1447 13.2897 21.2502 13.1633 21.2502 13.0302V10.9702C21.2502 10.837 21.1447 10.7106 20.983 10.7002H18.9202ZM16.9495 10.0201C17.4612 9.49834 18.1626 9.2002 18.9202 9.2002H21.0002C21.0092 9.2002 21.0181 9.20035 21.027 9.20067C21.98 9.23471 22.7502 10.0059 22.7502 10.9702V13.0302C22.7502 13.9945 21.98 14.7657 21.027 14.7997C21.0181 14.8 21.0092 14.8002 21.0002 14.8002H19.0402C17.6307 14.8002 16.2626 13.7695 16.1332 12.2469C16.0525 11.3847 16.3807 10.5792 16.9495 10.0201Z" fill="black"/>
<path fill-rule="evenodd" clip-rule="evenodd" d="M7 4.25C6.75575 4.25 6.52398 4.26744 6.30405 4.30128L6.28339 4.30416C5.17606 4.44312 4.30559 4.91721 3.70955 5.61651C3.11197 6.31761 2.75 7.29287 2.75 8.5V10.5C2.75 10.9142 2.41421 11.25 2 11.25C1.58579 11.25 1.25 10.9142 1.25 10.5V8.5C1.25 6.98713 1.70803 5.65239 2.56796 4.64349C3.42737 3.63519 4.64812 2.9999 6.08633 2.81713C6.38313 2.77204 6.68789 2.75 7 2.75H16C16.2697 2.75 16.5608 2.75975 16.8545 2.80711C18.305 2.97974 19.5395 3.6109 20.4103 4.62C21.2833 5.63163 21.75 6.9753 21.75 8.5V9.95001C21.75 10.3642 21.4142 10.7 21 10.7H18.92C18.5609 10.7 18.2451 10.8392 18.0173 11.0732L18.0039 11.0867C17.7378 11.3464 17.5892 11.7162 17.6266 12.1089L17.6275 12.1177L17.6274 12.1177C17.6803 12.7527 18.2909 13.3 19.04 13.3H21C21.4142 13.3 21.75 13.6358 21.75 14.05V15.5C21.75 17.1704 21.1899 18.6207 20.1553 19.6553C19.1207 20.6899 17.6704 21.25 16 21.25H13.5C13.0858 21.25 12.75 20.9142 12.75 20.5C12.75 20.0858 13.0858 19.75 13.5 19.75H16C17.3296 19.75 18.3793 19.3101 19.0947 18.5947C19.8101 17.8793 20.25 16.8296 20.25 15.5V14.8H19.04C17.6304 14.8 16.2623 13.7693 16.133 12.2467C16.0522 11.3845 16.3805 10.579 16.9493 10.02C17.4609 9.49815 18.1623 9.20001 18.92 9.20001H20.25V8.5C20.25 7.2847 19.8817 6.30336 19.2747 5.59999C18.6691 4.89822 17.7851 4.42541 16.6634 4.29497C16.6511 4.29354 16.6389 4.29181 16.6267 4.28978C16.4468 4.2598 16.2446 4.25 16 4.25H7Z" fill="black"/>
</svg>
