<svg width="24" height="24" viewBox="0 0 24 24" fill="#000000" xmlns="http://www.w3.org/2000/svg">
<path fill-rule="evenodd" clip-rule="evenodd" d="M12 7C12.4142 7 12.75 7.33579 12.75 7.75V13C12.75 13.4142 12.4142 13.75 12 13.75C11.5858 13.75 11.25 13.4142 11.25 13V7.75C11.25 7.33579 11.5858 7 12 7Z" fill="black"/>
<path fill-rule="evenodd" clip-rule="evenodd" d="M13.1967 3.07041C12.4464 2.64226 11.5315 2.64443 10.7952 3.06953L4.85788 6.49794C4.11595 6.93498 3.66016 7.72968 3.66016 8.58003V15.42C3.66016 16.2836 4.11854 17.0753 4.85515 17.5005L10.7923 20.9289C10.7927 20.9291 10.7932 20.9294 10.7937 20.9297C11.544 21.3578 12.4588 21.3556 13.1951 20.9305C13.1952 20.9305 13.1951 20.9306 13.1951 20.9305L19.1302 17.5034C19.131 17.503 19.1318 17.5025 19.1325 17.5021C19.8744 17.065 20.3302 16.2703 20.3302 15.42V8.58003C20.3302 7.721 19.8755 6.93563 19.1325 6.49794C19.1317 6.4975 19.131 6.49706 19.1302 6.49661L13.1981 3.07118C13.1976 3.07092 13.1972 3.07066 13.1967 3.07041ZM10.0452 1.77047C11.2484 1.07583 12.7329 1.07774 13.9423 1.76882L13.9452 1.7705L19.8902 5.20335C21.0858 5.90592 21.8302 7.17993 21.8302 8.58003V15.42C21.8302 16.8088 21.0869 18.0934 19.8902 18.7967L19.8852 18.7996L13.9452 22.2295C12.742 22.9242 11.2574 22.9223 10.0481 22.2312L10.0451 22.2295L4.10518 18.7996C2.90179 18.1048 2.16016 16.8164 2.16016 15.42V8.58003C2.16016 7.19125 2.90345 5.90661 4.10019 5.20337L4.10511 5.20048L10.0452 1.77047Z" fill="black"/>
<path fill-rule="evenodd" clip-rule="evenodd" d="M12 15.2002C12.5523 15.2002 13 15.6479 13 16.2002V16.3002C13 16.8525 12.5523 17.3002 12 17.3002C11.4477 17.3002 11 16.8525 11 16.3002V16.2002C11 15.6479 11.4477 15.2002 12 15.2002Z" fill="black"/>
</svg>
